<?xml version="1.0" standalone="no"?>
<!DOCTYPE svg PUBLIC "-//W3C//DTD SVG 1.1//EN" "http://www.w3.org/Graphics/SVG/1.1/DTD/svg11.dtd" >
<svg xmlns="http://www.w3.org/2000/svg" xmlns:xlink="http://www.w3.org/1999/xlink" version="1.1">
<metadata>
Created by FontForge 20190801 at Mon Jun 15 19:27:55 2020
 By Jimmy Wärting
Copyright 2020 The Kanit Project Authors (https://github.com/cadsondemak/kanit)
</metadata>
<defs>
<font id="Kanit-ExtraLight" horiz-adv-x="0" >
  <font-face 
    font-family="Kanit ExtraLight"
    font-weight="275"
    font-stretch="normal"
    units-per-em="1000"
    panose-1="0 0 0 0 0 0 0 0 0 0"
    ascent="800"
    descent="-200"
    x-height="474"
    cap-height="644"
    bbox="-555 -337 1110 1008"
    underline-thickness="50"
    underline-position="-125"
    unicode-range="U+000D-FB02"
  />
<missing-glyph horiz-adv-x="509" 
d="M49 0v714h411v-714h-411zM100 51h309v612h-309v-612z" />
    <glyph glyph-name="fi" unicode="fi" horiz-adv-x="494" 
d="M108 0v428h-73v46h73v69q0 71 45.5 111.5t118.5 40.5q67 0 102 -16v-44q-14 7 -38.5 10.5t-49.5 3.5q-123 0 -123 -105v-70h256v-474h-55v428h-201v-428h-55z" />
    <glyph glyph-name="fl" unicode="fl" horiz-adv-x="494" 
d="M108 0v428h-73v46h73v69q0 71 45.5 111.5t118.5 40.5q32 0 58.5 -4.5t45.5 -11.5h43v-679h-55v428h-201v-428h-55zM163 474h201v161q-33 14 -78 14q-123 0 -123 -105v-70z" />
    <glyph glyph-name="uni0E240E45" unicode="&#xe24;&#xe45;" horiz-adv-x="852" 
d="M479 -160v516q0 81 -41.5 113.5t-130.5 32.5q-61 0 -114.5 -19t-81.5 -48v-28l120 -26v-48q-38 -9 -59 -31t-21 -62v-139q0 -55 52 -55h59v-46h-80q-41 0 -63.5 25t-22.5 66v152q0 39 20.5 68t62.5 41l-118 26v80q35 35 98.5 63.5t148.5 28.5q82 0 134 -26
q29 11 68.5 18.5t79.5 7.5q98 0 142.5 -43.5t44.5 -144.5v-522h-55v517q0 49 -10.5 81t-41 48t-90.5 16q-43 0 -92 -11q46 -49 46 -138v-513h-55z" />
    <glyph glyph-name="uni0E260E45" unicode="&#xe26;&#xe45;" horiz-adv-x="891" 
d="M515 -160v516q0 81 -41.5 113.5t-130.5 32.5q-61 0 -114.5 -19t-81.5 -48v-28l123 -26v-48q-37 -10 -51.5 -30.5t-14.5 -62.5v-142q0 -47 -22.5 -72.5t-66.5 -25.5h-57v46h43q48 0 48 54v143q0 39 14.5 67.5t54.5 41.5l-121 26v80q35 35 98.5 63.5t148.5 28.5t137 -27v1
q29 11 68.5 18.5t79.5 7.5q98 0 142.5 -43.5t44.5 -144.5v-522h-55v517q0 49 -10.5 81t-41 48t-90.5 16q-22 0 -46.5 -3t-48.5 -9q46 -49 46 -137v-513h-55z" />
    <glyph glyph-name=".notdef" horiz-adv-x="509" 
d="M49 0v714h411v-714h-411zM100 51h309v612h-309v-612z" />
    <glyph glyph-name="A" unicode="A" horiz-adv-x="667" 
d="M55 0l244 644h70l243 -644h-56l-71 188h-302l-71 -188h-57zM195 233h277l-139 367z" />
    <glyph glyph-name="Aacute" unicode="&#xc1;" horiz-adv-x="667" 
d="M300 688l67 158h52l-74 -158h-45zM55 0l244 644h70l243 -644h-56l-71 188h-302l-71 -188h-57zM195 233h277l-139 367z" />
    <glyph glyph-name="Abreve" unicode="&#x102;" horiz-adv-x="667" 
d="M333 687q-51 0 -81 31.5t-30 79.5h42q0 -34 19 -53t50 -19q32 0 51 19t19 53h42q0 -48 -30 -79.5t-82 -31.5zM55 0l244 644h70l243 -644h-56l-71 188h-302l-71 -188h-57zM195 233h277l-139 367z" />
    <glyph glyph-name="uni1EAE" unicode="&#x1eae;" horiz-adv-x="667" 
d="M302 786l60 117h47l-66 -117h-41zM334 688q-36 0 -68 13t-51.5 42t-19.5 77h39q0 -49 28 -72.5t72 -23.5t72 23.5t28 72.5h38q0 -48 -19.5 -77t-50.5 -42t-68 -13zM55 0l244 644h70l243 -644h-56l-71 188h-302l-71 -188h-57zM195 233h277l-139 367z" />
    <glyph glyph-name="uni1EB6" unicode="&#x1eb6;" horiz-adv-x="667" 
d="M333 687q-51 0 -81 31.5t-30 79.5h42q0 -34 19 -53t50 -19q32 0 51 19t19 53h42q0 -48 -30 -79.5t-82 -31.5zM55 0l244 644h70l243 -644h-56l-71 188h-302l-71 -188h-57zM195 233h277l-139 367zM304 -152v57h59v-57h-59z" />
    <glyph glyph-name="uni1EB0" unicode="&#x1eb0;" horiz-adv-x="667" 
d="M325 786l-66 117h47l59 -117h-40zM334 688q-36 0 -68 13t-51.5 42t-19.5 77h39q0 -49 28 -72.5t72 -23.5t72 23.5t28 72.5h38q0 -48 -19.5 -77t-50.5 -42t-68 -13zM55 0l244 644h70l243 -644h-56l-71 188h-302l-71 -188h-57zM195 233h277l-139 367z" />
    <glyph glyph-name="uni1EB2" unicode="&#x1eb2;" horiz-adv-x="667" 
d="M299 776v57q52 2 67.5 13.5t15.5 33.5q0 42 -54 42q-17 0 -31 -3.5t-28 -9.5v33q14 5 31 8.5t36 3.5q41 0 64 -18.5t23 -52.5q0 -32 -18.5 -49t-61.5 -23v-35h-44zM334 688q-36 0 -68 13t-51.5 42t-19.5 77h39q0 -49 28 -72.5t72 -23.5t72 23.5t28 72.5h38
q0 -48 -19.5 -77t-50.5 -42t-68 -13zM55 0l244 644h70l243 -644h-56l-71 188h-302l-71 -188h-57zM195 233h277l-139 367z" />
    <glyph glyph-name="uni1EB4" unicode="&#x1eb4;" horiz-adv-x="667" 
d="M395 848q-23 0 -43.5 8.5t-39.5 17t-38 8.5q-22 0 -40 -6.5t-35 -25.5v43q12 13 32 20t41 7q25 0 44.5 -8.5t37.5 -17t40 -8.5t39.5 7t32.5 26v-44q-22 -27 -71 -27zM333 688q-36 0 -68 13t-51.5 42t-19.5 77h39q0 -49 28 -72.5t72 -23.5t72 23.5t28 72.5h38
q0 -48 -19.5 -77t-50.5 -42t-68 -13zM55 0l244 644h70l243 -644h-56l-71 188h-302l-71 -188h-57zM195 233h277l-139 367z" />
    <glyph glyph-name="uni01CD" unicode="&#x1cd;" horiz-adv-x="667" 
d="M309 688l-105 135h50l79 -103l79 103h50l-105 -135h-48zM55 0l244 644h70l243 -644h-56l-71 188h-302l-71 -188h-57zM195 233h277l-139 367z" />
    <glyph glyph-name="Acircumflex" unicode="&#xc2;" horiz-adv-x="667" 
d="M204 687l105 135h48l105 -135h-50l-79 103l-79 -103h-50zM55 0l244 644h70l243 -644h-56l-71 188h-302l-71 -188h-57zM195 233h277l-139 367z" />
    <glyph glyph-name="uni1EA4" unicode="&#x1ea4;" horiz-adv-x="667" 
d="M399 793l60 117h47l-66 -117h-41zM203 687l103 110h48l103 -110h-49l-78 85l-78 -85h-49zM55 0l244 644h70l243 -644h-56l-71 188h-302l-71 -188h-57zM195 233h277l-139 367z" />
    <glyph glyph-name="uni1EAC" unicode="&#x1eac;" horiz-adv-x="667" 
d="M204 687l105 135h48l105 -135h-50l-79 103l-79 -103h-50zM55 0l244 644h70l243 -644h-56l-71 188h-302l-71 -188h-57zM195 233h277l-139 367zM304 -152v57h59v-57h-59z" />
    <glyph glyph-name="uni1EA6" unicode="&#x1ea6;" horiz-adv-x="667" 
d="M225 793l-66 117h47l59 -117h-40zM208 687l103 110h48l103 -110h-50l-77 85l-78 -85h-49zM55 0l244 644h70l243 -644h-56l-71 188h-302l-71 -188h-57zM195 233h277l-139 367z" />
    <glyph glyph-name="uni1EA8" unicode="&#x1ea8;" horiz-adv-x="667" 
d="M410 772v59q53 3 68 14t15 32q0 41 -53 41q-18 0 -32 -3.5t-27 -9.5v34q13 5 29.5 8.5t36.5 3.5q41 0 64.5 -18.5t23.5 -53.5q0 -31 -19 -48.5t-61 -22.5v-36h-45zM206 687l103 110h48l103 -110h-49l-78 85l-77 -85h-50zM55 0l244 644h70l243 -644h-56l-71 188h-302
l-71 -188h-57zM195 233h277l-139 367z" />
    <glyph glyph-name="uni1EAA" unicode="&#x1eaa;" horiz-adv-x="667" 
d="M396 805q-23 0 -43.5 8.5t-39.5 16.5t-38 8q-22 0 -40 -6.5t-35 -25.5v44q12 12 32 19t41 7q25 0 44.5 -8t37.5 -16.5t40 -8.5t39.5 7t32.5 25v-44q-23 -26 -71 -26zM204 687l103 110h48l103 -110h-49l-78 85l-77 -85h-50zM55 0l244 644h70l243 -644h-56l-71 188h-302
l-71 -188h-57zM195 233h277l-139 367z" />
    <glyph glyph-name="Adieresis" unicode="&#xc4;" horiz-adv-x="667" 
d="M222 713v55h57v-55h-57zM389 713v55h56v-55h-56zM55 0l244 644h70l243 -644h-56l-71 188h-302l-71 -188h-57zM195 233h277l-139 367z" />
    <glyph glyph-name="uni1EA0" unicode="&#x1ea0;" horiz-adv-x="667" 
d="M55 0l244 644h70l243 -644h-56l-71 188h-302l-71 -188h-57zM195 233h277l-139 367zM304 -152v57h59v-57h-59z" />
    <glyph glyph-name="Agrave" unicode="&#xc0;" horiz-adv-x="667" 
d="M304 688l-74 158h52l67 -158h-45zM55 0l244 644h70l243 -644h-56l-71 188h-302l-71 -188h-57zM195 233h277l-139 367z" />
    <glyph glyph-name="uni1EA2" unicode="&#x1ea2;" horiz-adv-x="667" 
d="M309 688v79q60 3 77 17t17 42q0 27 -19.5 40t-63.5 13q-16 0 -35 -3.5t-32 -8.5v38q14 5 36.5 8.5t40.5 3.5q57 0 86.5 -23t29.5 -65q0 -40 -19.5 -62t-70.5 -27v-52h-47zM55 0l244 644h70l243 -644h-56l-71 188h-302l-71 -188h-57zM195 233h277l-139 367z" />
    <glyph glyph-name="Amacron" unicode="&#x100;" horiz-adv-x="667" 
d="M195 715v42h277v-42h-277zM55 0l244 644h70l243 -644h-56l-71 188h-302l-71 -188h-57zM195 233h277l-139 367z" />
    <glyph glyph-name="Aogonek" unicode="&#x104;" horiz-adv-x="667" 
d="M572 -220q-38 0 -64.5 19.5t-26.5 66.5q0 41 22 76.5t53 57.5l-71 188h-302l-71 -188h-57l244 644h70l243 -644q-49 -26 -66.5 -60t-17.5 -68q0 -28 12.5 -39.5t40.5 -11.5q13 0 27 3t23 8v-41q-11 -6 -28 -8.5t-31 -2.5zM195 233h277l-139 367z" />
    <glyph glyph-name="Aring" unicode="&#xc5;" horiz-adv-x="667" 
d="M55 0l237 626q-28 11 -44.5 36.5t-16.5 56.5q0 43 29 72.5t73 29.5q45 0 74 -29.5t29 -72.5q0 -31 -16.5 -56t-44.5 -37l237 -626h-56l-71 188h-302l-71 -188h-57zM333 654q29 0 47.5 18.5t18.5 46.5q0 29 -18.5 47.5t-47.5 18.5q-28 0 -47 -18.5t-19 -47.5
q0 -28 19 -46.5t47 -18.5zM195 233h277l-139 367z" />
    <glyph glyph-name="Aringacute" unicode="&#x1fa;" horiz-adv-x="667" 
d="M300 851l67 143h52l-75 -143h-44zM55 0l237 626q-28 11 -44.5 36.5t-16.5 56.5q0 43 29 72.5t73 29.5q45 0 74 -29.5t29 -72.5q0 -31 -16.5 -56t-44.5 -37l237 -626h-56l-71 188h-302l-71 -188h-57zM333 654q29 0 47.5 18.5t18.5 46.5q0 29 -18.5 47.5t-47.5 18.5
q-28 0 -47 -18.5t-19 -47.5q0 -28 19 -46.5t47 -18.5zM195 233h277l-139 367z" />
    <glyph glyph-name="Atilde" unicode="&#xc3;" horiz-adv-x="667" 
d="M404 710q-24 0 -47 9.5t-44.5 18.5t-41.5 9q-22 0 -42 -7.5t-37 -27.5v47q12 14 34 21.5t44 7.5q26 0 47.5 -9t41.5 -18.5t43 -9.5q48 0 73 35v-47q-21 -29 -71 -29zM55 0l244 644h70l243 -644h-56l-71 188h-302l-71 -188h-57zM195 233h277l-139 367z" />
    <glyph glyph-name="AE" unicode="&#xc6;" horiz-adv-x="832" 
d="M55 0l244 644h478v-46h-312v-254h277v-45h-277v-255h312v-44h-367v189h-225l-72 -189h-58zM202 233h208v365h-70z" />
    <glyph glyph-name="AEacute" unicode="&#x1fc;" horiz-adv-x="832" 
d="M437 688l67 158h52l-74 -158h-45zM55 0l244 644h478v-46h-312v-254h277v-45h-277v-255h312v-44h-367v189h-225l-72 -189h-58zM202 233h208v365h-70z" />
    <glyph glyph-name="B" unicode="B" horiz-adv-x="619" 
d="M75 0v644h283q95 0 137.5 -44t42.5 -124q0 -54 -22.5 -90t-61.5 -53q50 -11 80 -47t30 -104q0 -94 -47 -138t-140 -44h-302zM130 354h233q68 0 95.5 33.5t27.5 85.5q0 62 -28.5 94.5t-111.5 32.5h-216v-246zM130 43h242q71 0 104.5 32.5t33.5 108.5q0 62 -32.5 94.5
t-120.5 32.5h-227v-268z" />
    <glyph glyph-name="C" unicode="C" horiz-adv-x="589" 
d="M351 -10q-102 0 -167.5 39.5t-97 110t-31.5 164.5q0 105 29 183.5t94 122.5t172 44q55 0 100.5 -7.5t83.5 -21.5v-49q-38 14 -83.5 22t-95.5 8q-93 0 -147 -37.5t-76.5 -105t-22.5 -159.5q0 -126 59 -196.5t190 -70.5q44 0 91 7t85 20v-49q-38 -12 -83.5 -18.5
t-99.5 -6.5z" />
    <glyph glyph-name="Cacute" unicode="&#x106;" horiz-adv-x="589" 
d="M314 688l67 158h52l-74 -158h-45zM351 -10q-102 0 -167.5 39.5t-97 110t-31.5 164.5q0 105 29 183.5t94 122.5t172 44q55 0 100.5 -7.5t83.5 -21.5v-49q-38 14 -83.5 22t-95.5 8q-93 0 -147 -37.5t-76.5 -105t-22.5 -159.5q0 -126 59 -196.5t190 -70.5q44 0 91 7t85 20
v-49q-38 -12 -83.5 -18.5t-99.5 -6.5z" />
    <glyph glyph-name="Ccaron" unicode="&#x10c;" horiz-adv-x="589" 
d="M335 687l-105 135h50l79 -103l79 103h50l-105 -135h-48zM351 -10q-102 0 -167.5 39.5t-97 110t-31.5 164.5q0 105 29 183.5t94 122.5t172 44q55 0 100.5 -7.5t83.5 -21.5v-49q-38 14 -83.5 22t-95.5 8q-93 0 -147 -37.5t-76.5 -105t-22.5 -159.5q0 -126 59 -196.5
t190 -70.5q44 0 91 7t85 20v-49q-38 -12 -83.5 -18.5t-99.5 -6.5z" />
    <glyph glyph-name="Ccedilla" unicode="&#xc7;" horiz-adv-x="589" 
d="M324 -240q-16 0 -35.5 2.5t-30.5 5.5v37q29 -8 63 -8q50 0 74.5 14t24.5 50q0 32 -22.5 43.5t-69.5 11.5h-33l25 75q-91 6 -149.5 46.5t-87 109t-28.5 157.5q0 105 29 183.5t94 122.5t172 44q55 0 100.5 -7.5t83.5 -21.5v-49q-38 14 -83.5 22t-95.5 8q-93 0 -147 -37.5
t-76.5 -105t-22.5 -159.5q0 -126 59 -196.5t190 -70.5q44 0 91 7t85 20v-49q-36 -11 -78.5 -17.5t-92.5 -7.5l-14 -41q114 0 114 -88q0 -49 -32.5 -75t-106.5 -26z" />
    <glyph glyph-name="Ccircumflex" unicode="&#x108;" horiz-adv-x="589" 
d="M206 687l105 135h48l105 -135h-50l-79 103l-79 -103h-50zM351 -10q-102 0 -167.5 39.5t-97 110t-31.5 164.5q0 105 29 183.5t94 122.5t172 44q55 0 100.5 -7.5t83.5 -21.5v-49q-38 14 -83.5 22t-95.5 8q-93 0 -147 -37.5t-76.5 -105t-22.5 -159.5q0 -126 59 -196.5
t190 -70.5q44 0 91 7t85 20v-49q-38 -12 -83.5 -18.5t-99.5 -6.5z" />
    <glyph glyph-name="Cdotaccent" unicode="&#x10a;" horiz-adv-x="589" 
d="M321 714v56h57v-56h-57zM351 -10q-102 0 -167.5 39.5t-97 110t-31.5 164.5q0 105 29 183.5t94 122.5t172 44q55 0 100.5 -7.5t83.5 -21.5v-49q-38 14 -83.5 22t-95.5 8q-93 0 -147 -37.5t-76.5 -105t-22.5 -159.5q0 -126 59 -196.5t190 -70.5q44 0 91 7t85 20v-49
q-38 -12 -83.5 -18.5t-99.5 -6.5z" />
    <glyph glyph-name="D" unicode="D" horiz-adv-x="632" 
d="M75 0v644h242q93 0 150 -33.5t83.5 -105.5t26.5 -188q0 -164 -59.5 -240.5t-200.5 -76.5h-242zM130 44h175q73 0 121 22t72 81t24 170q0 110 -21.5 171.5t-69 86t-126.5 24.5h-175v-555z" />
    <glyph glyph-name="Eth" unicode="&#xd0;" horiz-adv-x="673" 
d="M116 0v294h-81v45h81v305h243q92 0 149 -33.5t83.5 -105.5t26.5 -188q0 -164 -59.5 -240.5t-199.5 -76.5h-243zM171 44h175q74 0 122 22t72 81t24 170q0 110 -21.5 171t-69.5 85.5t-127 24.5h-175v-259h190v-45h-190v-250z" />
    <glyph glyph-name="Dcaron" unicode="&#x10e;" horiz-adv-x="632" 
d="M279 709l-105 135h50l79 -103l79 103h50l-105 -135h-48zM75 0v644h242q93 0 150 -33.5t83.5 -105.5t26.5 -188q0 -164 -59.5 -240.5t-200.5 -76.5h-242zM130 44h175q73 0 121 22t72 81t24 170q0 110 -21.5 171.5t-69 86t-126.5 24.5h-175v-555z" />
    <glyph glyph-name="Dcroat" unicode="&#x110;" horiz-adv-x="663" 
d="M106 0v294h-81v45h81v305h243q92 0 149 -33.5t83.5 -105.5t26.5 -188q0 -164 -59.5 -240.5t-199.5 -76.5h-243zM161 44h175q74 0 122 22t72 81t24 170q0 110 -21.5 171t-69.5 85.5t-127 24.5h-175v-259h190v-45h-190v-250z" />
    <glyph glyph-name="uni1E0C" unicode="&#x1e0c;" horiz-adv-x="632" 
d="M75 0v644h242q93 0 150 -33.5t83.5 -105.5t26.5 -188q0 -164 -59.5 -240.5t-200.5 -76.5h-242zM130 44h175q73 0 121 22t72 81t24 170q0 110 -21.5 171.5t-69 86t-126.5 24.5h-175v-555zM296 -152v57h59v-57h-59z" />
    <glyph glyph-name="uni1E0E" unicode="&#x1e0e;" horiz-adv-x="632" 
d="M75 0v644h242q93 0 150 -33.5t83.5 -105.5t26.5 -188q0 -164 -59.5 -240.5t-200.5 -76.5h-242zM130 44h175q73 0 121 22t72 81t24 170q0 110 -21.5 171.5t-69 86t-126.5 24.5h-175v-555zM149 -123v42h277v-42h-277z" />
    <glyph glyph-name="E" unicode="E" horiz-adv-x="541" 
d="M75 0v644h421v-45h-366v-255h331v-44h-331v-256h366v-44h-421z" />
    <glyph glyph-name="Eacute" unicode="&#xc9;" horiz-adv-x="541" 
d="M257 688l67 158h52l-74 -158h-45zM75 0v644h421v-45h-366v-255h331v-44h-331v-256h366v-44h-421z" />
    <glyph glyph-name="Ebreve" unicode="&#x114;" horiz-adv-x="541" 
d="M291 687q-51 0 -81 31.5t-30 79.5h42q0 -34 19 -53t50 -19q32 0 51 19t19 53h42q0 -48 -30 -79.5t-82 -31.5zM75 0v644h421v-45h-366v-255h331v-44h-331v-256h366v-44h-421z" />
    <glyph glyph-name="Ecaron" unicode="&#x11a;" horiz-adv-x="541" 
d="M268 687l-105 135h50l79 -103l79 103h50l-105 -135h-48zM75 0v644h421v-45h-366v-255h331v-44h-331v-256h366v-44h-421z" />
    <glyph glyph-name="Ecircumflex" unicode="&#xca;" horiz-adv-x="541" 
d="M148 687l105 135h48l105 -135h-50l-79 103l-79 -103h-50zM75 0v644h421v-45h-366v-255h331v-44h-331v-256h366v-44h-421z" />
    <glyph glyph-name="uni1EBE" unicode="&#x1ebe;" horiz-adv-x="541" 
d="M347 793l60 117h47l-66 -117h-41zM151 687l103 110h48l103 -110h-49l-78 85l-78 -85h-49zM75 0v644h421v-45h-366v-255h331v-44h-331v-256h366v-44h-421z" />
    <glyph glyph-name="uni1EC6" unicode="&#x1ec6;" horiz-adv-x="541" 
d="M144 687l105 135h48l105 -135h-50l-79 103l-79 -103h-50zM75 0v644h421v-45h-366v-255h331v-44h-331v-256h366v-44h-421zM244 -152v57h59v-57h-59z" />
    <glyph glyph-name="uni1EC0" unicode="&#x1ec0;" horiz-adv-x="541" 
d="M184 793l-66 117h47l59 -117h-40zM167 687l103 110h48l103 -110h-50l-77 85l-78 -85h-49zM75 0v644h421v-45h-366v-255h331v-44h-331v-256h366v-44h-421z" />
    <glyph glyph-name="uni1EC2" unicode="&#x1ec2;" horiz-adv-x="541" 
d="M362 772v59q53 3 68 14t15 32q0 41 -53 41q-18 0 -32 -3.5t-27 -9.5v34q13 5 29.5 8.5t36.5 3.5q41 0 64.5 -18.5t23.5 -53.5q0 -31 -19 -48.5t-61 -22.5v-36h-45zM158 687l103 110h48l103 -110h-49l-78 85l-77 -85h-50zM75 0v644h421v-45h-366v-255h331v-44h-331v-256
h366v-44h-421z" />
    <glyph glyph-name="uni1EC4" unicode="&#x1ec4;" horiz-adv-x="541" 
d="M351 805q-23 0 -43.5 8.5t-39.5 16.5t-38 8q-22 0 -40 -6.5t-35 -25.5v44q12 12 32 19t41 7q25 0 44.5 -8t37.5 -16.5t40 -8.5t39.5 7t32.5 25v-44q-23 -26 -71 -26zM159 687l103 110h48l103 -110h-49l-78 85l-77 -85h-50zM75 0v644h421v-45h-366v-255h331v-44h-331v-256
h366v-44h-421z" />
    <glyph glyph-name="Edieresis" unicode="&#xcb;" horiz-adv-x="541" 
d="M172 714v55h57v-55h-57zM339 714v55h56v-55h-56zM75 0v644h421v-45h-366v-255h331v-44h-331v-256h366v-44h-421z" />
    <glyph glyph-name="Edotaccent" unicode="&#x116;" horiz-adv-x="541" 
d="M256 714v56h57v-56h-57zM75 0v644h421v-45h-366v-255h331v-44h-331v-256h366v-44h-421z" />
    <glyph glyph-name="uni1EB8" unicode="&#x1eb8;" horiz-adv-x="541" 
d="M75 0v644h421v-45h-366v-255h331v-44h-331v-256h366v-44h-421zM252 -152v57h59v-57h-59z" />
    <glyph glyph-name="Egrave" unicode="&#xc8;" horiz-adv-x="541" 
d="M271 688l-74 158h52l67 -158h-45zM75 0v644h421v-45h-366v-255h331v-44h-331v-256h366v-44h-421z" />
    <glyph glyph-name="uni1EBA" unicode="&#x1eba;" horiz-adv-x="541" 
d="M253 688v79q60 3 77 17t17 42q0 27 -19.5 40t-63.5 13q-16 0 -35 -3.5t-32 -8.5v38q14 5 36.5 8.5t40.5 3.5q57 0 86.5 -23t29.5 -65q0 -40 -19.5 -62t-70.5 -27v-52h-47zM75 0v644h421v-45h-366v-255h331v-44h-331v-256h366v-44h-421z" />
    <glyph glyph-name="Emacron" unicode="&#x112;" horiz-adv-x="541" 
d="M142 719v42h277v-42h-277zM75 0v644h421v-45h-366v-255h331v-44h-331v-256h366v-44h-421z" />
    <glyph glyph-name="Eogonek" unicode="&#x118;" horiz-adv-x="541" 
d="M75 0v644h421v-45h-366v-255h331v-44h-331v-256h366v-44h-41q-37 -28 -55.5 -61t-18.5 -67q0 -28 12.5 -39.5t40.5 -11.5q13 0 27 3t23 8v-41q-11 -6 -28 -8.5t-31 -2.5q-38 0 -64.5 19.5t-26.5 66.5q0 41 22 76.5t53 57.5h-334z" />
    <glyph glyph-name="uni1EBC" unicode="&#x1ebc;" horiz-adv-x="541" 
d="M352 713q-24 0 -47 9.5t-44.5 18.5t-41.5 9q-22 0 -42 -7.5t-37 -27.5v47q12 14 34 21.5t44 7.5q26 0 47.5 -9t41.5 -18.5t43 -9.5q48 0 73 35v-47q-21 -29 -71 -29zM75 0v644h421v-45h-366v-255h331v-44h-331v-256h366v-44h-421z" />
    <glyph glyph-name="F" unicode="F" horiz-adv-x="506" 
d="M75 0v644h406v-45h-351v-255h314v-44h-314v-300h-55z" />
    <glyph glyph-name="G" unicode="G" horiz-adv-x="633" 
d="M351 -10q-102 0 -167.5 39.5t-97 110t-31.5 164.5q0 105 29 183.5t94 122.5t172 44q55 0 100.5 -7t83.5 -20v-49q-38 13 -83.5 20.5t-94.5 7.5q-94 0 -148 -37.5t-76.5 -105t-22.5 -159.5q0 -126 58.5 -196.5t189.5 -70.5q47 0 92.5 8.5t78.5 21.5v229h-183v44h233v-301
q-27 -18 -81.5 -33.5t-145.5 -15.5z" />
    <glyph glyph-name="Gbreve" unicode="&#x11e;" horiz-adv-x="633" 
d="M350 687q-51 0 -81 31.5t-30 79.5h42q0 -34 19 -53t50 -19q32 0 51 19t19 53h42q0 -48 -30 -79.5t-82 -31.5zM351 -10q-102 0 -167.5 39.5t-97 110t-31.5 164.5q0 105 29 183.5t94 122.5t172 44q55 0 100.5 -7t83.5 -20v-49q-38 13 -83.5 20.5t-94.5 7.5
q-94 0 -148 -37.5t-76.5 -105t-22.5 -159.5q0 -126 58.5 -196.5t189.5 -70.5q47 0 92.5 8.5t78.5 21.5v229h-183v44h233v-301q-27 -18 -81.5 -33.5t-145.5 -15.5z" />
    <glyph glyph-name="Gcaron" unicode="&#x1e6;" horiz-adv-x="633" 
d="M327 687l-105 135h50l79 -103l79 103h50l-105 -135h-48zM351 -10q-102 0 -167.5 39.5t-97 110t-31.5 164.5q0 105 29 183.5t94 122.5t172 44q55 0 100.5 -7t83.5 -20v-49q-38 13 -83.5 20.5t-94.5 7.5q-94 0 -148 -37.5t-76.5 -105t-22.5 -159.5q0 -126 58.5 -196.5
t189.5 -70.5q47 0 92.5 8.5t78.5 21.5v229h-183v44h233v-301q-27 -18 -81.5 -33.5t-145.5 -15.5z" />
    <glyph glyph-name="Gcircumflex" unicode="&#x11c;" horiz-adv-x="633" 
d="M224 687l105 135h48l105 -135h-50l-79 103l-79 -103h-50zM351 -10q-102 0 -167.5 39.5t-97 110t-31.5 164.5q0 105 29 183.5t94 122.5t172 44q55 0 100.5 -7t83.5 -20v-49q-38 13 -83.5 20.5t-94.5 7.5q-94 0 -148 -37.5t-76.5 -105t-22.5 -159.5q0 -126 58.5 -196.5
t189.5 -70.5q47 0 92.5 8.5t78.5 21.5v229h-183v44h233v-301q-27 -18 -81.5 -33.5t-145.5 -15.5z" />
    <glyph glyph-name="uni0122" unicode="&#x122;" horiz-adv-x="633" 
d="M351 -10q-102 0 -167.5 39.5t-97 110t-31.5 164.5q0 105 29 183.5t94 122.5t172 44q55 0 100.5 -7t83.5 -20v-49q-38 13 -83.5 20.5t-94.5 7.5q-94 0 -148 -37.5t-76.5 -105t-22.5 -159.5q0 -126 58.5 -196.5t189.5 -70.5q47 0 92.5 8.5t78.5 21.5v229h-183v44h233v-301
q-27 -18 -81.5 -33.5t-145.5 -15.5zM312 -207l26 165h53l-38 -165h-41z" />
    <glyph glyph-name="Gdotaccent" unicode="&#x120;" horiz-adv-x="633" 
d="M322 714v56h57v-56h-57zM351 -10q-102 0 -167.5 39.5t-97 110t-31.5 164.5q0 105 29 183.5t94 122.5t172 44q55 0 100.5 -7t83.5 -20v-49q-38 13 -83.5 20.5t-94.5 7.5q-94 0 -148 -37.5t-76.5 -105t-22.5 -159.5q0 -126 58.5 -196.5t189.5 -70.5q47 0 92.5 8.5
t78.5 21.5v229h-183v44h233v-301q-27 -18 -81.5 -33.5t-145.5 -15.5z" />
    <glyph glyph-name="uni1E20" unicode="&#x1e20;" horiz-adv-x="633" 
d="M213 717v42h277v-42h-277zM351 -10q-102 0 -167.5 39.5t-97 110t-31.5 164.5q0 105 29 183.5t94 122.5t172 44q55 0 100.5 -7t83.5 -20v-49q-38 13 -83.5 20.5t-94.5 7.5q-94 0 -148 -37.5t-76.5 -105t-22.5 -159.5q0 -126 58.5 -196.5t189.5 -70.5q47 0 92.5 8.5
t78.5 21.5v229h-183v44h233v-301q-27 -18 -81.5 -33.5t-145.5 -15.5z" />
    <glyph glyph-name="H" unicode="H" horiz-adv-x="630" 
d="M75 0v644h55v-300h370v300h55v-644h-55v300h-370v-300h-55z" />
    <glyph glyph-name="Hbar" unicode="&#x126;" horiz-adv-x="671" 
d="M89 0v471h-64v45h64v128h55v-128h370v128h55v-128h77v-45h-77v-471h-55v300h-370v-300h-55zM144 344h370v127h-370v-127z" />
    <glyph glyph-name="uni1E2A" unicode="&#x1e2a;" horiz-adv-x="630" 
d="M75 0v644h55v-300h370v300h55v-644h-55v300h-370v-300h-55zM315 -185q-58 0 -97 31.5t-39 98.5h42q0 -49 27 -70.5t67 -21.5q41 0 68 21.5t27 70.5h41q0 -67 -39 -98.5t-97 -31.5z" />
    <glyph glyph-name="Hcircumflex" unicode="&#x124;" horiz-adv-x="630" 
d="M186 687l105 135h48l105 -135h-50l-79 103l-79 -103h-50zM75 0v644h55v-300h370v300h55v-644h-55v300h-370v-300h-55z" />
    <glyph glyph-name="uni1E24" unicode="&#x1e24;" horiz-adv-x="630" 
d="M75 0v644h55v-300h370v300h55v-644h-55v300h-370v-300h-55zM286 -152v57h59v-57h-59z" />
    <glyph glyph-name="I" unicode="I" horiz-adv-x="205" 
d="M75 0v644h55v-644h-55z" />
    <glyph glyph-name="IJ" unicode="&#x132;" horiz-adv-x="602" 
d="M348 -10q-40 0 -73 6.5t-57 16.5v48q23 -10 56 -17t67 -7q75 0 105.5 31.5t30.5 99.5v476h55v-479q0 -85 -44.5 -130t-139.5 -45zM75 0v644h55v-644h-55z" />
    <glyph glyph-name="Iacute" unicode="&#xcd;" horiz-adv-x="205" 
d="M78 688l67 158h52l-74 -158h-45zM75 0v644h55v-644h-55z" />
    <glyph glyph-name="Ibreve" unicode="&#x12c;" horiz-adv-x="205" 
d="M102 691q-51 0 -81 31.5t-30 79.5h42q0 -34 19 -53t50 -19q32 0 51 19t19 53h42q0 -48 -30 -79.5t-82 -31.5zM75 0v644h55v-644h-55z" />
    <glyph glyph-name="uni01CF" unicode="&#x1cf;" horiz-adv-x="205" 
d="M78 687l-105 135h50l79 -103l79 103h50l-105 -135h-48zM75 0v644h55v-644h-55z" />
    <glyph glyph-name="Icircumflex" unicode="&#xce;" horiz-adv-x="205" 
d="M-27 687l105 135h48l105 -135h-50l-79 103l-79 -103h-50zM75 0v644h55v-644h-55z" />
    <glyph glyph-name="Idieresis" unicode="&#xcf;" horiz-adv-x="205" 
d="M-10 715v55h57v-55h-57zM157 715v55h56v-55h-56zM75 0v644h55v-644h-55z" />
    <glyph glyph-name="Idotaccent" unicode="&#x130;" horiz-adv-x="205" 
d="M74 715v56h57v-56h-57zM75 0v644h55v-644h-55z" />
    <glyph glyph-name="uni1ECA" unicode="&#x1eca;" horiz-adv-x="205" 
d="M75 0v644h55v-644h-55zM73 -152v57h59v-57h-59z" />
    <glyph glyph-name="Igrave" unicode="&#xcc;" horiz-adv-x="205" 
d="M80 688l-74 158h52l67 -158h-45zM75 0v644h55v-644h-55z" />
    <glyph glyph-name="uni1EC8" unicode="&#x1ec8;" horiz-adv-x="205" 
d="M78 688v79q60 3 77 17t17 42q0 27 -19.5 40t-63.5 13q-16 0 -35 -3.5t-32 -8.5v38q14 5 36.5 8.5t40.5 3.5q57 0 86.5 -23t29.5 -65q0 -40 -19.5 -62t-70.5 -27v-52h-47zM75 0v644h55v-644h-55z" />
    <glyph glyph-name="Imacron" unicode="&#x12a;" horiz-adv-x="205" 
d="M-36 719v42h277v-42h-277zM75 0v644h55v-644h-55z" />
    <glyph glyph-name="Iogonek" unicode="&#x12e;" horiz-adv-x="205" 
d="M75 0v644h55v-644h-4q-37 -28 -55.5 -61t-18.5 -67q0 -28 12.5 -39.5t40.5 -11.5q13 0 27 3t23 8v-41q-11 -6 -28 -8.5t-31 -2.5q-38 0 -64.5 19.5t-26.5 66.5q0 41 22 76.5t53 57.5h-5z" />
    <glyph glyph-name="Itilde" unicode="&#x128;" horiz-adv-x="205" 
d="M173 690q-24 0 -47 9.5t-44.5 18.5t-41.5 9q-22 0 -42 -7.5t-37 -27.5v47q12 14 34 21.5t44 7.5q26 0 47.5 -9t41.5 -18.5t43 -9.5q48 0 73 35v-47q-21 -29 -71 -29zM75 0v644h55v-644h-55z" />
    <glyph glyph-name="J" unicode="J" horiz-adv-x="419" 
d="M165 -10q-40 0 -73 6.5t-57 16.5v48q23 -10 56 -17t67 -7q75 0 105.5 31.5t30.5 99.5v476h55v-479q0 -85 -44.5 -130t-139.5 -45z" />
    <glyph glyph-name="Jcircumflex" unicode="&#x134;" horiz-adv-x="419" 
d="M190 687l105 135h48l105 -135h-50l-79 103l-79 -103h-50zM165 -10q-40 0 -73 6.5t-57 16.5v48q23 -10 56 -17t67 -7q75 0 105.5 31.5t30.5 99.5v476h55v-479q0 -85 -44.5 -130t-139.5 -45z" />
    <glyph glyph-name="K" unicode="K" horiz-adv-x="585" 
d="M75 0v644h55v-342l327 342h67l-245 -256l251 -388h-60l-225 352l-115 -121v-231h-55z" />
    <glyph glyph-name="uni0136" unicode="&#x136;" horiz-adv-x="585" 
d="M75 0v644h55v-342l327 342h67l-245 -256l251 -388h-60l-225 352l-115 -121v-231h-55zM241 -202l26 165h53l-38 -165h-41z" />
    <glyph glyph-name="L" unicode="L" horiz-adv-x="521" 
d="M75 0v644h55v-600h356v-44h-411z" />
    <glyph glyph-name="Lacute" unicode="&#x139;" horiz-adv-x="521" 
d="M77 688l67 158h52l-74 -158h-45zM75 0v644h55v-600h356v-44h-411z" />
    <glyph glyph-name="Lcaron" unicode="&#x13d;" horiz-adv-x="521" 
d="M75 0v644h55v-600h356v-44h-411zM291 479l26 165h53l-38 -165h-41z" />
    <glyph glyph-name="uni013B" unicode="&#x13b;" horiz-adv-x="521" 
d="M75 0v644h55v-600h356v-44h-411zM225 -202l26 165h53l-38 -165h-41z" />
    <glyph glyph-name="Ldot" unicode="&#x13f;" horiz-adv-x="521" 
d="M75 0v644h55v-600h356v-44h-411zM338 252v57h59v-57h-59z" />
    <glyph glyph-name="uni1E36" unicode="&#x1e36;" horiz-adv-x="521" 
d="M75 0v644h55v-600h356v-44h-411zM246 -152v57h59v-57h-59z" />
    <glyph glyph-name="uni1E38" unicode="&#x1e38;" horiz-adv-x="521" 
d="M0 717v42h277v-42h-277zM75 0v644h55v-600h356v-44h-411zM246 -152v57h59v-57h-59z" />
    <glyph glyph-name="uni1E3A" unicode="&#x1e3a;" horiz-adv-x="521" 
d="M75 0v644h55v-600h356v-44h-411zM134 -117v42h277v-42h-277z" />
    <glyph glyph-name="Lslash" unicode="&#x141;" horiz-adv-x="545" 
d="M98 0v292l-98 -43v48l98 43v304h55v-280l153 67v-48l-153 -67v-272h357v-44h-412z" />
    <glyph glyph-name="M" unicode="M" horiz-adv-x="744" 
d="M75 0v644h64l233 -477l233 477h64v-644h-54v564l-221 -452h-43l-222 452v-564h-54z" />
    <glyph glyph-name="uni1E42" unicode="&#x1e42;" horiz-adv-x="744" 
d="M75 0v644h64l233 -477l233 477h64v-644h-54v564l-221 -452h-43l-222 452v-564h-54zM343 -152v57h59v-57h-59z" />
    <glyph glyph-name="N" unicode="N" horiz-adv-x="656" 
d="M75 0v644h52l399 -562v562h55v-644h-53l-398 561v-561h-55z" />
    <glyph glyph-name="Nacute" unicode="&#x143;" horiz-adv-x="656" 
d="M309 688l67 158h52l-74 -158h-45zM75 0v644h52l399 -562v562h55v-644h-53l-398 561v-561h-55z" />
    <glyph glyph-name="Ncaron" unicode="&#x147;" horiz-adv-x="656" 
d="M324 687l-105 135h50l79 -103l79 103h50l-105 -135h-48zM75 0v644h52l399 -562v562h55v-644h-53l-398 561v-561h-55z" />
    <glyph glyph-name="uni0145" unicode="&#x145;" horiz-adv-x="656" 
d="M75 0v644h52l399 -562v562h55v-644h-53l-398 561v-561h-55zM280 -202l26 165h53l-38 -165h-41z" />
    <glyph glyph-name="uni1E44" unicode="&#x1e44;" horiz-adv-x="656" 
d="M315 714v56h57v-56h-57zM75 0v644h52l399 -562v562h55v-644h-53l-398 561v-561h-55z" />
    <glyph glyph-name="uni1E46" unicode="&#x1e46;" horiz-adv-x="656" 
d="M75 0v644h52l399 -562v562h55v-644h-53l-398 561v-561h-55zM296 -152v57h59v-57h-59z" />
    <glyph glyph-name="Eng" unicode="&#x14a;" horiz-adv-x="656" 
d="M446 -234q-22 0 -42.5 3t-37.5 9v45q17 -5 33 -7.5t28 -2.5q56 0 77.5 21.5t21.5 66.5v102l-396 558v-561h-55v644h52l399 -562v562h55v-746q0 -61 -35.5 -96.5t-99.5 -35.5z" />
    <glyph glyph-name="uni1E48" unicode="&#x1e48;" horiz-adv-x="656" 
d="M75 0v644h52l399 -562v562h55v-644h-53l-398 561v-561h-55zM190 -116v42h277v-42h-277z" />
    <glyph glyph-name="Ntilde" unicode="&#xd1;" horiz-adv-x="656" 
d="M399 713q-24 0 -47 9.5t-44.5 18.5t-41.5 9q-22 0 -42 -7.5t-37 -27.5v47q12 14 34 21.5t44 7.5q26 0 47.5 -9t41.5 -18.5t43 -9.5q48 0 73 35v-47q-21 -29 -71 -29zM75 0v644h52l399 -562v562h55v-644h-53l-398 561v-561h-55z" />
    <glyph glyph-name="O" unicode="O" horiz-adv-x="688" 
d="M344 -10q-149 0 -219 84t-70 245q0 173 70 254t219 81t219 -81t70 -254q0 -161 -70 -245t-219 -84zM344 37q119 0 176.5 68t57.5 214q0 106 -25.5 169t-77.5 90.5t-131 27.5t-131.5 -27.5t-78 -90.5t-25.5 -169q0 -146 58 -214t177 -68z" />
    <glyph glyph-name="Oacute" unicode="&#xd3;" horiz-adv-x="688" 
d="M322 688l67 158h52l-74 -158h-45zM344 -10q-149 0 -219 84t-70 245q0 173 70 254t219 81t219 -81t70 -254q0 -161 -70 -245t-219 -84zM344 37q119 0 176.5 68t57.5 214q0 106 -25.5 169t-77.5 90.5t-131 27.5t-131.5 -27.5t-78 -90.5t-25.5 -169q0 -146 58 -214t177 -68z
" />
    <glyph glyph-name="Obreve" unicode="&#x14e;" horiz-adv-x="688" 
d="M344 687q-51 0 -81 31.5t-30 79.5h42q0 -34 19 -53t50 -19q32 0 51 19t19 53h42q0 -48 -30 -79.5t-82 -31.5zM344 -10q-149 0 -219 84t-70 245q0 173 70 254t219 81t219 -81t70 -254q0 -161 -70 -245t-219 -84zM344 37q119 0 176.5 68t57.5 214q0 106 -25.5 169
t-77.5 90.5t-131 27.5t-131.5 -27.5t-78 -90.5t-25.5 -169q0 -146 58 -214t177 -68z" />
    <glyph glyph-name="uni01D1" unicode="&#x1d1;" horiz-adv-x="688" 
d="M320 687l-105 135h50l79 -103l79 103h50l-105 -135h-48zM344 -10q-149 0 -219 84t-70 245q0 173 70 254t219 81t219 -81t70 -254q0 -161 -70 -245t-219 -84zM344 37q119 0 176.5 68t57.5 214q0 106 -25.5 169t-77.5 90.5t-131 27.5t-131.5 -27.5t-78 -90.5t-25.5 -169
q0 -146 58 -214t177 -68z" />
    <glyph glyph-name="Ocircumflex" unicode="&#xd4;" horiz-adv-x="688" 
d="M215 687l105 135h48l105 -135h-50l-79 103l-79 -103h-50zM344 -10q-149 0 -219 84t-70 245q0 173 70 254t219 81t219 -81t70 -254q0 -161 -70 -245t-219 -84zM344 37q119 0 176.5 68t57.5 214q0 106 -25.5 169t-77.5 90.5t-131 27.5t-131.5 -27.5t-78 -90.5t-25.5 -169
q0 -146 58 -214t177 -68z" />
    <glyph glyph-name="uni1ED0" unicode="&#x1ed0;" horiz-adv-x="688" 
d="M418 793l60 117h47l-66 -117h-41zM222 687l103 110h48l103 -110h-49l-78 85l-78 -85h-49zM344 -10q-149 0 -219 84t-70 245q0 173 70 254t219 81t219 -81t70 -254q0 -161 -70 -245t-219 -84zM344 37q119 0 176.5 68t57.5 214q0 106 -25.5 169t-77.5 90.5t-131 27.5
t-131.5 -27.5t-78 -90.5t-25.5 -169q0 -146 58 -214t177 -68z" />
    <glyph glyph-name="uni1ED8" unicode="&#x1ed8;" horiz-adv-x="688" 
d="M215 697l105 135h48l105 -135h-50l-79 103l-79 -103h-50zM344 -10q-149 0 -219 84t-70 245q0 173 70 254t219 81t219 -81t70 -254q0 -161 -70 -245t-219 -84zM344 37q119 0 176.5 68t57.5 214q0 106 -25.5 169t-77.5 90.5t-131 27.5t-131.5 -27.5t-78 -90.5t-25.5 -169
q0 -146 58 -214t177 -68zM315 -152v57h59v-57h-59z" />
    <glyph glyph-name="uni1ED2" unicode="&#x1ed2;" horiz-adv-x="688" 
d="M229 793l-66 117h47l59 -117h-40zM212 687l103 110h48l103 -110h-50l-77 85l-78 -85h-49zM344 -10q-149 0 -219 84t-70 245q0 173 70 254t219 81t219 -81t70 -254q0 -161 -70 -245t-219 -84zM344 37q119 0 176.5 68t57.5 214q0 106 -25.5 169t-77.5 90.5t-131 27.5
t-131.5 -27.5t-78 -90.5t-25.5 -169q0 -146 58 -214t177 -68z" />
    <glyph glyph-name="uni1ED4" unicode="&#x1ed4;" horiz-adv-x="688" 
d="M421 772v59q53 3 68 14t15 32q0 41 -53 41q-18 0 -32 -3.5t-27 -9.5v34q13 5 29.5 8.5t36.5 3.5q41 0 64.5 -18.5t23.5 -53.5q0 -31 -19 -48.5t-61 -22.5v-36h-45zM217 687l103 110h48l103 -110h-49l-78 85l-77 -85h-50zM344 -10q-149 0 -219 84t-70 245q0 173 70 254
t219 81t219 -81t70 -254q0 -161 -70 -245t-219 -84zM344 37q119 0 176.5 68t57.5 214q0 106 -25.5 169t-77.5 90.5t-131 27.5t-131.5 -27.5t-78 -90.5t-25.5 -169q0 -146 58 -214t177 -68z" />
    <glyph glyph-name="uni1ED6" unicode="&#x1ed6;" horiz-adv-x="688" 
d="M406 805q-23 0 -43.5 8.5t-39.5 16.5t-38 8q-22 0 -40 -6.5t-35 -25.5v44q12 12 32 19t41 7q25 0 44.5 -8t37.5 -16.5t40 -8.5t39.5 7t32.5 25v-44q-23 -26 -71 -26zM217 687l103 110h48l103 -110h-49l-78 85l-77 -85h-50zM344 -10q-149 0 -219 84t-70 245q0 173 70 254
t219 81t219 -81t70 -254q0 -161 -70 -245t-219 -84zM344 37q119 0 176.5 68t57.5 214q0 106 -25.5 169t-77.5 90.5t-131 27.5t-131.5 -27.5t-78 -90.5t-25.5 -169q0 -146 58 -214t177 -68z" />
    <glyph glyph-name="Odieresis" unicode="&#xd6;" horiz-adv-x="688" 
d="M233 714v55h57v-55h-57zM400 714v55h56v-55h-56zM344 -10q-149 0 -219 84t-70 245q0 173 70 254t219 81t219 -81t70 -254q0 -161 -70 -245t-219 -84zM344 37q119 0 176.5 68t57.5 214q0 106 -25.5 169t-77.5 90.5t-131 27.5t-131.5 -27.5t-78 -90.5t-25.5 -169
q0 -146 58 -214t177 -68z" />
    <glyph glyph-name="uni1ECC" unicode="&#x1ecc;" horiz-adv-x="688" 
d="M344 -10q-149 0 -219 84t-70 245q0 173 70 254t219 81t219 -81t70 -254q0 -161 -70 -245t-219 -84zM344 37q119 0 176.5 68t57.5 214q0 106 -25.5 169t-77.5 90.5t-131 27.5t-131.5 -27.5t-78 -90.5t-25.5 -169q0 -146 58 -214t177 -68zM314 -152v57h59v-57h-59z" />
    <glyph glyph-name="Ograve" unicode="&#xd2;" horiz-adv-x="688" 
d="M327 688l-74 158h52l67 -158h-45zM344 -10q-149 0 -219 84t-70 245q0 173 70 254t219 81t219 -81t70 -254q0 -161 -70 -245t-219 -84zM344 37q119 0 176.5 68t57.5 214q0 106 -25.5 169t-77.5 90.5t-131 27.5t-131.5 -27.5t-78 -90.5t-25.5 -169q0 -146 58 -214t177 -68z
" />
    <glyph glyph-name="uni1ECE" unicode="&#x1ece;" horiz-adv-x="688" 
d="M323 688v79q60 3 77 17t17 42q0 27 -19.5 40t-63.5 13q-16 0 -35 -3.5t-32 -8.5v38q14 5 36.5 8.5t40.5 3.5q57 0 86.5 -23t29.5 -65q0 -40 -19.5 -62t-70.5 -27v-52h-47zM344 -10q-149 0 -219 84t-70 245q0 173 70 254t219 81t219 -81t70 -254q0 -161 -70 -245t-219 -84
zM344 37q119 0 176.5 68t57.5 214q0 106 -25.5 169t-77.5 90.5t-131 27.5t-131.5 -27.5t-78 -90.5t-25.5 -169q0 -146 58 -214t177 -68z" />
    <glyph glyph-name="Ohorn" unicode="&#x1a0;" horiz-adv-x="749" 
d="M344 -10q-149 0 -219 84t-70 245q0 173 70 254t219 81q152 0 224 -88q61 1 84.5 26.5t23.5 95.5h48q0 -88 -33.5 -124t-95.5 -42q38 -79 38 -203q0 -161 -70 -245t-219 -84zM344 37q119 0 176.5 68t57.5 214q0 106 -25.5 169t-77.5 90.5t-131 27.5t-131.5 -27.5
t-78 -90.5t-25.5 -169q0 -146 58 -214t177 -68z" />
    <glyph glyph-name="uni1EDA" unicode="&#x1eda;" horiz-adv-x="749" 
d="M333 688l67 158h52l-74 -158h-45zM344 -10q-149 0 -219 84t-70 245q0 173 70 254t219 81q152 0 224 -88q61 1 84.5 26.5t23.5 95.5h48q0 -88 -33.5 -124t-95.5 -42q38 -79 38 -203q0 -161 -70 -245t-219 -84zM344 37q119 0 176.5 68t57.5 214q0 106 -25.5 169t-77.5 90.5
t-131 27.5t-131.5 -27.5t-78 -90.5t-25.5 -169q0 -146 58 -214t177 -68z" />
    <glyph glyph-name="uni1EE2" unicode="&#x1ee2;" horiz-adv-x="749" 
d="M344 -10q-149 0 -219 84t-70 245q0 173 70 254t219 81q152 0 224 -88q61 1 84.5 26.5t23.5 95.5h48q0 -88 -33.5 -124t-95.5 -42q38 -79 38 -203q0 -161 -70 -245t-219 -84zM344 37q119 0 176.5 68t57.5 214q0 106 -25.5 169t-77.5 90.5t-131 27.5t-131.5 -27.5
t-78 -90.5t-25.5 -169q0 -146 58 -214t177 -68zM318 -152v57h59v-57h-59z" />
    <glyph glyph-name="uni1EDC" unicode="&#x1edc;" horiz-adv-x="749" 
d="M345 688l-74 158h52l67 -158h-45zM344 -10q-149 0 -219 84t-70 245q0 173 70 254t219 81q152 0 224 -88q61 1 84.5 26.5t23.5 95.5h48q0 -88 -33.5 -124t-95.5 -42q38 -79 38 -203q0 -161 -70 -245t-219 -84zM344 37q119 0 176.5 68t57.5 214q0 106 -25.5 169t-77.5 90.5
t-131 27.5t-131.5 -27.5t-78 -90.5t-25.5 -169q0 -146 58 -214t177 -68z" />
    <glyph glyph-name="uni1EDE" unicode="&#x1ede;" horiz-adv-x="749" 
d="M330 688v79q60 3 77 17t17 42q0 27 -19.5 40t-63.5 13q-16 0 -35 -3.5t-32 -8.5v38q14 5 36.5 8.5t40.5 3.5q57 0 86.5 -23t29.5 -65q0 -40 -19.5 -62t-70.5 -27v-52h-47zM344 -10q-149 0 -219 84t-70 245q0 173 70 254t219 81q152 0 224 -88q61 1 84.5 26.5t23.5 95.5
h48q0 -88 -33.5 -124t-95.5 -42q38 -79 38 -203q0 -161 -70 -245t-219 -84zM344 37q119 0 176.5 68t57.5 214q0 106 -25.5 169t-77.5 90.5t-131 27.5t-131.5 -27.5t-78 -90.5t-25.5 -169q0 -146 58 -214t177 -68z" />
    <glyph glyph-name="uni1EE0" unicode="&#x1ee0;" horiz-adv-x="749" 
d="M432 712q-24 0 -47 9.5t-44.5 18.5t-41.5 9q-22 0 -42 -7.5t-37 -27.5v47q12 14 34 21.5t44 7.5q26 0 47.5 -9t41.5 -18.5t43 -9.5q48 0 73 35v-47q-21 -29 -71 -29zM344 -10q-149 0 -219 84t-70 245q0 173 70 254t219 81q152 0 224 -88q61 1 84.5 26.5t23.5 95.5h48
q0 -88 -33.5 -124t-95.5 -42q38 -79 38 -203q0 -161 -70 -245t-219 -84zM344 37q119 0 176.5 68t57.5 214q0 106 -25.5 169t-77.5 90.5t-131 27.5t-131.5 -27.5t-78 -90.5t-25.5 -169q0 -146 58 -214t177 -68z" />
    <glyph glyph-name="Ohungarumlaut" unicode="&#x150;" horiz-adv-x="688" 
d="M202 687l67 141h54l-76 -141h-45zM401 687l67 141h54l-76 -141h-45zM344 -10q-149 0 -219 84t-70 245q0 173 70 254t219 81t219 -81t70 -254q0 -161 -70 -245t-219 -84zM344 37q119 0 176.5 68t57.5 214q0 106 -25.5 169t-77.5 90.5t-131 27.5t-131.5 -27.5t-78 -90.5
t-25.5 -169q0 -146 58 -214t177 -68z" />
    <glyph glyph-name="Omacron" unicode="&#x14c;" horiz-adv-x="688" 
d="M205 719v42h277v-42h-277zM344 -10q-149 0 -219 84t-70 245q0 173 70 254t219 81t219 -81t70 -254q0 -161 -70 -245t-219 -84zM344 37q119 0 176.5 68t57.5 214q0 106 -25.5 169t-77.5 90.5t-131 27.5t-131.5 -27.5t-78 -90.5t-25.5 -169q0 -146 58 -214t177 -68z" />
    <glyph glyph-name="Oslash" unicode="&#xd8;" horiz-adv-x="688" 
d="M174 -53l25 70q-73 35 -108.5 111t-35.5 191q0 173 70 254t219 81q23 0 43 -1.5t39 -5.5l17 46h50l-21 -59q83 -30 122 -107.5t39 -207.5q0 -161 -70 -245t-219 -84q-56 0 -100 12l-20 -55h-50zM216 64l193 536q-30 6 -65 6q-79 0 -131.5 -27.5t-78 -90.5t-25.5 -169
q0 -100 26.5 -162.5t80.5 -92.5zM344 37q119 0 176.5 68t57.5 214q0 116 -30.5 180t-92.5 89l-195 -541q36 -10 84 -10z" />
    <glyph glyph-name="Oslashacute" unicode="&#x1fe;" horiz-adv-x="688" 
d="M315 688l67 158h52l-74 -158h-45zM174 -53l25 70q-73 35 -108.5 111t-35.5 191q0 173 70 254t219 81q23 0 43 -1.5t39 -5.5l17 46h50l-21 -59q83 -30 122 -107.5t39 -207.5q0 -161 -70 -245t-219 -84q-56 0 -100 12l-20 -55h-50zM216 64l193 536q-30 6 -65 6
q-79 0 -131.5 -27.5t-78 -90.5t-25.5 -169q0 -100 26.5 -162.5t80.5 -92.5zM344 37q119 0 176.5 68t57.5 214q0 116 -30.5 180t-92.5 89l-195 -541q36 -10 84 -10z" />
    <glyph glyph-name="Otilde" unicode="&#xd5;" horiz-adv-x="688" 
d="M415 715q-24 0 -47 9.5t-44.5 18.5t-41.5 9q-22 0 -42 -7.5t-37 -27.5v47q12 14 34 21.5t44 7.5q26 0 47.5 -9t41.5 -18.5t43 -9.5q48 0 73 35v-47q-21 -29 -71 -29zM344 -10q-149 0 -219 84t-70 245q0 173 70 254t219 81t219 -81t70 -254q0 -161 -70 -245t-219 -84z
M344 37q119 0 176.5 68t57.5 214q0 106 -25.5 169t-77.5 90.5t-131 27.5t-131.5 -27.5t-78 -90.5t-25.5 -169q0 -146 58 -214t177 -68z" />
    <glyph glyph-name="OE" unicode="&#x152;" horiz-adv-x="1056" 
d="M344 -10q-149 0 -219 84t-70 245q0 173 70 254t219 81q167 0 235 -102v92h421v-45h-366v-255h331v-44h-331v-256h366v-44h-421v95q-71 -105 -235 -105zM344 37q119 0 176.5 68t57.5 214q0 106 -25.5 169t-77.5 90.5t-131 27.5t-131.5 -27.5t-78 -90.5t-25.5 -169
q0 -146 58 -214t177 -68z" />
    <glyph glyph-name="P" unicode="P" horiz-adv-x="571" 
d="M75 0v644h256q106 0 155.5 -55.5t49.5 -145.5q0 -91 -56 -143.5t-153 -52.5h-197v-247h-55zM130 291h192q79 0 119 41t40 111q0 75 -38.5 115.5t-115.5 40.5h-197v-308z" />
    <glyph glyph-name="Thorn" unicode="&#xde;" horiz-adv-x="571" 
d="M75 0v644h55v-125h201q106 0 155.5 -55t49.5 -144q0 -92 -56 -145t-153 -53h-197v-122h-55zM130 167h192q79 0 119 41.5t40 111.5q0 74 -38.5 114t-115.5 40h-197v-307z" />
    <glyph glyph-name="Q" unicode="Q" horiz-adv-x="688" 
d="M439 -172q-71 0 -99 43.5t-29 120.5q-132 8 -194 91.5t-62 235.5q0 173 70 254t219 81t219 -81t70 -254q0 -155 -65.5 -238.5t-202.5 -89.5q0 -63 17 -89t65 -26q16 0 36 3t35 7v-48q-16 -4 -37.5 -7t-41.5 -3zM344 37q119 0 176.5 68t57.5 214q0 106 -25.5 169
t-77.5 90.5t-131 27.5t-131.5 -27.5t-78 -90.5t-25.5 -169q0 -146 58 -214t177 -68z" />
    <glyph glyph-name="R" unicode="R" horiz-adv-x="592" 
d="M75 0v644h269q101 0 146.5 -52t45.5 -140q0 -74 -35.5 -121t-106.5 -61q23 -11 33.5 -27t22.5 -42l86 -201h-56l-85 194q-10 23 -22 37t-33 20.5t-59 6.5h-151v-258h-55zM130 302h198q71 0 112 35.5t41 114.5q0 147 -141 147h-210v-297z" />
    <glyph glyph-name="Racute" unicode="&#x154;" horiz-adv-x="592" 
d="M261 688l67 158h52l-74 -158h-45zM75 0v644h269q101 0 146.5 -52t45.5 -140q0 -74 -35.5 -121t-106.5 -61q23 -11 33.5 -27t22.5 -42l86 -201h-56l-85 194q-10 23 -22 37t-33 20.5t-59 6.5h-151v-258h-55zM130 302h198q71 0 112 35.5t41 114.5q0 147 -141 147h-210v-297z
" />
    <glyph glyph-name="Rcaron" unicode="&#x158;" horiz-adv-x="592" 
d="M269 687l-105 135h50l79 -103l79 103h50l-105 -135h-48zM75 0v644h269q101 0 146.5 -52t45.5 -140q0 -74 -35.5 -121t-106.5 -61q23 -11 33.5 -27t22.5 -42l86 -201h-56l-85 194q-10 23 -22 37t-33 20.5t-59 6.5h-151v-258h-55zM130 302h198q71 0 112 35.5t41 114.5
q0 147 -141 147h-210v-297z" />
    <glyph glyph-name="uni0156" unicode="&#x156;" horiz-adv-x="592" 
d="M75 0v644h269q101 0 146.5 -52t45.5 -140q0 -74 -35.5 -121t-106.5 -61q23 -11 33.5 -27t22.5 -42l86 -201h-56l-85 194q-10 23 -22 37t-33 20.5t-59 6.5h-151v-258h-55zM130 302h198q71 0 112 35.5t41 114.5q0 147 -141 147h-210v-297zM225 -202l26 165h53l-38 -165h-41
z" />
    <glyph glyph-name="uni1E5A" unicode="&#x1e5a;" horiz-adv-x="592" 
d="M75 0v644h269q101 0 146.5 -52t45.5 -140q0 -74 -35.5 -121t-106.5 -61q23 -11 33.5 -27t22.5 -42l86 -201h-56l-85 194q-10 23 -22 37t-33 20.5t-59 6.5h-151v-258h-55zM130 302h198q71 0 112 35.5t41 114.5q0 147 -141 147h-210v-297zM266 -152v57h59v-57h-59z" />
    <glyph glyph-name="uni1E5C" unicode="&#x1e5c;" horiz-adv-x="592" 
d="M153 717v42h277v-42h-277zM75 0v644h269q101 0 146.5 -52t45.5 -140q0 -74 -35.5 -121t-106.5 -61q23 -11 33.5 -27t22.5 -42l86 -201h-56l-85 194q-10 23 -22 37t-33 20.5t-59 6.5h-151v-258h-55zM130 302h198q71 0 112 35.5t41 114.5q0 147 -141 147h-210v-297z
M266 -152v57h59v-57h-59z" />
    <glyph glyph-name="uni1E5E" unicode="&#x1e5e;" horiz-adv-x="592" 
d="M75 0v644h269q101 0 146.5 -52t45.5 -140q0 -74 -35.5 -121t-106.5 -61q23 -11 33.5 -27t22.5 -42l86 -201h-56l-85 194q-10 23 -22 37t-33 20.5t-59 6.5h-151v-258h-55zM130 302h198q71 0 112 35.5t41 114.5q0 147 -141 147h-210v-297zM149 -116v42h277v-42h-277z" />
    <glyph glyph-name="S" unicode="S" horiz-adv-x="553" 
d="M258 -10q-116 0 -187 28v49q83 -30 183 -30q94 0 142 29t48 98q0 42 -19 68t-60.5 43.5t-111.5 32.5q-74 17 -117.5 39.5t-62 55.5t-18.5 78q0 78 56.5 125.5t174.5 47.5q54 0 101 -8t72 -16v-49q-72 25 -162 25q-91 0 -139.5 -29.5t-48.5 -95.5q0 -37 16.5 -60.5
t56.5 -39.5t110 -33q79 -18 123.5 -43.5t63.5 -60t19 -80.5q0 -86 -61 -130t-179 -44z" />
    <glyph glyph-name="Sacute" unicode="&#x15a;" horiz-adv-x="553" 
d="M239 694l67 158h52l-74 -158h-45zM258 -10q-116 0 -187 28v49q83 -30 183 -30q94 0 142 29t48 98q0 42 -19 68t-60.5 43.5t-111.5 32.5q-74 17 -117.5 39.5t-62 55.5t-18.5 78q0 78 56.5 125.5t174.5 47.5q54 0 101 -8t72 -16v-49q-72 25 -162 25q-91 0 -139.5 -29.5
t-48.5 -95.5q0 -37 16.5 -60.5t56.5 -39.5t110 -33q79 -18 123.5 -43.5t63.5 -60t19 -80.5q0 -86 -61 -130t-179 -44z" />
    <glyph glyph-name="Scaron" unicode="&#x160;" horiz-adv-x="553" 
d="M267 687l-105 135h50l79 -103l79 103h50l-105 -135h-48zM258 -10q-116 0 -187 28v49q83 -30 183 -30q94 0 142 29t48 98q0 42 -19 68t-60.5 43.5t-111.5 32.5q-74 17 -117.5 39.5t-62 55.5t-18.5 78q0 78 56.5 125.5t174.5 47.5q54 0 101 -8t72 -16v-49q-72 25 -162 25
q-91 0 -139.5 -29.5t-48.5 -95.5q0 -37 16.5 -60.5t56.5 -39.5t110 -33q79 -18 123.5 -43.5t63.5 -60t19 -80.5q0 -86 -61 -130t-179 -44z" />
    <glyph glyph-name="Scedilla" unicode="&#x15e;" horiz-adv-x="553" 
d="M248 -240q-16 0 -35.5 2.5t-30.5 5.5v37q29 -8 63 -8q50 0 74.5 14t24.5 50q0 32 -22.5 43.5t-69.5 11.5h-33l25 74q-106 2 -173 28v49q83 -30 183 -30q94 0 142 29t48 98q0 42 -19 68t-60.5 43.5t-111.5 32.5q-74 17 -117.5 39.5t-62 55.5t-18.5 78q0 78 56.5 125.5
t174.5 47.5q54 0 101 -8t72 -16v-49q-72 25 -162 25q-91 0 -139.5 -29.5t-48.5 -95.5q0 -37 16.5 -60.5t56.5 -39.5t110 -33q79 -18 123.5 -43.5t63.5 -60t19 -80.5q0 -81 -53.5 -124.5t-157.5 -48.5l-14 -42q114 0 114 -88q0 -49 -32.5 -75t-106.5 -26z" />
    <glyph glyph-name="Scircumflex" unicode="&#x15c;" horiz-adv-x="553" 
d="M147 703l105 135h48l105 -135h-50l-79 103l-79 -103h-50zM258 -10q-116 0 -187 28v49q83 -30 183 -30q94 0 142 29t48 98q0 42 -19 68t-60.5 43.5t-111.5 32.5q-74 17 -117.5 39.5t-62 55.5t-18.5 78q0 78 56.5 125.5t174.5 47.5q54 0 101 -8t72 -16v-49q-72 25 -162 25
q-91 0 -139.5 -29.5t-48.5 -95.5q0 -37 16.5 -60.5t56.5 -39.5t110 -33q79 -18 123.5 -43.5t63.5 -60t19 -80.5q0 -86 -61 -130t-179 -44z" />
    <glyph glyph-name="uni0218" unicode="&#x218;" horiz-adv-x="553" 
d="M258 -10q-116 0 -187 28v49q83 -30 183 -30q94 0 142 29t48 98q0 42 -19 68t-60.5 43.5t-111.5 32.5q-74 17 -117.5 39.5t-62 55.5t-18.5 78q0 78 56.5 125.5t174.5 47.5q54 0 101 -8t72 -16v-49q-72 25 -162 25q-91 0 -139.5 -29.5t-48.5 -95.5q0 -37 16.5 -60.5
t56.5 -39.5t110 -33q79 -18 123.5 -43.5t63.5 -60t19 -80.5q0 -86 -61 -130t-179 -44zM220 -215l26 160h54l-37 -160h-43z" />
    <glyph glyph-name="uni1E60" unicode="&#x1e60;" horiz-adv-x="553" 
d="M246 714v56h57v-56h-57zM258 -10q-116 0 -187 28v49q83 -30 183 -30q94 0 142 29t48 98q0 42 -19 68t-60.5 43.5t-111.5 32.5q-74 17 -117.5 39.5t-62 55.5t-18.5 78q0 78 56.5 125.5t174.5 47.5q54 0 101 -8t72 -16v-49q-72 25 -162 25q-91 0 -139.5 -29.5t-48.5 -95.5
q0 -37 16.5 -60.5t56.5 -39.5t110 -33q79 -18 123.5 -43.5t63.5 -60t19 -80.5q0 -86 -61 -130t-179 -44z" />
    <glyph glyph-name="uni1E62" unicode="&#x1e62;" horiz-adv-x="553" 
d="M258 -10q-116 0 -187 28v49q83 -30 183 -30q94 0 142 29t48 98q0 42 -19 68t-60.5 43.5t-111.5 32.5q-74 17 -117.5 39.5t-62 55.5t-18.5 78q0 78 56.5 125.5t174.5 47.5q54 0 101 -8t72 -16v-49q-72 25 -162 25q-91 0 -139.5 -29.5t-48.5 -95.5q0 -37 16.5 -60.5
t56.5 -39.5t110 -33q79 -18 123.5 -43.5t63.5 -60t19 -80.5q0 -86 -61 -130t-179 -44zM239 -152v57h59v-57h-59z" />
    <glyph glyph-name="uni1E9E" unicode="&#x1e9e;" horiz-adv-x="618" 
d="M369 -10q-39 0 -76.5 5t-67.5 17v48q30 -13 66 -18t72 -5q145 0 145 143q0 63 -31 92.5t-107 29.5h-100v53l207 129q0 52 -38.5 87t-133.5 35q-91 0 -135.5 -39t-44.5 -125v-442h-55v444q0 104 61.5 157t173.5 53q80 0 129.5 -24.5t72.5 -67t23 -96.5l-197 -121h58
q86 0 129 -44t43 -122q0 -91 -50 -140t-144 -49z" />
    <glyph glyph-name="uni018F" unicode="&#x18f;" horiz-adv-x="662" 
d="M315 -10q-91 0 -148.5 34t-84.5 92t-27 131v104h501q-2 86 -30 143t-89.5 85.5t-166.5 28.5q-42 0 -87 -9t-87 -26v46q40 16 89 25.5t97 9.5q173 0 249 -83t76 -255q0 -101 -29 -174.5t-93.5 -112.5t-169.5 -39zM315 35q128 0 184.5 70t56.5 203h-451v-67q0 -100 54 -153
t156 -53z" />
    <glyph glyph-name="T" unicode="T" horiz-adv-x="569" 
d="M257 0v599h-222v45h499v-45h-222v-599h-55z" />
    <glyph glyph-name="Tbar" unicode="&#x166;" horiz-adv-x="569" 
d="M257 0v333h-160v44h160v222h-222v45h499v-45h-222v-222h143v-44h-143v-333h-55z" />
    <glyph glyph-name="Tcaron" unicode="&#x164;" horiz-adv-x="569" 
d="M260 703l-105 135h50l79 -103l79 103h50l-105 -135h-48zM257 0v599h-222v45h499v-45h-222v-599h-55z" />
    <glyph glyph-name="uni0162" unicode="&#x162;" horiz-adv-x="569" 
d="M257 0v599h-222v45h499v-45h-222v-599h-7l-17 -51q114 0 114 -88q0 -49 -32.5 -75t-106.5 -26q-16 0 -35.5 2.5t-30.5 5.5v37q29 -8 63 -8q50 0 74.5 14t24.5 50q0 32 -22.5 43.5t-69.5 11.5h-33l28 84h-5z" />
    <glyph glyph-name="uni021A" unicode="&#x21a;" horiz-adv-x="569" 
d="M257 0v599h-222v45h499v-45h-222v-599h-55zM232 -205l26 165h53l-38 -165h-41z" />
    <glyph glyph-name="uni1E6C" unicode="&#x1e6c;" horiz-adv-x="569" 
d="M257 0v599h-222v45h499v-45h-222v-599h-55zM255 -150v57h59v-57h-59z" />
    <glyph glyph-name="uni1E6E" unicode="&#x1e6e;" horiz-adv-x="569" 
d="M257 0v599h-222v45h499v-45h-222v-599h-55zM146 -114v42h277v-42h-277z" />
    <glyph glyph-name="U" unicode="U" horiz-adv-x="663" 
d="M332 -10q-131 0 -196.5 62.5t-65.5 180.5v411h55v-417q0 -96 54.5 -142.5t152.5 -46.5t152 46.5t54 142.5v417h55v-411q0 -118 -65 -180.5t-196 -62.5z" />
    <glyph glyph-name="Uacute" unicode="&#xda;" horiz-adv-x="663" 
d="M301 688l67 158h52l-74 -158h-45zM332 -10q-131 0 -196.5 62.5t-65.5 180.5v411h55v-417q0 -96 54.5 -142.5t152.5 -46.5t152 46.5t54 142.5v417h55v-411q0 -118 -65 -180.5t-196 -62.5z" />
    <glyph glyph-name="Ubreve" unicode="&#x16c;" horiz-adv-x="663" 
d="M331 687q-51 0 -81 31.5t-30 79.5h42q0 -34 19 -53t50 -19q32 0 51 19t19 53h42q0 -48 -30 -79.5t-82 -31.5zM332 -10q-131 0 -196.5 62.5t-65.5 180.5v411h55v-417q0 -96 54.5 -142.5t152.5 -46.5t152 46.5t54 142.5v417h55v-411q0 -118 -65 -180.5t-196 -62.5z" />
    <glyph glyph-name="uni01D3" unicode="&#x1d3;" horiz-adv-x="663" 
d="M307 687l-105 135h50l79 -103l79 103h50l-105 -135h-48zM332 -10q-131 0 -196.5 62.5t-65.5 180.5v411h55v-417q0 -96 54.5 -142.5t152.5 -46.5t152 46.5t54 142.5v417h55v-411q0 -118 -65 -180.5t-196 -62.5z" />
    <glyph glyph-name="Ucircumflex" unicode="&#xdb;" horiz-adv-x="663" 
d="M202 687l105 135h48l105 -135h-50l-79 103l-79 -103h-50zM332 -10q-131 0 -196.5 62.5t-65.5 180.5v411h55v-417q0 -96 54.5 -142.5t152.5 -46.5t152 46.5t54 142.5v417h55v-411q0 -118 -65 -180.5t-196 -62.5z" />
    <glyph glyph-name="Udieresis" unicode="&#xdc;" horiz-adv-x="663" 
d="M213 714v55h57v-55h-57zM380 714v55h56v-55h-56zM332 -10q-131 0 -196.5 62.5t-65.5 180.5v411h55v-417q0 -96 54.5 -142.5t152.5 -46.5t152 46.5t54 142.5v417h55v-411q0 -118 -65 -180.5t-196 -62.5z" />
    <glyph glyph-name="uni01D7" unicode="&#x1d7;" horiz-adv-x="663" 
d="M305 764l60 117h51l-66 -117h-45zM212 687v55h57v-55h-57zM389 687v55h56v-55h-56zM332 -10q-131 0 -196.5 62.5t-65.5 180.5v411h55v-417q0 -96 54.5 -142.5t152.5 -46.5t152 46.5t54 142.5v417h55v-411q0 -118 -65 -180.5t-196 -62.5z" />
    <glyph glyph-name="uni01D9" unicode="&#x1d9;" horiz-adv-x="663" 
d="M307 764l-103 110h49l78 -85l78 85h49l-103 -110h-48zM212 687v55h57v-55h-57zM389 687v55h56v-55h-56zM332 -10q-131 0 -196.5 62.5t-65.5 180.5v411h55v-417q0 -96 54.5 -142.5t152.5 -46.5t152 46.5t54 142.5v417h55v-411q0 -118 -65 -180.5t-196 -62.5z" />
    <glyph glyph-name="uni01DB" unicode="&#x1db;" horiz-adv-x="663" 
d="M310 764l-66 117h51l60 -117h-45zM215 687v55h56v-55h-56zM391 687v55h57v-55h-57zM332 -10q-131 0 -196.5 62.5t-65.5 180.5v411h55v-417q0 -96 54.5 -142.5t152.5 -46.5t152 46.5t54 142.5v417h55v-411q0 -118 -65 -180.5t-196 -62.5z" />
    <glyph glyph-name="uni01D5" unicode="&#x1d5;" horiz-adv-x="663" 
d="M193 819v42h277v-42h-277zM220 711v55h57v-55h-57zM387 711v55h56v-55h-56zM332 -10q-131 0 -196.5 62.5t-65.5 180.5v411h55v-417q0 -96 54.5 -142.5t152.5 -46.5t152 46.5t54 142.5v417h55v-411q0 -118 -65 -180.5t-196 -62.5z" />
    <glyph glyph-name="uni1EE4" unicode="&#x1ee4;" horiz-adv-x="663" 
d="M332 -10q-131 0 -196.5 62.5t-65.5 180.5v411h55v-417q0 -96 54.5 -142.5t152.5 -46.5t152 46.5t54 142.5v417h55v-411q0 -118 -65 -180.5t-196 -62.5zM302 -152v57h59v-57h-59z" />
    <glyph glyph-name="Ugrave" unicode="&#xd9;" horiz-adv-x="663" 
d="M329 688l-74 158h52l67 -158h-45zM332 -10q-131 0 -196.5 62.5t-65.5 180.5v411h55v-417q0 -96 54.5 -142.5t152.5 -46.5t152 46.5t54 142.5v417h55v-411q0 -118 -65 -180.5t-196 -62.5z" />
    <glyph glyph-name="uni1EE6" unicode="&#x1ee6;" horiz-adv-x="663" 
d="M305 688v79q60 3 77 17t17 42q0 27 -19.5 40t-63.5 13q-16 0 -35 -3.5t-32 -8.5v38q14 5 36.5 8.5t40.5 3.5q57 0 86.5 -23t29.5 -65q0 -40 -19.5 -62t-70.5 -27v-52h-47zM332 -10q-131 0 -196.5 62.5t-65.5 180.5v411h55v-417q0 -96 54.5 -142.5t152.5 -46.5t152 46.5
t54 142.5v417h55v-411q0 -118 -65 -180.5t-196 -62.5z" />
    <glyph glyph-name="Uhorn" unicode="&#x1af;" horiz-adv-x="755" 
d="M332 -10q-131 0 -196.5 62.5t-65.5 180.5v411h55v-417q0 -96 54.5 -142.5t152.5 -46.5t152 46.5t54 142.5v417h55v-80q62 0 85.5 26.5t23.5 97.5h48q0 -97 -40 -132.5t-117 -36.5v-286q0 -118 -65 -180.5t-196 -62.5z" />
    <glyph glyph-name="uni1EE8" unicode="&#x1ee8;" horiz-adv-x="755" 
d="M318 688l67 158h52l-74 -158h-45zM332 -10q-131 0 -196.5 62.5t-65.5 180.5v411h55v-417q0 -96 54.5 -142.5t152.5 -46.5t152 46.5t54 142.5v417h55v-80q62 0 85.5 26.5t23.5 97.5h48q0 -97 -40 -132.5t-117 -36.5v-286q0 -118 -65 -180.5t-196 -62.5z" />
    <glyph glyph-name="uni1EF0" unicode="&#x1ef0;" horiz-adv-x="755" 
d="M332 -10q-131 0 -196.5 62.5t-65.5 180.5v411h55v-417q0 -96 54.5 -142.5t152.5 -46.5t152 46.5t54 142.5v417h55v-80q62 0 85.5 26.5t23.5 97.5h48q0 -97 -40 -132.5t-117 -36.5v-286q0 -118 -65 -180.5t-196 -62.5zM299 -152v57h59v-57h-59z" />
    <glyph glyph-name="uni1EEA" unicode="&#x1eea;" horiz-adv-x="755" 
d="M319 688l-74 158h52l67 -158h-45zM332 -10q-131 0 -196.5 62.5t-65.5 180.5v411h55v-417q0 -96 54.5 -142.5t152.5 -46.5t152 46.5t54 142.5v417h55v-80q62 0 85.5 26.5t23.5 97.5h48q0 -97 -40 -132.5t-117 -36.5v-286q0 -118 -65 -180.5t-196 -62.5z" />
    <glyph glyph-name="uni1EEC" unicode="&#x1eec;" horiz-adv-x="755" 
d="M315 688v79q60 3 77 17t17 42q0 27 -19.5 40t-63.5 13q-16 0 -35 -3.5t-32 -8.5v38q14 5 36.5 8.5t40.5 3.5q57 0 86.5 -23t29.5 -65q0 -40 -19.5 -62t-70.5 -27v-52h-47zM332 -10q-131 0 -196.5 62.5t-65.5 180.5v411h55v-417q0 -96 54.5 -142.5t152.5 -46.5t152 46.5
t54 142.5v417h55v-80q62 0 85.5 26.5t23.5 97.5h48q0 -97 -40 -132.5t-117 -36.5v-286q0 -118 -65 -180.5t-196 -62.5z" />
    <glyph glyph-name="uni1EEE" unicode="&#x1eee;" horiz-adv-x="755" 
d="M400 712q-24 0 -47 9.5t-44.5 18.5t-41.5 9q-22 0 -42 -7.5t-37 -27.5v47q12 14 34 21.5t44 7.5q26 0 47.5 -9t41.5 -18.5t43 -9.5q48 0 73 35v-47q-21 -29 -71 -29zM332 -10q-131 0 -196.5 62.5t-65.5 180.5v411h55v-417q0 -96 54.5 -142.5t152.5 -46.5t152 46.5
t54 142.5v417h55v-80q62 0 85.5 26.5t23.5 97.5h48q0 -97 -40 -132.5t-117 -36.5v-286q0 -118 -65 -180.5t-196 -62.5z" />
    <glyph glyph-name="Uhungarumlaut" unicode="&#x170;" horiz-adv-x="663" 
d="M175 687l67 141h54l-76 -141h-45zM374 687l67 141h54l-76 -141h-45zM332 -10q-131 0 -196.5 62.5t-65.5 180.5v411h55v-417q0 -96 54.5 -142.5t152.5 -46.5t152 46.5t54 142.5v417h55v-411q0 -118 -65 -180.5t-196 -62.5z" />
    <glyph glyph-name="Umacron" unicode="&#x16a;" horiz-adv-x="663" 
d="M193 719v42h277v-42h-277zM332 -10q-131 0 -196.5 62.5t-65.5 180.5v411h55v-417q0 -96 54.5 -142.5t152.5 -46.5t152 46.5t54 142.5v417h55v-411q0 -118 -65 -180.5t-196 -62.5z" />
    <glyph glyph-name="Uogonek" unicode="&#x172;" horiz-adv-x="663" 
d="M352 -220q-38 0 -64.5 19.5t-26.5 66.5q0 36 17.5 69t44.5 55q-127 2 -190 64.5t-63 178.5v411h55v-417q0 -96 54.5 -142.5t152.5 -46.5t152 46.5t54 142.5v417h55v-411q0 -109 -55.5 -170.5t-166.5 -70.5q-32 -27 -47.5 -58t-15.5 -62q0 -28 12.5 -39.5t40.5 -11.5
q13 0 27 3t23 8v-41q-11 -6 -28 -8.5t-31 -2.5z" />
    <glyph glyph-name="Uring" unicode="&#x16e;" horiz-adv-x="663" 
d="M331 687q-44 0 -73 29.5t-29 71.5q0 43 29 72.5t73 29.5q45 0 74 -29.5t29 -72.5q0 -42 -29 -71.5t-74 -29.5zM331 723q29 0 47.5 18.5t18.5 46.5q0 29 -18.5 47.5t-47.5 18.5q-28 0 -47 -18.5t-19 -47.5q0 -28 19 -46.5t47 -18.5zM332 -10q-131 0 -196.5 62.5
t-65.5 180.5v411h55v-417q0 -96 54.5 -142.5t152.5 -46.5t152 46.5t54 142.5v417h55v-411q0 -118 -65 -180.5t-196 -62.5z" />
    <glyph glyph-name="Utilde" unicode="&#x168;" horiz-adv-x="663" 
d="M402 713q-24 0 -47 9.5t-44.5 18.5t-41.5 9q-22 0 -42 -7.5t-37 -27.5v47q12 14 34 21.5t44 7.5q26 0 47.5 -9t41.5 -18.5t43 -9.5q48 0 73 35v-47q-21 -29 -71 -29zM332 -10q-131 0 -196.5 62.5t-65.5 180.5v411h55v-417q0 -96 54.5 -142.5t152.5 -46.5t152 46.5
t54 142.5v417h55v-411q0 -118 -65 -180.5t-196 -62.5z" />
    <glyph glyph-name="V" unicode="V" horiz-adv-x="668" 
d="M298 0l-243 644h57l222 -595l222 595h57l-243 -644h-72z" />
    <glyph glyph-name="W" unicode="W" horiz-adv-x="850" 
d="M205 0l-150 644h55l133 -577l156 512v65h45l163 -577l134 577h54l-149 -644h-66l-149 530l-159 -530h-67z" />
    <glyph glyph-name="Wacute" unicode="&#x1e82;" horiz-adv-x="850" 
d="M409 688l67 158h52l-74 -158h-45zM205 0l-150 644h55l133 -577l156 512v65h45l163 -577l134 577h54l-149 -644h-66l-149 530l-159 -530h-67z" />
    <glyph glyph-name="Wcircumflex" unicode="&#x174;" horiz-adv-x="850" 
d="M301 687l105 135h48l105 -135h-50l-79 103l-79 -103h-50zM205 0l-150 644h55l133 -577l156 512v65h45l163 -577l134 577h54l-149 -644h-66l-149 530l-159 -530h-67z" />
    <glyph glyph-name="Wdieresis" unicode="&#x1e84;" horiz-adv-x="850" 
d="M319 712v55h57v-55h-57zM486 712v55h56v-55h-56zM205 0l-150 644h55l133 -577l156 512v65h45l163 -577l134 577h54l-149 -644h-66l-149 530l-159 -530h-67z" />
    <glyph glyph-name="Wgrave" unicode="&#x1e80;" horiz-adv-x="850" 
d="M401 688l-74 158h52l67 -158h-45zM205 0l-150 644h55l133 -577l156 512v65h45l163 -577l134 577h54l-149 -644h-66l-149 530l-159 -530h-67z" />
    <glyph glyph-name="X" unicode="X" horiz-adv-x="624" 
d="M55 0l224 318l-223 326h62l194 -287l194 287h61l-223 -326l225 -318h-62l-195 278l-195 -278h-62z" />
    <glyph glyph-name="Y" unicode="Y" horiz-adv-x="624" 
d="M284 0v241l-229 403h57l200 -355l200 355h57l-230 -403v-241h-55z" />
    <glyph glyph-name="Yacute" unicode="&#xdd;" horiz-adv-x="624" 
d="M276 688l67 158h52l-74 -158h-45zM284 0v241l-229 403h57l200 -355l200 355h57l-230 -403v-241h-55z" />
    <glyph glyph-name="Ycircumflex" unicode="&#x176;" horiz-adv-x="624" 
d="M182 687l105 135h48l105 -135h-50l-79 103l-79 -103h-50zM284 0v241l-229 403h57l200 -355l200 355h57l-230 -403v-241h-55z" />
    <glyph glyph-name="Ydieresis" unicode="&#x178;" horiz-adv-x="624" 
d="M201 714v55h57v-55h-57zM368 714v55h56v-55h-56zM284 0v241l-229 403h57l200 -355l200 355h57l-230 -403v-241h-55z" />
    <glyph glyph-name="uni1E8E" unicode="&#x1e8e;" horiz-adv-x="624" 
d="M283 714v56h57v-56h-57zM284 0v241l-229 403h57l200 -355l200 355h57l-230 -403v-241h-55z" />
    <glyph glyph-name="uni1EF4" unicode="&#x1ef4;" horiz-adv-x="624" 
d="M284 0v241l-229 403h57l200 -355l200 355h57l-230 -403v-241h-55zM283 -135v57h59v-57h-59z" />
    <glyph glyph-name="Ygrave" unicode="&#x1ef2;" horiz-adv-x="624" 
d="M303 688l-74 158h52l67 -158h-45zM284 0v241l-229 403h57l200 -355l200 355h57l-230 -403v-241h-55z" />
    <glyph glyph-name="uni1EF6" unicode="&#x1ef6;" horiz-adv-x="624" 
d="M277 688v79q60 3 77 17t17 42q0 27 -19.5 40t-63.5 13q-16 0 -35 -3.5t-32 -8.5v38q14 5 36.5 8.5t40.5 3.5q57 0 86.5 -23t29.5 -65q0 -40 -19.5 -62t-70.5 -27v-52h-47zM284 0v241l-229 403h57l200 -355l200 355h57l-230 -403v-241h-55z" />
    <glyph glyph-name="uni1EF8" unicode="&#x1ef8;" horiz-adv-x="624" 
d="M383 713q-24 0 -47 9.5t-44.5 18.5t-41.5 9q-22 0 -42 -7.5t-37 -27.5v47q12 14 34 21.5t44 7.5q26 0 47.5 -9t41.5 -18.5t43 -9.5q48 0 73 35v-47q-21 -29 -71 -29zM284 0v241l-229 403h57l200 -355l200 355h57l-230 -403v-241h-55z" />
    <glyph glyph-name="Z" unicode="Z" horiz-adv-x="568" 
d="M55 0v34l390 565h-373v45h441v-39l-387 -561h392v-44h-463z" />
    <glyph glyph-name="Zacute" unicode="&#x179;" horiz-adv-x="568" 
d="M279 688l67 158h52l-74 -158h-45zM55 0v34l390 565h-373v45h441v-39l-387 -561h392v-44h-463z" />
    <glyph glyph-name="Zcaron" unicode="&#x17d;" horiz-adv-x="568" 
d="M283 687l-105 135h50l79 -103l79 103h50l-105 -135h-48zM55 0v34l390 565h-373v45h441v-39l-387 -561h392v-44h-463z" />
    <glyph glyph-name="Zdotaccent" unicode="&#x17b;" horiz-adv-x="568" 
d="M271 714v56h57v-56h-57zM55 0v34l390 565h-373v45h441v-39l-387 -561h392v-44h-463z" />
    <glyph glyph-name="uni1E92" unicode="&#x1e92;" horiz-adv-x="568" 
d="M55 0v34l390 565h-373v45h441v-39l-387 -561h392v-44h-463zM261 -152v57h59v-57h-59z" />
    <glyph glyph-name="a" unicode="a" horiz-adv-x="531" 
d="M220 -10q-45 0 -82.5 14t-60 44.5t-22.5 77.5q0 63 40 102.5t136 39.5h177v45q0 45 -12 72.5t-43.5 39.5t-92.5 12q-41 0 -79 -7t-72 -19v47q31 12 72.5 19t88.5 7q98 0 144.5 -39.5t46.5 -130.5v-314h-45l-5 59q-33 -35 -78 -52t-113 -17zM234 36q57 0 100 18.5t74 55.5
v114h-175q-70 0 -97 -25t-27 -73q0 -49 33.5 -69.5t91.5 -20.5z" />
    <glyph glyph-name="aacute" unicode="&#xe1;" horiz-adv-x="531" 
d="M252 522l67 158h52l-74 -158h-45zM220 -10q-45 0 -82.5 14t-60 44.5t-22.5 77.5q0 63 40 102.5t136 39.5h177v45q0 45 -12 72.5t-43.5 39.5t-92.5 12q-41 0 -79 -7t-72 -19v47q31 12 72.5 19t88.5 7q98 0 144.5 -39.5t46.5 -130.5v-314h-45l-5 59q-33 -35 -78 -52
t-113 -17zM234 36q57 0 100 18.5t74 55.5v114h-175q-70 0 -97 -25t-27 -73q0 -49 33.5 -69.5t91.5 -20.5z" />
    <glyph glyph-name="abreve" unicode="&#x103;" horiz-adv-x="531" 
d="M285 521q-51 0 -81 31.5t-30 79.5h42q0 -34 19 -53t50 -19q32 0 51 19t19 53h42q0 -48 -30 -79.5t-82 -31.5zM220 -10q-45 0 -82.5 14t-60 44.5t-22.5 77.5q0 63 40 102.5t136 39.5h177v45q0 45 -12 72.5t-43.5 39.5t-92.5 12q-41 0 -79 -7t-72 -19v47q31 12 72.5 19
t88.5 7q98 0 144.5 -39.5t46.5 -130.5v-314h-45l-5 59q-33 -35 -78 -52t-113 -17zM234 36q57 0 100 18.5t74 55.5v114h-175q-70 0 -97 -25t-27 -73q0 -49 33.5 -69.5t91.5 -20.5z" />
    <glyph glyph-name="uni1EAF" unicode="&#x1eaf;" horiz-adv-x="531" 
d="M256 620l60 117h47l-66 -117h-41zM288 522q-36 0 -68 13t-51.5 42t-19.5 77h39q0 -49 28 -72.5t72 -23.5t72 23.5t28 72.5h38q0 -48 -19.5 -77t-50.5 -42t-68 -13zM220 -10q-45 0 -82.5 14t-60 44.5t-22.5 77.5q0 63 40 102.5t136 39.5h177v45q0 45 -12 72.5t-43.5 39.5
t-92.5 12q-41 0 -79 -7t-72 -19v47q31 12 72.5 19t88.5 7q98 0 144.5 -39.5t46.5 -130.5v-314h-45l-5 59q-33 -35 -78 -52t-113 -17zM234 36q57 0 100 18.5t74 55.5v114h-175q-70 0 -97 -25t-27 -73q0 -49 33.5 -69.5t91.5 -20.5z" />
    <glyph glyph-name="uni1EB7" unicode="&#x1eb7;" horiz-adv-x="531" 
d="M279 521q-51 0 -81 31.5t-30 79.5h42q0 -34 19 -53t50 -19q32 0 51 19t19 53h42q0 -48 -30 -79.5t-82 -31.5zM220 -10q-45 0 -82.5 14t-60 44.5t-22.5 77.5q0 63 40 102.5t136 39.5h177v45q0 45 -12 72.5t-43.5 39.5t-92.5 12q-41 0 -79 -7t-72 -19v47q31 12 72.5 19
t88.5 7q98 0 144.5 -39.5t46.5 -130.5v-314h-45l-5 59q-33 -35 -78 -52t-113 -17zM234 36q57 0 100 18.5t74 55.5v114h-175q-70 0 -97 -25t-27 -73q0 -49 33.5 -69.5t91.5 -20.5zM251 -152v57h59v-57h-59z" />
    <glyph glyph-name="uni1EB1" unicode="&#x1eb1;" horiz-adv-x="531" 
d="M270 620l-66 117h47l59 -117h-40zM279 522q-36 0 -68 13t-51.5 42t-19.5 77h39q0 -49 28 -72.5t72 -23.5t72 23.5t28 72.5h38q0 -48 -19.5 -77t-50.5 -42t-68 -13zM220 -10q-45 0 -82.5 14t-60 44.5t-22.5 77.5q0 63 40 102.5t136 39.5h177v45q0 45 -12 72.5t-43.5 39.5
t-92.5 12q-41 0 -79 -7t-72 -19v47q31 12 72.5 19t88.5 7q98 0 144.5 -39.5t46.5 -130.5v-314h-45l-5 59q-33 -35 -78 -52t-113 -17zM234 36q57 0 100 18.5t74 55.5v114h-175q-70 0 -97 -25t-27 -73q0 -49 33.5 -69.5t91.5 -20.5z" />
    <glyph glyph-name="uni1EB3" unicode="&#x1eb3;" horiz-adv-x="531" 
d="M244 610v57q52 2 67.5 13.5t15.5 33.5q0 42 -54 42q-17 0 -31 -3.5t-28 -9.5v33q14 5 31 8.5t36 3.5q41 0 64 -18.5t23 -52.5q0 -32 -18.5 -49t-61.5 -23v-35h-44zM279 522q-36 0 -68 13t-51.5 42t-19.5 77h39q0 -49 28 -72.5t72 -23.5t72 23.5t28 72.5h38
q0 -48 -19.5 -77t-50.5 -42t-68 -13zM220 -10q-45 0 -82.5 14t-60 44.5t-22.5 77.5q0 63 40 102.5t136 39.5h177v45q0 45 -12 72.5t-43.5 39.5t-92.5 12q-41 0 -79 -7t-72 -19v47q31 12 72.5 19t88.5 7q98 0 144.5 -39.5t46.5 -130.5v-314h-45l-5 59q-33 -35 -78 -52
t-113 -17zM234 36q57 0 100 18.5t74 55.5v114h-175q-70 0 -97 -25t-27 -73q0 -49 33.5 -69.5t91.5 -20.5z" />
    <glyph glyph-name="uni1EB5" unicode="&#x1eb5;" horiz-adv-x="531" 
d="M342 682q-23 0 -43.5 8.5t-39.5 17t-38 8.5q-22 0 -40 -6.5t-35 -25.5v43q12 13 32 20t41 7q25 0 44.5 -8.5t37.5 -17t40 -8.5t39.5 7t32.5 26v-44q-22 -27 -71 -27zM280 522q-36 0 -68 13t-51.5 42t-19.5 77h39q0 -49 28 -72.5t72 -23.5t72 23.5t28 72.5h38
q0 -48 -19.5 -77t-50.5 -42t-68 -13zM220 -10q-45 0 -82.5 14t-60 44.5t-22.5 77.5q0 63 40 102.5t136 39.5h177v45q0 45 -12 72.5t-43.5 39.5t-92.5 12q-41 0 -79 -7t-72 -19v47q31 12 72.5 19t88.5 7q98 0 144.5 -39.5t46.5 -130.5v-314h-45l-5 59q-33 -35 -78 -52
t-113 -17zM234 36q57 0 100 18.5t74 55.5v114h-175q-70 0 -97 -25t-27 -73q0 -49 33.5 -69.5t91.5 -20.5z" />
    <glyph glyph-name="uni01CE" unicode="&#x1ce;" horiz-adv-x="531" 
d="M252 521l-105 135h50l79 -103l79 103h50l-105 -135h-48zM220 -10q-45 0 -82.5 14t-60 44.5t-22.5 77.5q0 63 40 102.5t136 39.5h177v45q0 45 -12 72.5t-43.5 39.5t-92.5 12q-41 0 -79 -7t-72 -19v47q31 12 72.5 19t88.5 7q98 0 144.5 -39.5t46.5 -130.5v-314h-45l-5 59
q-33 -35 -78 -52t-113 -17zM234 36q57 0 100 18.5t74 55.5v114h-175q-70 0 -97 -25t-27 -73q0 -49 33.5 -69.5t91.5 -20.5z" />
    <glyph glyph-name="acircumflex" unicode="&#xe2;" horiz-adv-x="531" 
d="M149 521l105 135h48l105 -135h-50l-79 103l-79 -103h-50zM220 -10q-45 0 -82.5 14t-60 44.5t-22.5 77.5q0 63 40 102.5t136 39.5h177v45q0 45 -12 72.5t-43.5 39.5t-92.5 12q-41 0 -79 -7t-72 -19v47q31 12 72.5 19t88.5 7q98 0 144.5 -39.5t46.5 -130.5v-314h-45l-5 59
q-33 -35 -78 -52t-113 -17zM234 36q57 0 100 18.5t74 55.5v114h-175q-70 0 -97 -25t-27 -73q0 -49 33.5 -69.5t91.5 -20.5z" />
    <glyph glyph-name="uni1EA5" unicode="&#x1ea5;" horiz-adv-x="531" 
d="M350 627l60 117h47l-66 -117h-41zM154 521l103 110h48l103 -110h-49l-78 85l-78 -85h-49zM220 -10q-45 0 -82.5 14t-60 44.5t-22.5 77.5q0 63 40 102.5t136 39.5h177v45q0 45 -12 72.5t-43.5 39.5t-92.5 12q-41 0 -79 -7t-72 -19v47q31 12 72.5 19t88.5 7
q98 0 144.5 -39.5t46.5 -130.5v-314h-45l-5 59q-33 -35 -78 -52t-113 -17zM234 36q57 0 100 18.5t74 55.5v114h-175q-70 0 -97 -25t-27 -73q0 -49 33.5 -69.5t91.5 -20.5z" />
    <glyph glyph-name="uni1EAD" unicode="&#x1ead;" horiz-adv-x="531" 
d="M147 521l105 135h48l105 -135h-50l-79 103l-79 -103h-50zM220 -10q-45 0 -82.5 14t-60 44.5t-22.5 77.5q0 63 40 102.5t136 39.5h177v45q0 45 -12 72.5t-43.5 39.5t-92.5 12q-41 0 -79 -7t-72 -19v47q31 12 72.5 19t88.5 7q98 0 144.5 -39.5t46.5 -130.5v-314h-45l-5 59
q-33 -35 -78 -52t-113 -17zM234 36q57 0 100 18.5t74 55.5v114h-175q-70 0 -97 -25t-27 -73q0 -49 33.5 -69.5t91.5 -20.5zM247 -152v57h59v-57h-59z" />
    <glyph glyph-name="uni1EA7" unicode="&#x1ea7;" horiz-adv-x="531" 
d="M163 627l-66 117h47l59 -117h-40zM146 521l103 110h48l103 -110h-50l-77 85l-78 -85h-49zM220 -10q-45 0 -82.5 14t-60 44.5t-22.5 77.5q0 63 40 102.5t136 39.5h177v45q0 45 -12 72.5t-43.5 39.5t-92.5 12q-41 0 -79 -7t-72 -19v47q31 12 72.5 19t88.5 7
q98 0 144.5 -39.5t46.5 -130.5v-314h-45l-5 59q-33 -35 -78 -52t-113 -17zM234 36q57 0 100 18.5t74 55.5v114h-175q-70 0 -97 -25t-27 -73q0 -49 33.5 -69.5t91.5 -20.5z" />
    <glyph glyph-name="uni1EA9" unicode="&#x1ea9;" horiz-adv-x="531" 
d="M351 606v59q53 3 68 14t15 32q0 41 -53 41q-18 0 -32 -3.5t-27 -9.5v34q13 5 29.5 8.5t36.5 3.5q41 0 64.5 -18.5t23.5 -53.5q0 -31 -19 -48.5t-61 -22.5v-36h-45zM147 521l103 110h48l103 -110h-49l-78 85l-77 -85h-50zM220 -10q-45 0 -82.5 14t-60 44.5t-22.5 77.5
q0 63 40 102.5t136 39.5h177v45q0 45 -12 72.5t-43.5 39.5t-92.5 12q-41 0 -79 -7t-72 -19v47q31 12 72.5 19t88.5 7q98 0 144.5 -39.5t46.5 -130.5v-314h-45l-5 59q-33 -35 -78 -52t-113 -17zM234 36q57 0 100 18.5t74 55.5v114h-175q-70 0 -97 -25t-27 -73
q0 -49 33.5 -69.5t91.5 -20.5z" />
    <glyph glyph-name="uni1EAB" unicode="&#x1eab;" horiz-adv-x="531" 
d="M345 639q-23 0 -43.5 8.5t-39.5 16.5t-38 8q-22 0 -40 -6.5t-35 -25.5v44q12 12 32 19t41 7q25 0 44.5 -8t37.5 -16.5t40 -8.5t39.5 7t32.5 25v-44q-23 -26 -71 -26zM153 521l103 110h48l103 -110h-49l-78 85l-77 -85h-50zM220 -10q-45 0 -82.5 14t-60 44.5t-22.5 77.5
q0 63 40 102.5t136 39.5h177v45q0 45 -12 72.5t-43.5 39.5t-92.5 12q-41 0 -79 -7t-72 -19v47q31 12 72.5 19t88.5 7q98 0 144.5 -39.5t46.5 -130.5v-314h-45l-5 59q-33 -35 -78 -52t-113 -17zM234 36q57 0 100 18.5t74 55.5v114h-175q-70 0 -97 -25t-27 -73
q0 -49 33.5 -69.5t91.5 -20.5z" />
    <glyph glyph-name="adieresis" unicode="&#xe4;" horiz-adv-x="531" 
d="M171 548v55h57v-55h-57zM338 548v55h56v-55h-56zM220 -10q-45 0 -82.5 14t-60 44.5t-22.5 77.5q0 63 40 102.5t136 39.5h177v45q0 45 -12 72.5t-43.5 39.5t-92.5 12q-41 0 -79 -7t-72 -19v47q31 12 72.5 19t88.5 7q98 0 144.5 -39.5t46.5 -130.5v-314h-45l-5 59
q-33 -35 -78 -52t-113 -17zM234 36q57 0 100 18.5t74 55.5v114h-175q-70 0 -97 -25t-27 -73q0 -49 33.5 -69.5t91.5 -20.5z" />
    <glyph glyph-name="uni1EA1" unicode="&#x1ea1;" horiz-adv-x="531" 
d="M220 -10q-45 0 -82.5 14t-60 44.5t-22.5 77.5q0 63 40 102.5t136 39.5h177v45q0 45 -12 72.5t-43.5 39.5t-92.5 12q-41 0 -79 -7t-72 -19v47q31 12 72.5 19t88.5 7q98 0 144.5 -39.5t46.5 -130.5v-314h-45l-5 59q-33 -35 -78 -52t-113 -17zM234 36q57 0 100 18.5t74 55.5
v114h-175q-70 0 -97 -25t-27 -73q0 -49 33.5 -69.5t91.5 -20.5zM249 -152v57h59v-57h-59z" />
    <glyph glyph-name="agrave" unicode="&#xe0;" horiz-adv-x="531" 
d="M268 522l-74 158h52l67 -158h-45zM220 -10q-45 0 -82.5 14t-60 44.5t-22.5 77.5q0 63 40 102.5t136 39.5h177v45q0 45 -12 72.5t-43.5 39.5t-92.5 12q-41 0 -79 -7t-72 -19v47q31 12 72.5 19t88.5 7q98 0 144.5 -39.5t46.5 -130.5v-314h-45l-5 59q-33 -35 -78 -52
t-113 -17zM234 36q57 0 100 18.5t74 55.5v114h-175q-70 0 -97 -25t-27 -73q0 -49 33.5 -69.5t91.5 -20.5z" />
    <glyph glyph-name="uni1EA3" unicode="&#x1ea3;" horiz-adv-x="531" 
d="M246 517v79q60 3 77 17t17 42q0 27 -19.5 40t-63.5 13q-16 0 -35 -3.5t-32 -8.5v38q14 5 36.5 8.5t40.5 3.5q57 0 86.5 -23t29.5 -65q0 -40 -19.5 -62t-70.5 -27v-52h-47zM220 -10q-45 0 -82.5 14t-60 44.5t-22.5 77.5q0 63 40 102.5t136 39.5h177v45q0 45 -12 72.5
t-43.5 39.5t-92.5 12q-41 0 -79 -7t-72 -19v47q31 12 72.5 19t88.5 7q98 0 144.5 -39.5t46.5 -130.5v-314h-45l-5 59q-33 -35 -78 -52t-113 -17zM234 36q57 0 100 18.5t74 55.5v114h-175q-70 0 -97 -25t-27 -73q0 -49 33.5 -69.5t91.5 -20.5z" />
    <glyph glyph-name="uni0251" unicode="&#x251;" horiz-adv-x="564" 
d="M267 -10q-62 0 -110 21.5t-75 72.5t-27 137t28.5 144.5t79 88.5t114.5 30q50 0 85.5 -11.5t71.5 -38.5v40h55v-474h-46l-5 53q-34 -32 -75 -47.5t-96 -15.5zM280 35q94 0 154 64v287q-28 24 -60.5 38t-80.5 14q-88 0 -136 -55.5t-48 -161.5q0 -101 42 -143.5t129 -42.5z
" />
    <glyph glyph-name="amacron" unicode="&#x101;" horiz-adv-x="531" 
d="M138 549v42h277v-42h-277zM220 -10q-45 0 -82.5 14t-60 44.5t-22.5 77.5q0 63 40 102.5t136 39.5h177v45q0 45 -12 72.5t-43.5 39.5t-92.5 12q-41 0 -79 -7t-72 -19v47q31 12 72.5 19t88.5 7q98 0 144.5 -39.5t46.5 -130.5v-314h-45l-5 59q-33 -35 -78 -52t-113 -17z
M234 36q57 0 100 18.5t74 55.5v114h-175q-70 0 -97 -25t-27 -73q0 -49 33.5 -69.5t91.5 -20.5z" />
    <glyph glyph-name="aogonek" unicode="&#x105;" horiz-adv-x="531" 
d="M431 -220q-38 0 -64.5 19.5t-26.5 66.5q0 41 22.5 76.5t53.5 57.5l-5 59q-33 -35 -78 -52t-113 -17q-45 0 -82.5 14t-60 44.5t-22.5 77.5q0 63 40 102.5t136 39.5h177v45q0 45 -12 72.5t-43.5 39.5t-92.5 12q-41 0 -79 -7t-72 -19v47q31 12 72.5 19t88.5 7
q98 0 144.5 -39.5t46.5 -130.5v-314q-37 -28 -55.5 -61t-18.5 -67q0 -28 12.5 -39.5t40.5 -11.5q13 0 27 3t23 8v-41q-11 -6 -28 -8.5t-31 -2.5zM234 36q57 0 100 18.5t74 55.5v114h-175q-70 0 -97 -25t-27 -73q0 -49 33.5 -69.5t91.5 -20.5z" />
    <glyph glyph-name="aring" unicode="&#xe5;" horiz-adv-x="531" 
d="M284 521q-44 0 -73 29.5t-29 71.5q0 43 29 72.5t73 29.5q45 0 74 -29.5t29 -72.5q0 -42 -29 -71.5t-74 -29.5zM284 557q29 0 47.5 18.5t18.5 46.5q0 29 -18.5 47.5t-47.5 18.5q-28 0 -47 -18.5t-19 -47.5q0 -28 19 -46.5t47 -18.5zM220 -10q-45 0 -82.5 14t-60 44.5
t-22.5 77.5q0 63 40 102.5t136 39.5h177v45q0 45 -12 72.5t-43.5 39.5t-92.5 12q-41 0 -79 -7t-72 -19v47q31 12 72.5 19t88.5 7q98 0 144.5 -39.5t46.5 -130.5v-314h-45l-5 59q-33 -35 -78 -52t-113 -17zM234 36q57 0 100 18.5t74 55.5v114h-175q-70 0 -97 -25t-27 -73
q0 -49 33.5 -69.5t91.5 -20.5z" />
    <glyph glyph-name="aringacute" unicode="&#x1fb;" horiz-adv-x="531" 
d="M252 781l67 126h52l-74 -126h-45zM277 520q-44 0 -73 29.5t-29 71.5q0 43 29 72.5t73 29.5q45 0 74 -29.5t29 -72.5q0 -42 -29 -71.5t-74 -29.5zM277 556q29 0 47.5 18.5t18.5 46.5q0 29 -18.5 47.5t-47.5 18.5q-28 0 -47 -18.5t-19 -47.5q0 -28 19 -46.5t47 -18.5z
M220 -10q-45 0 -82.5 14t-60 44.5t-22.5 77.5q0 63 40 102.5t136 39.5h177v45q0 45 -12 72.5t-43.5 39.5t-92.5 12q-41 0 -79 -7t-72 -19v47q31 12 72.5 19t88.5 7q98 0 144.5 -39.5t46.5 -130.5v-314h-45l-5 59q-33 -35 -78 -52t-113 -17zM234 36q57 0 100 18.5t74 55.5
v114h-175q-70 0 -97 -25t-27 -73q0 -49 33.5 -69.5t91.5 -20.5z" />
    <glyph glyph-name="atilde" unicode="&#xe3;" horiz-adv-x="531" 
d="M349 547q-24 0 -47 9.5t-44.5 18.5t-41.5 9q-22 0 -42 -7.5t-37 -27.5v47q12 14 34 21.5t44 7.5q26 0 47.5 -9t41.5 -18.5t43 -9.5q48 0 73 35v-47q-21 -29 -71 -29zM220 -10q-45 0 -82.5 14t-60 44.5t-22.5 77.5q0 63 40 102.5t136 39.5h177v45q0 45 -12 72.5
t-43.5 39.5t-92.5 12q-41 0 -79 -7t-72 -19v47q31 12 72.5 19t88.5 7q98 0 144.5 -39.5t46.5 -130.5v-314h-45l-5 59q-33 -35 -78 -52t-113 -17zM234 36q57 0 100 18.5t74 55.5v114h-175q-70 0 -97 -25t-27 -73q0 -49 33.5 -69.5t91.5 -20.5z" />
    <glyph glyph-name="ae" unicode="&#xe6;" horiz-adv-x="879" 
d="M220 -10q-45 0 -82.5 14t-60 44.5t-22.5 77.5q0 63 40 102.5t136 39.5h177v33q0 65 -31.5 100.5t-114.5 35.5q-42 0 -80.5 -7t-72.5 -19v47q31 12 72.5 19t88.5 7q134 0 169 -91q49 91 186 91q68 0 112 -25.5t65.5 -68.5t21.5 -96v-86h-361q3 -94 48 -133.5t153 -39.5
q65 0 129 25v-45q-62 -25 -139 -25q-84 0 -136.5 25t-78.5 79q-27 -46 -80.5 -75t-138.5 -29zM463 251h310v45q0 66 -35 104t-112 38q-94 0 -128.5 -46t-34.5 -141zM234 36q139 0 174 100v88h-175q-70 0 -97 -25t-27 -73q0 -49 33.5 -69.5t91.5 -20.5z" />
    <glyph glyph-name="aeacute" unicode="&#x1fd;" horiz-adv-x="879" 
d="M412 522l67 158h52l-74 -158h-45zM220 -10q-45 0 -82.5 14t-60 44.5t-22.5 77.5q0 63 40 102.5t136 39.5h177v33q0 65 -31.5 100.5t-114.5 35.5q-42 0 -80.5 -7t-72.5 -19v47q31 12 72.5 19t88.5 7q134 0 169 -91q49 91 186 91q68 0 112 -25.5t65.5 -68.5t21.5 -96v-86
h-361q3 -94 48 -133.5t153 -39.5q65 0 129 25v-45q-62 -25 -139 -25q-84 0 -136.5 25t-78.5 79q-27 -46 -80.5 -75t-138.5 -29zM463 251h310v45q0 66 -35 104t-112 38q-94 0 -128.5 -46t-34.5 -141zM234 36q139 0 174 100v88h-175q-70 0 -97 -25t-27 -73q0 -49 33.5 -69.5
t91.5 -20.5z" />
    <glyph glyph-name="b" unicode="b" horiz-adv-x="564" 
d="M297 -10q-55 0 -95.5 15.5t-75.5 47.5l-5 -53h-46v674h55v-240q36 26 77 38t90 12q100 0 156 -57t56 -186q0 -130 -56 -190.5t-156 -60.5zM284 35q92 0 131.5 52.5t39.5 153.5q0 106 -42.5 151.5t-130.5 45.5q-49 0 -86.5 -14.5t-65.5 -37.5v-287q60 -64 154 -64z" />
    <glyph glyph-name="c" unicode="c" horiz-adv-x="450" 
d="M290 -10q-123 0 -179 65t-56 182q0 125 65.5 186t177.5 61q46 0 74 -6.5t55 -19.5v-45q-53 25 -120 25q-94 0 -146 -48t-52 -153q0 -103 44.5 -152.5t149.5 -49.5q32 0 64.5 7t60.5 19v-46q-28 -12 -62.5 -18.5t-75.5 -6.5z" />
    <glyph glyph-name="cacute" unicode="&#x107;" horiz-adv-x="483" 
d="M243 522l67 158h52l-74 -158h-45zM290 -10q-123 0 -179 65t-56 182q0 125 65.5 186t177.5 61q46 0 74 -6.5t55 -19.5v-45q-53 25 -120 25q-94 0 -146 -48t-52 -153q0 -103 44.5 -152.5t149.5 -49.5q32 0 64.5 7t60.5 19v-46q-28 -12 -62.5 -18.5t-75.5 -6.5z" />
    <glyph glyph-name="ccaron" unicode="&#x10d;" horiz-adv-x="483" 
d="M249 521l-105 135h50l79 -103l79 103h50l-105 -135h-48zM290 -10q-123 0 -179 65t-56 182q0 125 65.5 186t177.5 61q46 0 74 -6.5t55 -19.5v-45q-53 25 -120 25q-94 0 -146 -48t-52 -153q0 -103 44.5 -152.5t149.5 -49.5q32 0 64.5 7t60.5 19v-46q-28 -12 -62.5 -18.5
t-75.5 -6.5z" />
    <glyph glyph-name="ccedilla" unicode="&#xe7;" horiz-adv-x="483" 
d="M254 -240q-16 0 -35.5 2.5t-30.5 5.5v37q29 -8 63 -8q50 0 74.5 14t24.5 50q0 32 -22.5 43.5t-69.5 11.5h-33l25 76q-102 10 -148.5 74t-46.5 171q0 125 65.5 186t177.5 61q46 0 74 -6.5t55 -19.5v-45q-53 25 -120 25q-94 0 -146 -48t-52 -153q0 -103 44.5 -152.5
t149.5 -49.5q32 0 64.5 7t60.5 19v-46q-28 -12 -62 -18.5t-73 -6.5l-14 -41q114 0 114 -88q0 -49 -32.5 -75t-106.5 -26z" />
    <glyph glyph-name="ccircumflex" unicode="&#x109;" horiz-adv-x="483" 
d="M146 521l105 135h48l105 -135h-50l-79 103l-79 -103h-50zM290 -10q-123 0 -179 65t-56 182q0 125 65.5 186t177.5 61q46 0 74 -6.5t55 -19.5v-45q-53 25 -120 25q-94 0 -146 -48t-52 -153q0 -103 44.5 -152.5t149.5 -49.5q32 0 64.5 7t60.5 19v-46q-28 -12 -62.5 -18.5
t-75.5 -6.5z" />
    <glyph glyph-name="cdotaccent" unicode="&#x10b;" horiz-adv-x="483" 
d="M254 548v56h57v-56h-57zM290 -10q-123 0 -179 65t-56 182q0 125 65.5 186t177.5 61q46 0 74 -6.5t55 -19.5v-45q-53 25 -120 25q-94 0 -146 -48t-52 -153q0 -103 44.5 -152.5t149.5 -49.5q32 0 64.5 7t60.5 19v-46q-28 -12 -62.5 -18.5t-75.5 -6.5z" />
    <glyph glyph-name="d" unicode="d" horiz-adv-x="564" 
d="M267 -10q-62 0 -110 25t-75 78.5t-27 139.5q0 129 58.5 190t158.5 61q49 0 87.5 -11.5t74.5 -38.5v240h55v-674h-46l-5 53q-34 -32 -75 -47.5t-96 -15.5zM280 35q94 0 154 64v287q-28 24 -63 38t-84 14q-88 0 -133 -49t-45 -156q0 -101 42 -149.5t129 -48.5z" />
    <glyph glyph-name="eth" unicode="&#xf0;" horiz-adv-x="570" 
d="M280 -10q-112 0 -168.5 55.5t-56.5 149.5q0 99 56 152t162 53q41 0 89 -14.5t91 -46.5v56q0 47 -7.5 85.5t-24.5 66.5l-136 -60v39l112 49q-19 17 -47 26.5t-66 9.5q-43 0 -78 -5.5t-63 -15.5v44q28 8 65 14t81 6q51 0 90 -15t65 -43l96 42v-39l-74 -33q40 -65 40 -175
v-160q0 -127 -58 -184t-168 -57zM280 33q173 0 173 175v88q-36 26 -81 43.5t-90 17.5q-97 0 -137 -44t-40 -118q0 -75 43.5 -118.5t131.5 -43.5z" />
    <glyph glyph-name="dcaron" unicode="&#x10f;" horiz-adv-x="631" 
d="M267 -10q-62 0 -110 25t-75 78.5t-27 139.5q0 129 58.5 190t158.5 61q49 0 87.5 -11.5t74.5 -38.5v240h55v-674h-46l-5 53q-34 -32 -75 -47.5t-96 -15.5zM552 509l26 165h53l-38 -165h-41zM280 35q94 0 154 64v287q-28 24 -63 38t-84 14q-88 0 -133 -49t-45 -156
q0 -101 42 -149.5t129 -48.5z" />
    <glyph glyph-name="dcroat" unicode="&#x111;" horiz-adv-x="573" 
d="M267 -10q-62 0 -110 25t-75 78.5t-27 139.5q0 129 58.5 190t158.5 61q49 0 87.5 -11.5t74.5 -38.5v122h-176v45h176v81h55v-81h59v-45h-59v-556h-46l-5 53q-34 -32 -75 -47.5t-96 -15.5zM280 35q94 0 154 64v287q-28 24 -63 38t-84 14q-88 0 -133 -49t-45 -156
q0 -101 42 -149.5t129 -48.5z" />
    <glyph glyph-name="uni1E0D" unicode="&#x1e0d;" horiz-adv-x="564" 
d="M267 -10q-62 0 -110 25t-75 78.5t-27 139.5q0 129 58.5 190t158.5 61q49 0 87.5 -11.5t74.5 -38.5v240h55v-674h-46l-5 53q-34 -32 -75 -47.5t-96 -15.5zM280 35q94 0 154 64v287q-28 24 -63 38t-84 14q-88 0 -133 -49t-45 -156q0 -101 42 -149.5t129 -48.5zM273 -152v57
h59v-57h-59z" />
    <glyph glyph-name="uni1E0F" unicode="&#x1e0f;" horiz-adv-x="564" 
d="M267 -10q-62 0 -110 25t-75 78.5t-27 139.5q0 129 58.5 190t158.5 61q49 0 87.5 -11.5t74.5 -38.5v240h55v-674h-46l-5 53q-34 -32 -75 -47.5t-96 -15.5zM280 35q94 0 154 64v287q-28 24 -63 38t-84 14q-88 0 -133 -49t-45 -156q0 -101 42 -149.5t129 -48.5zM153 -123v42
h277v-42h-277z" />
    <glyph glyph-name="e" unicode="e" horiz-adv-x="535" 
d="M300 -10q-128 0 -186.5 60.5t-58.5 189.5q0 114 51.5 179t167.5 65q69 0 112 -25.5t63.5 -68.5t20.5 -96v-86h-360q4 -92 48 -132.5t153 -40.5q66 0 128 25v-45q-61 -25 -139 -25zM110 251h310v45q0 66 -34 104t-111 38q-94 0 -129.5 -48.5t-35.5 -138.5z" />
    <glyph glyph-name="eacute" unicode="&#xe9;" horiz-adv-x="525" 
d="M239 522l67 158h52l-74 -158h-45zM300 -10q-128 0 -186.5 60.5t-58.5 189.5q0 114 51.5 179t167.5 65q69 0 112 -25.5t63.5 -68.5t20.5 -96v-86h-360q4 -92 48 -132.5t153 -40.5q66 0 128 25v-45q-61 -25 -139 -25zM110 251h310v45q0 66 -34 104t-111 38
q-94 0 -129.5 -48.5t-35.5 -138.5z" />
    <glyph glyph-name="ebreve" unicode="&#x115;" horiz-adv-x="525" 
d="M272 521q-51 0 -81 31.5t-30 79.5h42q0 -34 19 -53t50 -19q32 0 51 19t19 53h42q0 -48 -30 -79.5t-82 -31.5zM300 -10q-128 0 -186.5 60.5t-58.5 189.5q0 114 51.5 179t167.5 65q69 0 112 -25.5t63.5 -68.5t20.5 -96v-86h-360q4 -92 48 -132.5t153 -40.5q66 0 128 25v-45
q-61 -25 -139 -25zM110 251h310v45q0 66 -34 104t-111 38q-94 0 -129.5 -48.5t-35.5 -138.5z" />
    <glyph glyph-name="ecaron" unicode="&#x11b;" horiz-adv-x="525" 
d="M254 521l-105 135h50l79 -103l79 103h50l-105 -135h-48zM300 -10q-128 0 -186.5 60.5t-58.5 189.5q0 114 51.5 179t167.5 65q69 0 112 -25.5t63.5 -68.5t20.5 -96v-86h-360q4 -92 48 -132.5t153 -40.5q66 0 128 25v-45q-61 -25 -139 -25zM110 251h310v45q0 66 -34 104
t-111 38q-94 0 -129.5 -48.5t-35.5 -138.5z" />
    <glyph glyph-name="ecircumflex" unicode="&#xea;" horiz-adv-x="525" 
d="M139 521l105 135h48l105 -135h-50l-79 103l-79 -103h-50zM300 -10q-128 0 -186.5 60.5t-58.5 189.5q0 114 51.5 179t167.5 65q69 0 112 -25.5t63.5 -68.5t20.5 -96v-86h-360q4 -92 48 -132.5t153 -40.5q66 0 128 25v-45q-61 -25 -139 -25zM110 251h310v45q0 66 -34 104
t-111 38q-94 0 -129.5 -48.5t-35.5 -138.5z" />
    <glyph glyph-name="uni1EBF" unicode="&#x1ebf;" horiz-adv-x="525" 
d="M340 627l60 117h47l-66 -117h-41zM144 521l103 110h48l103 -110h-49l-78 85l-78 -85h-49zM300 -10q-128 0 -186.5 60.5t-58.5 189.5q0 114 51.5 179t167.5 65q69 0 112 -25.5t63.5 -68.5t20.5 -96v-86h-360q4 -92 48 -132.5t153 -40.5q66 0 128 25v-45q-61 -25 -139 -25z
M110 251h310v45q0 66 -34 104t-111 38q-94 0 -129.5 -48.5t-35.5 -138.5z" />
    <glyph glyph-name="uni1EC7" unicode="&#x1ec7;" horiz-adv-x="525" 
d="M145 521l105 135h48l105 -135h-50l-79 103l-79 -103h-50zM300 -10q-128 0 -186.5 60.5t-58.5 189.5q0 114 51.5 179t167.5 65q69 0 112 -25.5t63.5 -68.5t20.5 -96v-86h-360q4 -92 48 -132.5t153 -40.5q66 0 128 25v-45q-61 -25 -139 -25zM110 251h310v45q0 66 -34 104
t-111 38q-94 0 -129.5 -48.5t-35.5 -138.5zM245 -152v57h59v-57h-59z" />
    <glyph glyph-name="uni1EC1" unicode="&#x1ec1;" horiz-adv-x="525" 
d="M172 644l-66 117h47l59 -117h-40zM155 538l103 110h48l103 -110h-50l-77 85l-78 -85h-49zM300 -10q-128 0 -186.5 60.5t-58.5 189.5q0 114 51.5 179t167.5 65q69 0 112 -25.5t63.5 -68.5t20.5 -96v-86h-360q4 -92 48 -132.5t153 -40.5q66 0 128 25v-45q-61 -25 -139 -25z
M110 251h310v45q0 66 -34 104t-111 38q-94 0 -129.5 -48.5t-35.5 -138.5z" />
    <glyph glyph-name="uni1EC3" unicode="&#x1ec3;" horiz-adv-x="525" 
d="M346 606v59q53 3 68 14t15 32q0 41 -53 41q-18 0 -32 -3.5t-27 -9.5v34q13 5 29.5 8.5t36.5 3.5q41 0 64.5 -18.5t23.5 -53.5q0 -31 -19 -48.5t-61 -22.5v-36h-45zM142 521l103 110h48l103 -110h-49l-78 85l-77 -85h-50zM300 -10q-128 0 -186.5 60.5t-58.5 189.5
q0 114 51.5 179t167.5 65q69 0 112 -25.5t63.5 -68.5t20.5 -96v-86h-360q4 -92 48 -132.5t153 -40.5q66 0 128 25v-45q-61 -25 -139 -25zM110 251h310v45q0 66 -34 104t-111 38q-94 0 -129.5 -48.5t-35.5 -138.5z" />
    <glyph glyph-name="uni1EC5" unicode="&#x1ec5;" horiz-adv-x="525" 
d="M339 639q-23 0 -43.5 8.5t-39.5 16.5t-38 8q-22 0 -40 -6.5t-35 -25.5v44q12 12 32 19t41 7q25 0 44.5 -8t37.5 -16.5t40 -8.5t39.5 7t32.5 25v-44q-23 -26 -71 -26zM147 521l103 110h48l103 -110h-49l-78 85l-77 -85h-50zM300 -10q-128 0 -186.5 60.5t-58.5 189.5
q0 114 51.5 179t167.5 65q69 0 112 -25.5t63.5 -68.5t20.5 -96v-86h-360q4 -92 48 -132.5t153 -40.5q66 0 128 25v-45q-61 -25 -139 -25zM110 251h310v45q0 66 -34 104t-111 38q-94 0 -129.5 -48.5t-35.5 -138.5z" />
    <glyph glyph-name="edieresis" unicode="&#xeb;" horiz-adv-x="525" 
d="M155 548v55h57v-55h-57zM322 548v55h56v-55h-56zM300 -10q-128 0 -186.5 60.5t-58.5 189.5q0 114 51.5 179t167.5 65q69 0 112 -25.5t63.5 -68.5t20.5 -96v-86h-360q4 -92 48 -132.5t153 -40.5q66 0 128 25v-45q-61 -25 -139 -25zM110 251h310v45q0 66 -34 104t-111 38
q-94 0 -129.5 -48.5t-35.5 -138.5z" />
    <glyph glyph-name="edotaccent" unicode="&#x117;" horiz-adv-x="525" 
d="M242 548v56h57v-56h-57zM300 -10q-128 0 -186.5 60.5t-58.5 189.5q0 114 51.5 179t167.5 65q69 0 112 -25.5t63.5 -68.5t20.5 -96v-86h-360q4 -92 48 -132.5t153 -40.5q66 0 128 25v-45q-61 -25 -139 -25zM110 251h310v45q0 66 -34 104t-111 38q-94 0 -129.5 -48.5
t-35.5 -138.5z" />
    <glyph glyph-name="uni1EB9" unicode="&#x1eb9;" horiz-adv-x="525" 
d="M300 -10q-128 0 -186.5 60.5t-58.5 189.5q0 114 51.5 179t167.5 65q69 0 112 -25.5t63.5 -68.5t20.5 -96v-86h-360q4 -92 48 -132.5t153 -40.5q66 0 128 25v-45q-61 -25 -139 -25zM110 251h310v45q0 66 -34 104t-111 38q-94 0 -129.5 -48.5t-35.5 -138.5zM239 -152v57h59
v-57h-59z" />
    <glyph glyph-name="egrave" unicode="&#xe8;" horiz-adv-x="525" 
d="M247 522l-74 158h52l67 -158h-45zM300 -10q-128 0 -186.5 60.5t-58.5 189.5q0 114 51.5 179t167.5 65q69 0 112 -25.5t63.5 -68.5t20.5 -96v-86h-360q4 -92 48 -132.5t153 -40.5q66 0 128 25v-45q-61 -25 -139 -25zM110 251h310v45q0 66 -34 104t-111 38
q-94 0 -129.5 -48.5t-35.5 -138.5z" />
    <glyph glyph-name="uni1EBB" unicode="&#x1ebb;" horiz-adv-x="525" 
d="M249 522v79q60 3 77 17t17 42q0 27 -19.5 40t-63.5 13q-16 0 -35 -3.5t-32 -8.5v38q14 5 36.5 8.5t40.5 3.5q57 0 86.5 -23t29.5 -65q0 -40 -19.5 -62t-70.5 -27v-52h-47zM300 -10q-128 0 -186.5 60.5t-58.5 189.5q0 114 51.5 179t167.5 65q69 0 112 -25.5t63.5 -68.5
t20.5 -96v-86h-360q4 -92 48 -132.5t153 -40.5q66 0 128 25v-45q-61 -25 -139 -25zM110 251h310v45q0 66 -34 104t-111 38q-94 0 -129.5 -48.5t-35.5 -138.5z" />
    <glyph glyph-name="emacron" unicode="&#x113;" horiz-adv-x="525" 
d="M132 553v42h277v-42h-277zM300 -10q-128 0 -186.5 60.5t-58.5 189.5q0 114 51.5 179t167.5 65q69 0 112 -25.5t63.5 -68.5t20.5 -96v-86h-360q4 -92 48 -132.5t153 -40.5q66 0 128 25v-45q-61 -25 -139 -25zM110 251h310v45q0 66 -34 104t-111 38q-94 0 -129.5 -48.5
t-35.5 -138.5z" />
    <glyph glyph-name="eogonek" unicode="&#x119;" horiz-adv-x="525" 
d="M300 -10q-128 0 -186.5 60.5t-58.5 189.5q0 114 51.5 179t167.5 65q69 0 112 -25.5t63.5 -68.5t20.5 -96v-86h-360q4 -92 48 -132.5t153 -40.5q66 0 128 25v-45q-22 -9 -49 -15q-38 -28 -56 -61t-18 -67q0 -28 12.5 -39.5t40.5 -11.5q13 0 27 3t23 8v-41q-11 -6 -28 -8.5
t-31 -2.5q-38 0 -64.5 19.5t-26.5 66.5q0 37 18 70t45 55q-16 -1 -32 -1zM110 251h310v45q0 66 -34 104t-111 38q-94 0 -129.5 -48.5t-35.5 -138.5z" />
    <glyph glyph-name="uni1EBD" unicode="&#x1ebd;" horiz-adv-x="525" 
d="M340 547q-24 0 -47 9.5t-44.5 18.5t-41.5 9q-22 0 -42 -7.5t-37 -27.5v47q12 14 34 21.5t44 7.5q26 0 47.5 -9t41.5 -18.5t43 -9.5q48 0 73 35v-47q-21 -29 -71 -29zM300 -10q-128 0 -186.5 60.5t-58.5 189.5q0 114 51.5 179t167.5 65q69 0 112 -25.5t63.5 -68.5
t20.5 -96v-86h-360q4 -92 48 -132.5t153 -40.5q66 0 128 25v-45q-61 -25 -139 -25zM110 251h310v45q0 66 -34 104t-111 38q-94 0 -129.5 -48.5t-35.5 -138.5z" />
    <glyph glyph-name="uni0259" unicode="&#x259;" horiz-adv-x="525" 
d="M251 -10q-68 0 -111.5 25.5t-64 68.5t-20.5 96v85h360q-2 62 -22 100t-63 55.5t-116 17.5q-32 0 -65 -6t-63 -19v45q29 13 65.5 19.5t73.5 6.5q128 0 186.5 -61t58.5 -189q0 -114 -51.5 -179t-167.5 -65zM250 35q94 0 129.5 49t35.5 139h-310v-46q0 -66 34.5 -104
t110.5 -38z" />
    <glyph glyph-name="f" unicode="f" horiz-adv-x="344" 
d="M108 0v428h-73v46h73v80q0 64 35.5 100t103.5 36q23 0 42 -3.5t35 -9.5v-44q-15 5 -30.5 8t-32.5 3q-55 0 -76.5 -21t-21.5 -68v-81h132l-3 -46h-129v-428h-55z" />
    <glyph glyph-name="g" unicode="g" horiz-adv-x="542" 
d="M255 -176q-53 0 -101 5.5t-83 18.5v47q41 -13 88.5 -19.5t93.5 -6.5q78 0 119 12t41 57q0 34 -21 47.5t-78 13.5h-129q-66 0 -97 21t-31 62q0 29 21 54t61 35q-45 18 -63.5 56t-18.5 87q0 89 49 129.5t152 40.5q21 0 42.5 -3.5t34.5 -6.5h167l-2 -41h-92q26 -22 37.5 -53
t11.5 -66q0 -81 -45.5 -123.5t-143.5 -42.5q-16 0 -31 1.5t-33 4.5q-37 -4 -65 -20.5t-28 -45.5q0 -22 17.5 -32t64.5 -10h133q142 0 142 -105q0 -70 -56 -93.5t-157 -23.5zM258 191q82 0 113.5 28t31.5 95t-33.5 97t-111.5 30t-112 -29t-34 -98q0 -64 32.5 -93.5
t113.5 -29.5z" />
    <glyph glyph-name="gbreve" unicode="&#x11f;" horiz-adv-x="542" 
d="M273 521q-51 0 -81 31.5t-30 79.5h42q0 -34 19 -53t50 -19q32 0 51 19t19 53h42q0 -48 -30 -79.5t-82 -31.5zM255 -176q-53 0 -101 5.5t-83 18.5v47q41 -13 88.5 -19.5t93.5 -6.5q78 0 119 12t41 57q0 34 -21 47.5t-78 13.5h-129q-66 0 -97 21t-31 62q0 29 21 54t61 35
q-45 18 -63.5 56t-18.5 87q0 89 49 129.5t152 40.5q21 0 42.5 -3.5t34.5 -6.5h167l-2 -41h-92q26 -22 37.5 -53t11.5 -66q0 -81 -45.5 -123.5t-143.5 -42.5q-16 0 -31 1.5t-33 4.5q-37 -4 -65 -20.5t-28 -45.5q0 -22 17.5 -32t64.5 -10h133q142 0 142 -105q0 -70 -56 -93.5
t-157 -23.5zM258 191q82 0 113.5 28t31.5 95t-33.5 97t-111.5 30t-112 -29t-34 -98q0 -64 32.5 -93.5t113.5 -29.5z" />
    <glyph glyph-name="gcaron" unicode="&#x1e7;" horiz-adv-x="542" 
d="M261 521l-105 135h50l79 -103l79 103h50l-105 -135h-48zM255 -176q-53 0 -101 5.5t-83 18.5v47q41 -13 88.5 -19.5t93.5 -6.5q78 0 119 12t41 57q0 34 -21 47.5t-78 13.5h-129q-66 0 -97 21t-31 62q0 29 21 54t61 35q-45 18 -63.5 56t-18.5 87q0 89 49 129.5t152 40.5
q21 0 42.5 -3.5t34.5 -6.5h167l-2 -41h-92q26 -22 37.5 -53t11.5 -66q0 -81 -45.5 -123.5t-143.5 -42.5q-16 0 -31 1.5t-33 4.5q-37 -4 -65 -20.5t-28 -45.5q0 -22 17.5 -32t64.5 -10h133q142 0 142 -105q0 -70 -56 -93.5t-157 -23.5zM258 191q82 0 113.5 28t31.5 95
t-33.5 97t-111.5 30t-112 -29t-34 -98q0 -64 32.5 -93.5t113.5 -29.5z" />
    <glyph glyph-name="gcircumflex" unicode="&#x11d;" horiz-adv-x="542" 
d="M139 521l105 135h48l105 -135h-50l-79 103l-79 -103h-50zM255 -176q-53 0 -101 5.5t-83 18.5v47q41 -13 88.5 -19.5t93.5 -6.5q78 0 119 12t41 57q0 34 -21 47.5t-78 13.5h-129q-66 0 -97 21t-31 62q0 29 21 54t61 35q-45 18 -63.5 56t-18.5 87q0 89 49 129.5t152 40.5
q21 0 42.5 -3.5t34.5 -6.5h167l-2 -41h-92q26 -22 37.5 -53t11.5 -66q0 -81 -45.5 -123.5t-143.5 -42.5q-16 0 -31 1.5t-33 4.5q-37 -4 -65 -20.5t-28 -45.5q0 -22 17.5 -32t64.5 -10h133q142 0 142 -105q0 -70 -56 -93.5t-157 -23.5zM258 191q82 0 113.5 28t31.5 95
t-33.5 97t-111.5 30t-112 -29t-34 -98q0 -64 32.5 -93.5t113.5 -29.5z" />
    <glyph glyph-name="uni0123" unicode="&#x123;" horiz-adv-x="542" 
d="M224 522l38 165h41l-26 -165h-53zM255 -176q-53 0 -101 5.5t-83 18.5v47q41 -13 88.5 -19.5t93.5 -6.5q78 0 119 12t41 57q0 34 -21 47.5t-78 13.5h-129q-66 0 -97 21t-31 62q0 29 21 54t61 35q-45 18 -63.5 56t-18.5 87q0 89 49 129.5t152 40.5q21 0 42.5 -3.5
t34.5 -6.5h167l-2 -41h-92q26 -22 37.5 -53t11.5 -66q0 -81 -45.5 -123.5t-143.5 -42.5q-16 0 -31 1.5t-33 4.5q-37 -4 -65 -20.5t-28 -45.5q0 -22 17.5 -32t64.5 -10h133q142 0 142 -105q0 -70 -56 -93.5t-157 -23.5zM258 191q82 0 113.5 28t31.5 95t-33.5 97t-111.5 30
t-112 -29t-34 -98q0 -64 32.5 -93.5t113.5 -29.5z" />
    <glyph glyph-name="gdotaccent" unicode="&#x121;" horiz-adv-x="542" 
d="M240 545v56h57v-56h-57zM255 -176q-53 0 -101 5.5t-83 18.5v47q41 -13 88.5 -19.5t93.5 -6.5q78 0 119 12t41 57q0 34 -21 47.5t-78 13.5h-129q-66 0 -97 21t-31 62q0 29 21 54t61 35q-45 18 -63.5 56t-18.5 87q0 89 49 129.5t152 40.5q21 0 42.5 -3.5t34.5 -6.5h167
l-2 -41h-92q26 -22 37.5 -53t11.5 -66q0 -81 -45.5 -123.5t-143.5 -42.5q-16 0 -31 1.5t-33 4.5q-37 -4 -65 -20.5t-28 -45.5q0 -22 17.5 -32t64.5 -10h133q142 0 142 -105q0 -70 -56 -93.5t-157 -23.5zM258 191q82 0 113.5 28t31.5 95t-33.5 97t-111.5 30t-112 -29t-34 -98
q0 -64 32.5 -93.5t113.5 -29.5z" />
    <glyph glyph-name="uni1E21" unicode="&#x1e21;" horiz-adv-x="542" 
d="M143 551v42h277v-42h-277zM255 -176q-53 0 -101 5.5t-83 18.5v47q41 -13 88.5 -19.5t93.5 -6.5q78 0 119 12t41 57q0 34 -21 47.5t-78 13.5h-129q-66 0 -97 21t-31 62q0 29 21 54t61 35q-45 18 -63.5 56t-18.5 87q0 89 49 129.5t152 40.5q21 0 42.5 -3.5t34.5 -6.5h167
l-2 -41h-92q26 -22 37.5 -53t11.5 -66q0 -81 -45.5 -123.5t-143.5 -42.5q-16 0 -31 1.5t-33 4.5q-37 -4 -65 -20.5t-28 -45.5q0 -22 17.5 -32t64.5 -10h133q142 0 142 -105q0 -70 -56 -93.5t-157 -23.5zM258 191q82 0 113.5 28t31.5 95t-33.5 97t-111.5 30t-112 -29t-34 -98
q0 -64 32.5 -93.5t113.5 -29.5z" />
    <glyph glyph-name="h" unicode="h" horiz-adv-x="559" 
d="M75 0v674h55v-257q35 30 80.5 48.5t109.5 18.5q86 0 127.5 -41t41.5 -130v-313h-55v312q0 70 -29.5 98t-105.5 28q-49 0 -93 -19.5t-76 -50.5v-368h-55z" />
    <glyph glyph-name="hbar" unicode="&#x127;" horiz-adv-x="581" 
d="M97 0v548h-62v45h62v81h55v-81h175v-45h-175v-131q35 30 81 48.5t110 18.5q86 0 127 -41t41 -130v-313h-55v312q0 70 -29.5 98t-105.5 28q-48 0 -92.5 -19.5t-76.5 -50.5v-368h-55z" />
    <glyph glyph-name="uni1E2B" unicode="&#x1e2b;" horiz-adv-x="559" 
d="M75 0v674h55v-257q35 30 80.5 48.5t109.5 18.5q86 0 127.5 -41t41.5 -130v-313h-55v312q0 70 -29.5 98t-105.5 28q-49 0 -93 -19.5t-76 -50.5v-368h-55zM285 -185q-58 0 -97 31.5t-39 98.5h42q0 -49 27 -70.5t67 -21.5q41 0 68 21.5t27 70.5h41q0 -67 -39 -98.5
t-97 -31.5z" />
    <glyph glyph-name="hcircumflex" unicode="&#x125;" horiz-adv-x="559" 
d="M78 699l105 135h48l105 -135h-50l-79 103l-79 -103h-50zM75 0v674h55v-257q35 30 80.5 48.5t109.5 18.5q86 0 127.5 -41t41.5 -130v-313h-55v312q0 70 -29.5 98t-105.5 28q-49 0 -93 -19.5t-76 -50.5v-368h-55z" />
    <glyph glyph-name="uni1E25" unicode="&#x1e25;" horiz-adv-x="559" 
d="M75 0v674h55v-257q35 30 80.5 48.5t109.5 18.5q86 0 127.5 -41t41.5 -130v-313h-55v312q0 70 -29.5 98t-105.5 28q-49 0 -93 -19.5t-76 -50.5v-368h-55zM250 -152v57h59v-57h-59z" />
    <glyph glyph-name="i" unicode="i" horiz-adv-x="270" 
d="M132 597v60h63v-60h-63zM139 0v428h-74l6 46h123v-474h-55z" />
    <glyph glyph-name="dotlessi" unicode="&#x131;" horiz-adv-x="270" 
d="M140 0v428h-75l4 46h126v-474h-55z" />
    <glyph glyph-name="iacute" unicode="&#xed;" horiz-adv-x="270" 
d="M133 522l67 158h52l-74 -158h-45zM140 0v428h-75l4 46h126v-474h-55z" />
    <glyph glyph-name="ibreve" unicode="&#x12d;" horiz-adv-x="270" 
d="M147 521q-51 0 -80.5 31t-29.5 79h41q0 -34 19 -53t50 -19q32 0 51.5 19t19.5 53h41q0 -48 -30 -79t-82 -31zM140 0v428h-75l4 46h126v-474h-55z" />
    <glyph glyph-name="uni01D0" unicode="&#x1d0;" horiz-adv-x="270" 
d="M127 521l-105 135h50l79 -103l79 103h50l-105 -135h-48zM140 0v428h-75l4 46h126v-474h-55z" />
    <glyph glyph-name="icircumflex" unicode="&#xee;" horiz-adv-x="270" 
d="M19 521l105 135h48l105 -135h-50l-79 103l-79 -103h-50zM140 0v428h-75l4 46h126v-474h-55z" />
    <glyph glyph-name="idieresis" unicode="&#xef;" horiz-adv-x="270" 
d="M31 548v55h57v-55h-57zM198 548v55h56v-55h-56zM140 0v428h-75l4 46h126v-474h-55z" />
    <glyph glyph-name="uni1ECB" unicode="&#x1ecb;" horiz-adv-x="270" 
d="M132 597v60h63v-60h-63zM139 0v428h-74l6 46h123v-474h-55zM138 -152v57h59v-57h-59z" />
    <glyph glyph-name="igrave" unicode="&#xec;" horiz-adv-x="270" 
d="M145 522l-74 158h52l67 -158h-45zM140 0v428h-75l4 46h126v-474h-55z" />
    <glyph glyph-name="uni1EC9" unicode="&#x1ec9;" horiz-adv-x="270" 
d="M121 522v79q60 3 77 17t17 42q0 27 -19.5 40t-63.5 13q-16 0 -35 -3.5t-32 -8.5v38q14 5 36.5 8.5t40.5 3.5q57 0 86.5 -23t29.5 -65q0 -40 -19.5 -62t-70.5 -27v-52h-47zM140 0v428h-75l4 46h126v-474h-55z" />
    <glyph glyph-name="ij" unicode="&#x133;" horiz-adv-x="469" 
d="M132 597v60h63v-60h-63zM331 597v60h63v-60h-63zM258 -234q-21 0 -41.5 3t-37.5 9v45q17 -5 32.5 -7.5t28.5 -2.5q56 0 77 21.5t21 66.5v527h-74l6 46h123v-576q0 -61 -35 -96.5t-100 -35.5zM139 0v428h-74l6 46h123v-474h-55z" />
    <glyph glyph-name="imacron" unicode="&#x12b;" horiz-adv-x="270" 
d="M1 556v42h267v-42h-267zM140 0v428h-75l4 46h126v-474h-55z" />
    <glyph glyph-name="iogonek" unicode="&#x12f;" horiz-adv-x="270" 
d="M132 597v60h63v-60h-63zM139 0v428h-74l6 46h123v-474h-8q-37 -28 -55.5 -61t-18.5 -67q0 -28 12.5 -39.5t40.5 -11.5q13 0 27 3t23 8v-41q-11 -6 -28 -8.5t-31 -2.5q-38 0 -64.5 19.5t-26.5 66.5q0 41 22 76.5t53 57.5h-1z" />
    <glyph glyph-name="itilde" unicode="&#x129;" horiz-adv-x="270" 
d="M210 524q-24 0 -47 9.5t-44.5 18.5t-41.5 9q-22 0 -42 -7.5t-37 -27.5v47q12 14 34 21.5t44 7.5q26 0 47.5 -9t41.5 -18.5t43 -9.5q48 0 73 35v-47q-21 -29 -71 -29zM140 0v428h-75l4 46h126v-474h-55z" />
    <glyph glyph-name="j" unicode="j" horiz-adv-x="270" 
d="M132 597v60h63v-60h-63zM59 -234q-21 0 -41.5 3t-37.5 9v45q17 -5 32.5 -7.5t28.5 -2.5q56 0 77 21.5t21 66.5v527h-74l6 46h123v-576q0 -61 -35 -96.5t-100 -35.5z" />
    <glyph glyph-name="uni0237" unicode="&#x237;" horiz-adv-x="269" 
d="M59 -234q-21 0 -41.5 3t-37.5 9v45q17 -5 32.5 -7.5t28.5 -2.5q56 0 77 21.5t21 66.5v527h-74l6 46h123v-576q0 -61 -35 -96.5t-100 -35.5z" />
    <glyph glyph-name="jcircumflex" unicode="&#x135;" horiz-adv-x="269" 
d="M16 521l105 135h48l105 -135h-50l-79 103l-79 -103h-50zM59 -234q-21 0 -41.5 3t-37.5 9v45q17 -5 32.5 -7.5t28.5 -2.5q56 0 77 21.5t21 66.5v527h-74l6 46h123v-576q0 -61 -35 -96.5t-100 -35.5z" />
    <glyph glyph-name="k" unicode="k" horiz-adv-x="486" 
d="M75 0v674h55v-428l244 228h66l-195 -185l206 -289h-58l-184 258l-79 -74v-184h-55z" />
    <glyph glyph-name="uni0137" unicode="&#x137;" horiz-adv-x="506" 
d="M75 0v674h55v-428l244 228h66l-195 -185l206 -289h-58l-184 258l-79 -74v-184h-55zM200 -202l26 165h53l-38 -165h-41z" />
    <glyph glyph-name="kgreenlandic" unicode="&#x138;" horiz-adv-x="506" 
d="M75 0v474h55v-249l244 249h66l-195 -200l206 -274h-58l-183 243l-80 -82v-161h-55z" />
    <glyph glyph-name="l" unicode="l" horiz-adv-x="246" 
d="M163 -10q-40 0 -64 22t-24 79v583h55v-581q0 -32 10 -44t32 -12t44 6v-46q-13 -4 -27 -5.5t-26 -1.5z" />
    <glyph glyph-name="lacute" unicode="&#x13a;" horiz-adv-x="246" 
d="M77 723l67 158h52l-74 -158h-45zM163 -10q-40 0 -64 22t-24 79v583h55v-581q0 -32 10 -44t32 -12t44 6v-46q-13 -4 -27 -5.5t-26 -1.5z" />
    <glyph glyph-name="lcaron" unicode="&#x13e;" horiz-adv-x="271" 
d="M163 -10q-40 0 -64 22t-24 79v583h55v-581q0 -32 10 -44t32 -12t44 6v-46q-13 -4 -27 -5.5t-26 -1.5zM192 509l26 165h53l-38 -165h-41z" />
    <glyph glyph-name="uni013C" unicode="&#x13c;" horiz-adv-x="246" 
d="M163 -10q-40 0 -64 22t-24 79v583h55v-581q0 -32 10 -44t32 -12t44 6v-46q-13 -4 -27 -5.5t-26 -1.5zM109 -202l26 165h53l-38 -165h-41z" />
    <glyph glyph-name="ldot" unicode="&#x140;" horiz-adv-x="270" 
d="M163 -10q-40 0 -64 22t-24 79v583h55v-581q0 -32 10 -44t32 -12t44 6v-46q-13 -4 -27 -5.5t-26 -1.5zM191 255v57h59v-57h-59z" />
    <glyph glyph-name="uni1E37" unicode="&#x1e37;" horiz-adv-x="246" 
d="M163 -10q-40 0 -64 22t-24 79v583h55v-581q0 -32 10 -44t32 -12t44 6v-46q-13 -4 -27 -5.5t-26 -1.5zM108 -152v57h59v-57h-59z" />
    <glyph glyph-name="uni1E39" unicode="&#x1e39;" horiz-adv-x="246" 
d="M-35 720v42h277v-42h-277zM163 -10q-40 0 -64 22t-24 79v583h55v-581q0 -32 10 -44t32 -12t44 6v-46q-13 -4 -27 -5.5t-26 -1.5zM108 -152v57h59v-57h-59z" />
    <glyph glyph-name="uni1E3B" unicode="&#x1e3b;" horiz-adv-x="246" 
d="M163 -10q-40 0 -64 22t-24 79v583h55v-581q0 -32 10 -44t32 -12t44 6v-46q-13 -4 -27 -5.5t-26 -1.5zM-14 -117v42h277v-42h-277z" />
    <glyph glyph-name="lslash" unicode="&#x142;" horiz-adv-x="246" 
d="M163 -10q-40 0 -64 22t-24 79v205l-108 -47v48l108 47v330h55v-306l122 53v-48l-122 -53v-227q0 -32 10 -44t32 -12t44 6v-46q-13 -4 -27 -5.5t-26 -1.5z" />
    <glyph glyph-name="m" unicode="m" horiz-adv-x="850" 
d="M75 0v474h48l5 -58q39 32 83.5 50t93.5 18q55 0 85 -18t44 -50q34 29 79 48.5t108 19.5q80 0 119.5 -40.5t39.5 -126.5v-317h-54v312q0 71 -30.5 98.5t-95.5 27.5q-45 0 -85 -15.5t-68 -45.5q3 -14 5 -32.5t2 -34.5v-310h-53v309q0 68 -23 98.5t-89 30.5q-44 0 -86 -20
t-74 -49v-369h-54z" />
    <glyph glyph-name="uni1E43" unicode="&#x1e43;" horiz-adv-x="850" 
d="M75 0v474h48l5 -58q39 32 83.5 50t93.5 18q55 0 85 -18t44 -50q34 29 79 48.5t108 19.5q80 0 119.5 -40.5t39.5 -126.5v-317h-54v312q0 71 -30.5 98.5t-95.5 27.5q-45 0 -85 -15.5t-68 -45.5q3 -14 5 -32.5t2 -34.5v-310h-53v309q0 68 -23 98.5t-89 30.5q-44 0 -86 -20
t-74 -49v-369h-54zM397 -152v57h59v-57h-59z" />
    <glyph glyph-name="n" unicode="n" horiz-adv-x="559" 
d="M75 0v474h48l5 -58q36 30 82 49t110 19q89 0 129 -41t40 -130v-313h-55v312q0 70 -28.5 98t-108.5 28q-50 0 -92.5 -19t-74.5 -50v-369h-55z" />
    <glyph glyph-name="nacute" unicode="&#x144;" horiz-adv-x="559" 
d="M254 522l67 158h52l-74 -158h-45zM75 0v474h48l5 -58q36 30 82 49t110 19q89 0 129 -41t40 -130v-313h-55v312q0 70 -28.5 98t-108.5 28q-50 0 -92.5 -19t-74.5 -50v-369h-55z" />
    <glyph glyph-name="napostrophe" unicode="&#x149;" horiz-adv-x="625" 
d="M32 485l26 165h53l-38 -165h-41zM141 0v474h48l5 -58q36 30 82 49t110 19q89 0 129 -41t40 -130v-313h-55v312q0 70 -28.5 98t-108.5 28q-50 0 -92.5 -19t-74.5 -50v-369h-55z" />
    <glyph glyph-name="ncaron" unicode="&#x148;" horiz-adv-x="559" 
d="M253 521l-105 135h50l79 -103l79 103h50l-105 -135h-48zM75 0v474h48l5 -58q36 30 82 49t110 19q89 0 129 -41t40 -130v-313h-55v312q0 70 -28.5 98t-108.5 28q-50 0 -92.5 -19t-74.5 -50v-369h-55z" />
    <glyph glyph-name="uni0146" unicode="&#x146;" horiz-adv-x="559" 
d="M75 0v474h48l5 -58q36 30 82 49t110 19q89 0 129 -41t40 -130v-313h-55v312q0 70 -28.5 98t-108.5 28q-50 0 -92.5 -19t-74.5 -50v-369h-55zM239 -202l26 165h53l-38 -165h-41z" />
    <glyph glyph-name="uni1E45" unicode="&#x1e45;" horiz-adv-x="559" 
d="M256 548v56h57v-56h-57zM75 0v474h48l5 -58q36 30 82 49t110 19q89 0 129 -41t40 -130v-313h-55v312q0 70 -28.5 98t-108.5 28q-50 0 -92.5 -19t-74.5 -50v-369h-55z" />
    <glyph glyph-name="uni1E47" unicode="&#x1e47;" horiz-adv-x="559" 
d="M75 0v474h48l5 -58q36 30 82 49t110 19q89 0 129 -41t40 -130v-313h-55v312q0 70 -28.5 98t-108.5 28q-50 0 -92.5 -19t-74.5 -50v-369h-55zM259 -152v57h59v-57h-59z" />
    <glyph glyph-name="eng" unicode="&#x14b;" horiz-adv-x="559" 
d="M354 -234q-22 0 -42.5 3t-37.5 9v45q17 -5 33 -7.5t28 -2.5q56 0 77.5 21.5t21.5 66.5v411q0 70 -28.5 98t-108.5 28q-50 0 -92.5 -19t-74.5 -50v-369h-55v474h48l5 -58q36 30 82 49t110 19q89 0 129 -41t40 -130v-415q0 -61 -35.5 -96.5t-99.5 -35.5z" />
    <glyph glyph-name="uni1E49" unicode="&#x1e49;" horiz-adv-x="559" 
d="M75 0v474h48l5 -58q36 30 82 49t110 19q89 0 129 -41t40 -130v-313h-55v312q0 70 -28.5 98t-108.5 28q-50 0 -92.5 -19t-74.5 -50v-369h-55zM146 -116v42h277v-42h-277z" />
    <glyph glyph-name="ntilde" unicode="&#xf1;" horiz-adv-x="559" 
d="M358 547q-24 0 -47 9.5t-44.5 18.5t-41.5 9q-22 0 -42 -7.5t-37 -27.5v47q12 14 34 21.5t44 7.5q26 0 47.5 -9t41.5 -18.5t43 -9.5q48 0 73 35v-47q-21 -29 -71 -29zM75 0v474h48l5 -58q36 30 82 49t110 19q89 0 129 -41t40 -130v-313h-55v312q0 70 -28.5 98t-108.5 28
q-50 0 -92.5 -19t-74.5 -50v-369h-55z" />
    <glyph glyph-name="o" unicode="o" horiz-adv-x="563" 
d="M281 -10q-120 0 -173 63t-53 184q0 120 54 183.5t172 63.5q119 0 173 -63.5t54 -183.5q0 -121 -53.5 -184t-173.5 -63zM281 37q95 0 133.5 49t38.5 151q0 101 -39 150t-133 49t-133 -49t-39 -150q0 -102 39 -151t133 -49z" />
    <glyph glyph-name="oacute" unicode="&#xf3;" horiz-adv-x="563" 
d="M261 522l67 158h52l-74 -158h-45zM281 -10q-120 0 -173 63t-53 184q0 120 54 183.5t172 63.5q119 0 173 -63.5t54 -183.5q0 -121 -53.5 -184t-173.5 -63zM281 37q95 0 133.5 49t38.5 151q0 101 -39 150t-133 49t-133 -49t-39 -150q0 -102 39 -151t133 -49z" />
    <glyph glyph-name="obreve" unicode="&#x14f;" horiz-adv-x="563" 
d="M281 521q-51 0 -81 31.5t-30 79.5h42q0 -34 19 -53t50 -19q32 0 51 19t19 53h42q0 -48 -30 -79.5t-82 -31.5zM281 -10q-120 0 -173 63t-53 184q0 120 54 183.5t172 63.5q119 0 173 -63.5t54 -183.5q0 -121 -53.5 -184t-173.5 -63zM281 37q95 0 133.5 49t38.5 151
q0 101 -39 150t-133 49t-133 -49t-39 -150q0 -102 39 -151t133 -49z" />
    <glyph glyph-name="uni01D2" unicode="&#x1d2;" horiz-adv-x="563" 
d="M257 521l-105 135h50l79 -103l79 103h50l-105 -135h-48zM281 -10q-120 0 -173 63t-53 184q0 120 54 183.5t172 63.5q119 0 173 -63.5t54 -183.5q0 -121 -53.5 -184t-173.5 -63zM281 37q95 0 133.5 49t38.5 151q0 101 -39 150t-133 49t-133 -49t-39 -150q0 -102 39 -151
t133 -49z" />
    <glyph glyph-name="ocircumflex" unicode="&#xf4;" horiz-adv-x="563" 
d="M152 521l105 135h48l105 -135h-50l-79 103l-79 -103h-50zM281 -10q-120 0 -173 63t-53 184q0 120 54 183.5t172 63.5q119 0 173 -63.5t54 -183.5q0 -121 -53.5 -184t-173.5 -63zM281 37q95 0 133.5 49t38.5 151q0 101 -39 150t-133 49t-133 -49t-39 -150q0 -102 39 -151
t133 -49z" />
    <glyph glyph-name="uni1ED1" unicode="&#x1ed1;" horiz-adv-x="563" 
d="M357 627l60 117h47l-66 -117h-41zM161 521l103 110h48l103 -110h-49l-78 85l-78 -85h-49zM281 -10q-120 0 -173 63t-53 184q0 120 54 183.5t172 63.5q119 0 173 -63.5t54 -183.5q0 -121 -53.5 -184t-173.5 -63zM281 37q95 0 133.5 49t38.5 151q0 101 -39 150t-133 49
t-133 -49t-39 -150q0 -102 39 -151t133 -49z" />
    <glyph glyph-name="uni1ED9" unicode="&#x1ed9;" horiz-adv-x="563" 
d="M152 521l105 135h48l105 -135h-50l-79 103l-79 -103h-50zM281 -10q-120 0 -173 63t-53 184q0 120 54 183.5t172 63.5q119 0 173 -63.5t54 -183.5q0 -121 -53.5 -184t-173.5 -63zM281 37q95 0 133.5 49t38.5 151q0 101 -39 150t-133 49t-133 -49t-39 -150q0 -102 39 -151
t133 -49zM252 -152v57h59v-57h-59z" />
    <glyph glyph-name="uni1ED3" unicode="&#x1ed3;" horiz-adv-x="563" 
d="M170 627l-66 117h47l59 -117h-40zM153 521l103 110h48l103 -110h-50l-77 85l-78 -85h-49zM281 -10q-120 0 -173 63t-53 184q0 120 54 183.5t172 63.5q119 0 173 -63.5t54 -183.5q0 -121 -53.5 -184t-173.5 -63zM281 37q95 0 133.5 49t38.5 151q0 101 -39 150t-133 49
t-133 -49t-39 -150q0 -102 39 -151t133 -49z" />
    <glyph glyph-name="uni1ED5" unicode="&#x1ed5;" horiz-adv-x="563" 
d="M371 606v59q53 3 68 14t15 32q0 41 -53 41q-18 0 -32 -3.5t-27 -9.5v34q13 5 29.5 8.5t36.5 3.5q41 0 64.5 -18.5t23.5 -53.5q0 -31 -19 -48.5t-61 -22.5v-36h-45zM167 521l103 110h48l103 -110h-49l-78 85l-77 -85h-50zM281 -10q-120 0 -173 63t-53 184q0 120 54 183.5
t172 63.5q119 0 173 -63.5t54 -183.5q0 -121 -53.5 -184t-173.5 -63zM281 37q95 0 133.5 49t38.5 151q0 101 -39 150t-133 49t-133 -49t-39 -150q0 -102 39 -151t133 -49z" />
    <glyph glyph-name="uni1ED7" unicode="&#x1ed7;" horiz-adv-x="563" 
d="M343 639q-23 0 -43.5 8.5t-39.5 16.5t-38 8q-22 0 -40 -6.5t-35 -25.5v44q12 12 32 19t41 7q25 0 44.5 -8t37.5 -16.5t40 -8.5t39.5 7t32.5 25v-44q-23 -26 -71 -26zM167 521l103 110h48l103 -110h-49l-78 85l-77 -85h-50zM281 -10q-120 0 -173 63t-53 184
q0 120 54 183.5t172 63.5q119 0 173 -63.5t54 -183.5q0 -121 -53.5 -184t-173.5 -63zM281 37q95 0 133.5 49t38.5 151q0 101 -39 150t-133 49t-133 -49t-39 -150q0 -102 39 -151t133 -49z" />
    <glyph glyph-name="odieresis" unicode="&#xf6;" horiz-adv-x="563" 
d="M170 548v55h57v-55h-57zM337 548v55h56v-55h-56zM281 -10q-120 0 -173 63t-53 184q0 120 54 183.5t172 63.5q119 0 173 -63.5t54 -183.5q0 -121 -53.5 -184t-173.5 -63zM281 37q95 0 133.5 49t38.5 151q0 101 -39 150t-133 49t-133 -49t-39 -150q0 -102 39 -151t133 -49z
" />
    <glyph glyph-name="uni1ECD" unicode="&#x1ecd;" horiz-adv-x="563" 
d="M281 -10q-120 0 -173 63t-53 184q0 120 54 183.5t172 63.5q119 0 173 -63.5t54 -183.5q0 -121 -53.5 -184t-173.5 -63zM281 37q95 0 133.5 49t38.5 151q0 101 -39 150t-133 49t-133 -49t-39 -150q0 -102 39 -151t133 -49zM252 -152v57h59v-57h-59z" />
    <glyph glyph-name="ograve" unicode="&#xf2;" horiz-adv-x="563" 
d="M266 522l-74 158h52l67 -158h-45zM281 -10q-120 0 -173 63t-53 184q0 120 54 183.5t172 63.5q119 0 173 -63.5t54 -183.5q0 -121 -53.5 -184t-173.5 -63zM281 37q95 0 133.5 49t38.5 151q0 101 -39 150t-133 49t-133 -49t-39 -150q0 -102 39 -151t133 -49z" />
    <glyph glyph-name="uni1ECF" unicode="&#x1ecf;" horiz-adv-x="563" 
d="M259 522v79q60 3 77 17t17 42q0 27 -19.5 40t-63.5 13q-16 0 -35 -3.5t-32 -8.5v38q14 5 36.5 8.5t40.5 3.5q57 0 86.5 -23t29.5 -65q0 -40 -19.5 -62t-70.5 -27v-52h-47zM281 -10q-120 0 -173 63t-53 184q0 120 54 183.5t172 63.5q119 0 173 -63.5t54 -183.5
q0 -121 -53.5 -184t-173.5 -63zM281 37q95 0 133.5 49t38.5 151q0 101 -39 150t-133 49t-133 -49t-39 -150q0 -102 39 -151t133 -49z" />
    <glyph glyph-name="ohorn" unicode="&#x1a1;" horiz-adv-x="639" 
d="M281 -10q-120 0 -173 63t-53 184q0 120 54 183.5t172 63.5q125 0 180 -73q59 1 82 28t23 97h48q0 -88 -33.5 -124.5t-95.5 -42.5q23 -55 23 -132q0 -121 -53.5 -184t-173.5 -63zM281 37q95 0 133.5 49t38.5 151q0 101 -39 150t-133 49t-133 -49t-39 -150q0 -102 39 -151
t133 -49z" />
    <glyph glyph-name="uni1EDB" unicode="&#x1edb;" horiz-adv-x="639" 
d="M269 522l67 158h52l-74 -158h-45zM281 -10q-120 0 -173 63t-53 184q0 120 54 183.5t172 63.5q125 0 180 -73q59 1 82 28t23 97h48q0 -88 -33.5 -124.5t-95.5 -42.5q23 -55 23 -132q0 -121 -53.5 -184t-173.5 -63zM281 37q95 0 133.5 49t38.5 151q0 101 -39 150t-133 49
t-133 -49t-39 -150q0 -102 39 -151t133 -49z" />
    <glyph glyph-name="uni1EE3" unicode="&#x1ee3;" horiz-adv-x="639" 
d="M281 -10q-120 0 -173 63t-53 184q0 120 54 183.5t172 63.5q125 0 180 -73q59 1 82 28t23 97h48q0 -88 -33.5 -124.5t-95.5 -42.5q23 -55 23 -132q0 -121 -53.5 -184t-173.5 -63zM281 37q95 0 133.5 49t38.5 151q0 101 -39 150t-133 49t-133 -49t-39 -150q0 -102 39 -151
t133 -49zM261 -152v57h59v-57h-59z" />
    <glyph glyph-name="uni1EDD" unicode="&#x1edd;" horiz-adv-x="639" 
d="M278 522l-74 158h52l67 -158h-45zM281 -10q-120 0 -173 63t-53 184q0 120 54 183.5t172 63.5q125 0 180 -73q59 1 82 28t23 97h48q0 -88 -33.5 -124.5t-95.5 -42.5q23 -55 23 -132q0 -121 -53.5 -184t-173.5 -63zM281 37q95 0 133.5 49t38.5 151q0 101 -39 150t-133 49
t-133 -49t-39 -150q0 -102 39 -151t133 -49z" />
    <glyph glyph-name="uni1EDF" unicode="&#x1edf;" horiz-adv-x="639" 
d="M256 522v79q60 3 77 17t17 42q0 27 -19.5 40t-63.5 13q-16 0 -35 -3.5t-32 -8.5v38q14 5 36.5 8.5t40.5 3.5q57 0 86.5 -23t29.5 -65q0 -40 -19.5 -62t-70.5 -27v-52h-47zM281 -10q-120 0 -173 63t-53 184q0 120 54 183.5t172 63.5q125 0 180 -73q59 1 82 28t23 97h48
q0 -88 -33.5 -124.5t-95.5 -42.5q23 -55 23 -132q0 -121 -53.5 -184t-173.5 -63zM281 37q95 0 133.5 49t38.5 151q0 101 -39 150t-133 49t-133 -49t-39 -150q0 -102 39 -151t133 -49z" />
    <glyph glyph-name="uni1EE1" unicode="&#x1ee1;" horiz-adv-x="639" 
d="M358 546q-24 0 -47 9.5t-44.5 18.5t-41.5 9q-22 0 -42 -7.5t-37 -27.5v47q12 14 34 21.5t44 7.5q26 0 47.5 -9t41.5 -18.5t43 -9.5q48 0 73 35v-47q-21 -29 -71 -29zM281 -10q-120 0 -173 63t-53 184q0 120 54 183.5t172 63.5q125 0 180 -73q59 1 82 28t23 97h48
q0 -88 -33.5 -124.5t-95.5 -42.5q23 -55 23 -132q0 -121 -53.5 -184t-173.5 -63zM281 37q95 0 133.5 49t38.5 151q0 101 -39 150t-133 49t-133 -49t-39 -150q0 -102 39 -151t133 -49z" />
    <glyph glyph-name="ohungarumlaut" unicode="&#x151;" horiz-adv-x="563" 
d="M166 521l67 141h54l-76 -141h-45zM365 521l67 141h54l-76 -141h-45zM281 -10q-120 0 -173 63t-53 184q0 120 54 183.5t172 63.5q119 0 173 -63.5t54 -183.5q0 -121 -53.5 -184t-173.5 -63zM281 37q95 0 133.5 49t38.5 151q0 101 -39 150t-133 49t-133 -49t-39 -150
q0 -102 39 -151t133 -49z" />
    <glyph glyph-name="omacron" unicode="&#x14d;" horiz-adv-x="563" 
d="M143 553v42h277v-42h-277zM281 -10q-120 0 -173 63t-53 184q0 120 54 183.5t172 63.5q119 0 173 -63.5t54 -183.5q0 -121 -53.5 -184t-173.5 -63zM281 37q95 0 133.5 49t38.5 151q0 101 -39 150t-133 49t-133 -49t-39 -150q0 -102 39 -151t133 -49z" />
    <glyph glyph-name="oslash" unicode="&#xf8;" horiz-adv-x="563" 
d="M158 -54l21 59q-65 24 -94.5 82.5t-29.5 149.5q0 120 54 183.5t172 63.5q39 0 68 -7l18 51h49l-23 -64q59 -26 87 -83.5t28 -143.5q0 -121 -53.5 -184t-173.5 -63q-16 0 -29.5 1t-27.5 3l-17 -48h-49zM196 51l136 380q-11 2 -24 3.5t-27 1.5q-94 0 -133 -49t-39 -150
q0 -75 20 -121t67 -65zM281 37q95 0 133.5 49t38.5 151q0 70 -18 114.5t-59 65.5l-135 -378q9 -1 19 -1.5t21 -0.5z" />
    <glyph glyph-name="oslashacute" unicode="&#x1ff;" horiz-adv-x="563" 
d="M250 522l67 158h52l-74 -158h-45zM158 -54l21 59q-65 24 -94.5 82.5t-29.5 149.5q0 120 54 183.5t172 63.5q39 0 68 -7l18 51h49l-23 -64q59 -26 87 -83.5t28 -143.5q0 -121 -53.5 -184t-173.5 -63q-16 0 -29.5 1t-27.5 3l-17 -48h-49zM196 51l136 380q-11 2 -24 3.5
t-27 1.5q-94 0 -133 -49t-39 -150q0 -75 20 -121t67 -65zM281 37q95 0 133.5 49t38.5 151q0 70 -18 114.5t-59 65.5l-135 -378q9 -1 19 -1.5t21 -0.5z" />
    <glyph glyph-name="otilde" unicode="&#xf5;" horiz-adv-x="563" 
d="M352 549q-24 0 -47 9.5t-44.5 18.5t-41.5 9q-22 0 -42 -7.5t-37 -27.5v47q12 14 34 21.5t44 7.5q26 0 47.5 -9t41.5 -18.5t43 -9.5q48 0 73 35v-47q-21 -29 -71 -29zM281 -10q-120 0 -173 63t-53 184q0 120 54 183.5t172 63.5q119 0 173 -63.5t54 -183.5
q0 -121 -53.5 -184t-173.5 -63zM281 37q95 0 133.5 49t38.5 151q0 101 -39 150t-133 49t-133 -49t-39 -150q0 -102 39 -151t133 -49z" />
    <glyph glyph-name="oe" unicode="&#x153;" horiz-adv-x="924" 
d="M281 -10q-120 0 -173 63t-53 184q0 120 54 183.5t172 63.5q77 0 126 -28t73 -82q23 53 70 81.5t123 28.5q68 0 111.5 -25.5t64 -68.5t20.5 -96v-86h-361q5 -92 49 -132.5t152 -40.5q65 0 129 25v-45q-62 -25 -139 -25q-86 0 -139 27t-79 83q-23 -53 -72 -81.5t-128 -28.5
zM508 251h310v45q0 66 -33.5 104t-110.5 38q-94 0 -130 -48.5t-36 -138.5zM281 37q95 0 133.5 49.5t38.5 152.5q0 101 -40 149t-132 48q-94 0 -133 -49t-39 -150q0 -102 39 -151t133 -49z" />
    <glyph glyph-name="p" unicode="p" horiz-adv-x="564" 
d="M75 -216v690h46l5 -54q35 33 75.5 48.5t95.5 15.5q100 0 156 -58.5t56 -187.5t-58 -188.5t-158 -59.5q-50 0 -89 12t-74 37v-255h-55zM279 35q89 0 132.5 48.5t43.5 154.5q0 101 -39.5 150.5t-131.5 49.5q-94 0 -154 -64v-286q28 -24 64 -38.5t85 -14.5z" />
    <glyph glyph-name="thorn" unicode="&#xfe;" horiz-adv-x="564" 
d="M75 -216v916h55v-272q68 56 167 56q100 0 156 -58.5t56 -187.5t-58 -188.5t-158 -59.5q-50 0 -89 12t-74 37v-255h-55zM279 35q89 0 132.5 48.5t43.5 154.5q0 101 -39.5 150.5t-131.5 49.5q-94 0 -154 -64v-286q28 -24 64 -38.5t85 -14.5z" />
    <glyph glyph-name="q" unicode="q" horiz-adv-x="555" 
d="M537 -242q-103 0 -103 116v165q-35 -25 -74 -37t-89 -12q-100 0 -158 59.5t-58 188.5t56 187.5t156 58.5q55 0 96 -15.5t75 -48.5l5 54h46v-598q0 -38 12 -54.5t50 -16.5q8 0 18.5 2t18.5 4v-46q-22 -7 -51 -7zM285 35q50 0 85.5 14.5t63.5 38.5v286q-60 64 -154 64
q-92 0 -131.5 -49.5t-39.5 -150.5q0 -106 44 -154.5t132 -48.5z" />
    <glyph glyph-name="r" unicode="r" horiz-adv-x="335" 
d="M75 0v474h48l6 -66q37 26 84.5 46t93.5 30v-45q-29 -7 -62.5 -19t-64 -26.5t-50.5 -29.5v-364h-55z" />
    <glyph glyph-name="racute" unicode="&#x155;" horiz-adv-x="342" 
d="M119 522l67 158h52l-74 -158h-45zM75 0v474h48l6 -66q37 26 84.5 46t93.5 30v-45q-29 -7 -62.5 -19t-64 -26.5t-50.5 -29.5v-364h-55z" />
    <glyph glyph-name="rcaron" unicode="&#x159;" horiz-adv-x="342" 
d="M155 521l-105 135h50l79 -103l79 103h50l-105 -135h-48zM75 0v474h48l6 -66q37 26 84.5 46t93.5 30v-45q-29 -7 -62.5 -19t-64 -26.5t-50.5 -29.5v-364h-55z" />
    <glyph glyph-name="uni0157" unicode="&#x157;" horiz-adv-x="342" 
d="M75 0v474h48l6 -66q37 26 84.5 46t93.5 30v-45q-29 -7 -62.5 -19t-64 -26.5t-50.5 -29.5v-364h-55zM48 -202l26 165h53l-38 -165h-41z" />
    <glyph glyph-name="uni1E5B" unicode="&#x1e5b;" horiz-adv-x="342" 
d="M75 0v474h48l6 -66q37 26 84.5 46t93.5 30v-45q-29 -7 -62.5 -19t-64 -26.5t-50.5 -29.5v-364h-55zM72 -152v57h59v-57h-59z" />
    <glyph glyph-name="uni1E5D" unicode="&#x1e5d;" horiz-adv-x="342" 
d="M23 551v42h277v-42h-277zM75 0v474h48l6 -66q37 26 84.5 46t93.5 30v-45q-29 -7 -62.5 -19t-64 -26.5t-50.5 -29.5v-364h-55zM72 -152v57h59v-57h-59z" />
    <glyph glyph-name="uni1E5F" unicode="&#x1e5f;" horiz-adv-x="342" 
d="M75 0v474h48l6 -66q37 26 84.5 46t93.5 30v-45q-29 -7 -62.5 -19t-64 -26.5t-50.5 -29.5v-364h-55zM-25 -116v42h277v-42h-277z" />
    <glyph glyph-name="s" unicode="s" horiz-adv-x="447" 
d="M214 -10q-42 0 -80.5 5.5t-65.5 14.5v49q33 -11 68 -16.5t71 -5.5q70 0 100 18.5t30 64.5q0 32 -14.5 48.5t-45.5 28.5t-79 28q-40 14 -72.5 27.5t-51.5 38t-19 68.5q0 62 41 93.5t133 31.5q36 0 68.5 -4.5t57.5 -12.5v-49q-58 18 -118 18q-71 0 -99.5 -17.5t-28.5 -58.5
q0 -28 12.5 -43.5t40 -26.5t71.5 -25q53 -17 88.5 -34t53 -42.5t17.5 -68.5q0 -70 -47.5 -100t-130.5 -30z" />
    <glyph glyph-name="sacute" unicode="&#x15b;" horiz-adv-x="447" 
d="M197 522l67 158h52l-74 -158h-45zM214 -10q-42 0 -80.5 5.5t-65.5 14.5v49q33 -11 68 -16.5t71 -5.5q70 0 100 18.5t30 64.5q0 32 -14.5 48.5t-45.5 28.5t-79 28q-40 14 -72.5 27.5t-51.5 38t-19 68.5q0 62 41 93.5t133 31.5q36 0 68.5 -4.5t57.5 -12.5v-49
q-58 18 -118 18q-71 0 -99.5 -17.5t-28.5 -58.5q0 -28 12.5 -43.5t40 -26.5t71.5 -25q53 -17 88.5 -34t53 -42.5t17.5 -68.5q0 -70 -47.5 -100t-130.5 -30z" />
    <glyph glyph-name="scaron" unicode="&#x161;" horiz-adv-x="447" 
d="M205 521l-105 135h50l79 -103l79 103h50l-105 -135h-48zM214 -10q-42 0 -80.5 5.5t-65.5 14.5v49q33 -11 68 -16.5t71 -5.5q70 0 100 18.5t30 64.5q0 32 -14.5 48.5t-45.5 28.5t-79 28q-40 14 -72.5 27.5t-51.5 38t-19 68.5q0 62 41 93.5t133 31.5q36 0 68.5 -4.5
t57.5 -12.5v-49q-58 18 -118 18q-71 0 -99.5 -17.5t-28.5 -58.5q0 -28 12.5 -43.5t40 -26.5t71.5 -25q53 -17 88.5 -34t53 -42.5t17.5 -68.5q0 -70 -47.5 -100t-130.5 -30z" />
    <glyph glyph-name="scedilla" unicode="&#x15f;" horiz-adv-x="447" 
d="M208 -240q-16 0 -35.5 2.5t-30.5 5.5v37q29 -8 63 -8q50 0 74.5 14t24.5 50q0 32 -22.5 43.5t-69.5 11.5h-33l25 74q-40 1 -75.5 6.5t-60.5 13.5v49q33 -11 68 -16.5t71 -5.5q70 0 100 18.5t30 64.5q0 32 -14.5 48.5t-45.5 28.5t-79 28q-40 14 -72.5 27.5t-51.5 38
t-19 68.5q0 62 41 93.5t133 31.5q36 0 68.5 -4.5t57.5 -12.5v-49q-58 18 -118 18q-71 0 -99.5 -17.5t-28.5 -58.5q0 -28 12.5 -43.5t40 -26.5t71.5 -25q53 -17 88.5 -34t53 -42.5t17.5 -68.5q0 -63 -38.5 -93t-106.5 -36l-14 -42q114 0 114 -88q0 -49 -32.5 -75t-106.5 -26z
" />
    <glyph glyph-name="scircumflex" unicode="&#x15d;" horiz-adv-x="447" 
d="M103 531l105 135h48l105 -135h-50l-79 103l-79 -103h-50zM214 -10q-42 0 -80.5 5.5t-65.5 14.5v49q33 -11 68 -16.5t71 -5.5q70 0 100 18.5t30 64.5q0 32 -14.5 48.5t-45.5 28.5t-79 28q-40 14 -72.5 27.5t-51.5 38t-19 68.5q0 62 41 93.5t133 31.5q36 0 68.5 -4.5
t57.5 -12.5v-49q-58 18 -118 18q-71 0 -99.5 -17.5t-28.5 -58.5q0 -28 12.5 -43.5t40 -26.5t71.5 -25q53 -17 88.5 -34t53 -42.5t17.5 -68.5q0 -70 -47.5 -100t-130.5 -30z" />
    <glyph glyph-name="uni0219" unicode="&#x219;" horiz-adv-x="447" 
d="M214 -10q-42 0 -80.5 5.5t-65.5 14.5v49q33 -11 68 -16.5t71 -5.5q70 0 100 18.5t30 64.5q0 32 -14.5 48.5t-45.5 28.5t-79 28q-40 14 -72.5 27.5t-51.5 38t-19 68.5q0 62 41 93.5t133 31.5q36 0 68.5 -4.5t57.5 -12.5v-49q-58 18 -118 18q-71 0 -99.5 -17.5t-28.5 -58.5
q0 -28 12.5 -43.5t40 -26.5t71.5 -25q53 -17 88.5 -34t53 -42.5t17.5 -68.5q0 -70 -47.5 -100t-130.5 -30zM174 -215l26 160h54l-37 -160h-43z" />
    <glyph glyph-name="uni1E61" unicode="&#x1e61;" horiz-adv-x="447" 
d="M206 548v56h57v-56h-57zM214 -10q-42 0 -80.5 5.5t-65.5 14.5v49q33 -11 68 -16.5t71 -5.5q70 0 100 18.5t30 64.5q0 32 -14.5 48.5t-45.5 28.5t-79 28q-40 14 -72.5 27.5t-51.5 38t-19 68.5q0 62 41 93.5t133 31.5q36 0 68.5 -4.5t57.5 -12.5v-49q-58 18 -118 18
q-71 0 -99.5 -17.5t-28.5 -58.5q0 -28 12.5 -43.5t40 -26.5t71.5 -25q53 -17 88.5 -34t53 -42.5t17.5 -68.5q0 -70 -47.5 -100t-130.5 -30z" />
    <glyph glyph-name="uni1E63" unicode="&#x1e63;" horiz-adv-x="447" 
d="M214 -10q-42 0 -80.5 5.5t-65.5 14.5v49q33 -11 68 -16.5t71 -5.5q70 0 100 18.5t30 64.5q0 32 -14.5 48.5t-45.5 28.5t-79 28q-40 14 -72.5 27.5t-51.5 38t-19 68.5q0 62 41 93.5t133 31.5q36 0 68.5 -4.5t57.5 -12.5v-49q-58 18 -118 18q-71 0 -99.5 -17.5t-28.5 -58.5
q0 -28 12.5 -43.5t40 -26.5t71.5 -25q53 -17 88.5 -34t53 -42.5t17.5 -68.5q0 -70 -47.5 -100t-130.5 -30zM206 -152v57h59v-57h-59z" />
    <glyph glyph-name="germandbls" unicode="&#xdf;" horiz-adv-x="620" 
d="M368 -10q-40 0 -77 5t-67 17v48q30 -13 65 -18t73 -5q71 0 109.5 40t38.5 114q0 65 -33.5 104.5t-119.5 39.5h-87v44h91q46 0 73 18.5t39.5 48.5t12.5 66q0 41 -16.5 72.5t-56 49.5t-108.5 18q-180 0 -180 -178v-474h-55v478q0 103 62.5 162.5t172.5 59.5q80 0 131.5 -25
t76.5 -67.5t25 -95.5q0 -56 -24 -96.5t-64 -57.5q53 -14 84 -57t31 -112q0 -94 -50.5 -146.5t-146.5 -52.5z" />
    <glyph glyph-name="t" unicode="t" horiz-adv-x="345" 
d="M240 -10q-63 0 -97 35t-34 98v305h-74v46h74v124l55 18v-142h137l-3 -46h-134v-303q0 -46 21.5 -68t70.5 -22q13 0 27.5 2.5t31.5 8.5v-44q-33 -12 -75 -12z" />
    <glyph glyph-name="tbar" unicode="&#x167;" horiz-adv-x="350" 
d="M240 -10q-63 0 -97 35t-34 98v109h-69v42h69v154h-74v46h74v124l55 18v-142h137l-3 -46h-134v-154h142v-42h-142v-107q0 -46 22 -68t72 -22q25 0 57 11v-44q-33 -12 -75 -12z" />
    <glyph glyph-name="tcaron" unicode="&#x165;" horiz-adv-x="366" 
d="M292 560l26 165h53l-38 -165h-41zM240 -10q-63 0 -97 35t-34 98v305h-74v46h74v124l55 18v-142h137l-3 -46h-134v-303q0 -46 21.5 -68t70.5 -22q13 0 27.5 2.5t31.5 8.5v-44q-33 -12 -75 -12z" />
    <glyph glyph-name="uni0163" unicode="&#x163;" horiz-adv-x="350" 
d="M203 -240q-16 0 -35.5 2.5t-30.5 5.5v37q29 -8 63 -8q50 0 74.5 14t24.5 50q0 32 -22.5 43.5t-69.5 11.5h-33l26 78q-91 21 -91 129v305h-74v46h74v124l55 18v-142h137l-3 -46h-134v-303q0 -46 21.5 -68t70.5 -22q13 0 27.5 2.5t31.5 8.5v-44q-33 -12 -73 -12l-14 -41
q114 0 114 -88q0 -49 -32.5 -75t-106.5 -26z" />
    <glyph glyph-name="uni021B" unicode="&#x21b;" horiz-adv-x="350" 
d="M240 -10q-63 0 -97 35t-34 98v305h-74v46h74v124l55 18v-142h137l-3 -46h-134v-303q0 -46 21.5 -68t70.5 -22q13 0 27.5 2.5t31.5 8.5v-44q-33 -12 -75 -12zM183 -205l26 165h53l-38 -165h-41z" />
    <glyph glyph-name="uni1E97" unicode="&#x1e97;" horiz-adv-x="350" 
d="M31 646v55h57v-55h-57zM198 646v55h56v-55h-56zM240 -10q-63 0 -97 35t-34 98v305h-74v46h74v124l55 18v-142h137l-3 -46h-134v-303q0 -46 21.5 -68t70.5 -22q13 0 27.5 2.5t31.5 8.5v-44q-33 -12 -75 -12z" />
    <glyph glyph-name="uni1E6D" unicode="&#x1e6d;" horiz-adv-x="350" 
d="M240 -10q-63 0 -97 35t-34 98v305h-74v46h74v124l55 18v-142h137l-3 -46h-134v-303q0 -46 21.5 -68t70.5 -22q13 0 27.5 2.5t31.5 8.5v-44q-33 -12 -75 -12zM200 -150v57h59v-57h-59z" />
    <glyph glyph-name="uni1E6F" unicode="&#x1e6f;" horiz-adv-x="350" 
d="M240 -10q-63 0 -97 35t-34 98v305h-74v46h74v124l55 18v-142h137l-3 -46h-134v-303q0 -46 21.5 -68t70.5 -22q13 0 27.5 2.5t31.5 8.5v-44q-33 -12 -75 -12zM65 -114v42h277v-42h-277z" />
    <glyph glyph-name="u" unicode="u" horiz-adv-x="559" 
d="M243 -10q-85 0 -129 48t-44 136v300h55v-302q0 -68 34 -102.5t107 -34.5q50 0 91.5 19.5t71.5 49.5v370h55v-474h-49l-5 58q-35 -31 -80 -49.5t-107 -18.5z" />
    <glyph glyph-name="uacute" unicode="&#xfa;" horiz-adv-x="559" 
d="M242 522l67 158h52l-74 -158h-45zM243 -10q-85 0 -129 48t-44 136v300h55v-302q0 -68 34 -102.5t107 -34.5q50 0 91.5 19.5t71.5 49.5v370h55v-474h-49l-5 58q-35 -31 -80 -49.5t-107 -18.5z" />
    <glyph glyph-name="ubreve" unicode="&#x16d;" horiz-adv-x="559" 
d="M280 521q-51 0 -81 31.5t-30 79.5h42q0 -34 19 -53t50 -19q32 0 51 19t19 53h42q0 -48 -30 -79.5t-82 -31.5zM243 -10q-85 0 -129 48t-44 136v300h55v-302q0 -68 34 -102.5t107 -34.5q50 0 91.5 19.5t71.5 49.5v370h55v-474h-49l-5 58q-35 -31 -80 -49.5t-107 -18.5z" />
    <glyph glyph-name="uni01D4" unicode="&#x1d4;" horiz-adv-x="559" 
d="M254 521l-105 135h50l79 -103l79 103h50l-105 -135h-48zM243 -10q-85 0 -129 48t-44 136v300h55v-302q0 -68 34 -102.5t107 -34.5q50 0 91.5 19.5t71.5 49.5v370h55v-474h-49l-5 58q-35 -31 -80 -49.5t-107 -18.5z" />
    <glyph glyph-name="ucircumflex" unicode="&#xfb;" horiz-adv-x="559" 
d="M147 521l105 135h48l105 -135h-50l-79 103l-79 -103h-50zM243 -10q-85 0 -129 48t-44 136v300h55v-302q0 -68 34 -102.5t107 -34.5q50 0 91.5 19.5t71.5 49.5v370h55v-474h-49l-5 58q-35 -31 -80 -49.5t-107 -18.5z" />
    <glyph glyph-name="udieresis" unicode="&#xfc;" horiz-adv-x="559" 
d="M162 546v55h57v-55h-57zM329 546v55h56v-55h-56zM243 -10q-85 0 -129 48t-44 136v300h55v-302q0 -68 34 -102.5t107 -34.5q50 0 91.5 19.5t71.5 49.5v370h55v-474h-49l-5 58q-35 -31 -80 -49.5t-107 -18.5z" />
    <glyph glyph-name="uni01D8" unicode="&#x1d8;" horiz-adv-x="559" 
d="M252 598l60 117h51l-66 -117h-45zM159 521v55h57v-55h-57zM336 521v55h56v-55h-56zM243 -10q-85 0 -129 48t-44 136v300h55v-302q0 -68 34 -102.5t107 -34.5q50 0 91.5 19.5t71.5 49.5v370h55v-474h-49l-5 58q-35 -31 -80 -49.5t-107 -18.5z" />
    <glyph glyph-name="uni01DA" unicode="&#x1da;" horiz-adv-x="559" 
d="M253 598l-103 110h49l78 -85l78 85h49l-103 -110h-48zM158 521v55h57v-55h-57zM335 521v55h56v-55h-56zM243 -10q-85 0 -129 48t-44 136v300h55v-302q0 -68 34 -102.5t107 -34.5q50 0 91.5 19.5t71.5 49.5v370h55v-474h-49l-5 58q-35 -31 -80 -49.5t-107 -18.5z" />
    <glyph glyph-name="uni01DC" unicode="&#x1dc;" horiz-adv-x="559" 
d="M257 598l-66 117h51l60 -117h-45zM162 521v55h56v-55h-56zM338 521v55h57v-55h-57zM243 -10q-85 0 -129 48t-44 136v300h55v-302q0 -68 34 -102.5t107 -34.5q50 0 91.5 19.5t71.5 49.5v370h55v-474h-49l-5 58q-35 -31 -80 -49.5t-107 -18.5z" />
    <glyph glyph-name="uni01D6" unicode="&#x1d6;" horiz-adv-x="559" 
d="M144 666v42h277v-42h-277zM170 545v55h57v-55h-57zM337 545v55h56v-55h-56zM243 -10q-85 0 -129 48t-44 136v300h55v-302q0 -68 34 -102.5t107 -34.5q50 0 91.5 19.5t71.5 49.5v370h55v-474h-49l-5 58q-35 -31 -80 -49.5t-107 -18.5z" />
    <glyph glyph-name="uni1EE5" unicode="&#x1ee5;" horiz-adv-x="559" 
d="M243 -10q-85 0 -129 48t-44 136v300h55v-302q0 -68 34 -102.5t107 -34.5q50 0 91.5 19.5t71.5 49.5v370h55v-474h-49l-5 58q-35 -31 -80 -49.5t-107 -18.5zM240 -152v57h59v-57h-59z" />
    <glyph glyph-name="ugrave" unicode="&#xf9;" horiz-adv-x="559" 
d="M261 522l-74 158h52l67 -158h-45zM243 -10q-85 0 -129 48t-44 136v300h55v-302q0 -68 34 -102.5t107 -34.5q50 0 91.5 19.5t71.5 49.5v370h55v-474h-49l-5 58q-35 -31 -80 -49.5t-107 -18.5z" />
    <glyph glyph-name="uni1EE7" unicode="&#x1ee7;" horiz-adv-x="559" 
d="M250 522v79q60 3 77 17t17 42q0 27 -19.5 40t-63.5 13q-16 0 -35 -3.5t-32 -8.5v38q14 5 36.5 8.5t40.5 3.5q57 0 86.5 -23t29.5 -65q0 -40 -19.5 -62t-70.5 -27v-52h-47zM243 -10q-85 0 -129 48t-44 136v300h55v-302q0 -68 34 -102.5t107 -34.5q50 0 91.5 19.5
t71.5 49.5v370h55v-474h-49l-5 58q-35 -31 -80 -49.5t-107 -18.5z" />
    <glyph glyph-name="uhorn" unicode="&#x1b0;" horiz-adv-x="659" 
d="M243 -10q-85 0 -129 48t-44 136v300h55v-302q0 -68 34 -102.5t107 -34.5q50 0 91.5 19.5t71.5 49.5v370h55v-63q52 4 72 32t20 93h48q0 -88 -36.5 -126.5t-103.5 -41.5v-368h-49l-5 58q-35 -31 -80 -49.5t-107 -18.5z" />
    <glyph glyph-name="uni1EE9" unicode="&#x1ee9;" horiz-adv-x="659" 
d="M263 522l67 158h52l-74 -158h-45zM243 -10q-85 0 -129 48t-44 136v300h55v-302q0 -68 34 -102.5t107 -34.5q50 0 91.5 19.5t71.5 49.5v370h55v-63q52 4 72 32t20 93h48q0 -88 -36.5 -126.5t-103.5 -41.5v-368h-49l-5 58q-35 -31 -80 -49.5t-107 -18.5z" />
    <glyph glyph-name="uni1EF1" unicode="&#x1ef1;" horiz-adv-x="659" 
d="M243 -10q-85 0 -129 48t-44 136v300h55v-302q0 -68 34 -102.5t107 -34.5q50 0 91.5 19.5t71.5 49.5v370h55v-63q52 4 72 32t20 93h48q0 -88 -36.5 -126.5t-103.5 -41.5v-368h-49l-5 58q-35 -31 -80 -49.5t-107 -18.5zM246 -152v57h59v-57h-59z" />
    <glyph glyph-name="uni1EEB" unicode="&#x1eeb;" horiz-adv-x="659" 
d="M270 522l-74 158h52l67 -158h-45zM243 -10q-85 0 -129 48t-44 136v300h55v-302q0 -68 34 -102.5t107 -34.5q50 0 91.5 19.5t71.5 49.5v370h55v-63q52 4 72 32t20 93h48q0 -88 -36.5 -126.5t-103.5 -41.5v-368h-49l-5 58q-35 -31 -80 -49.5t-107 -18.5z" />
    <glyph glyph-name="uni1EED" unicode="&#x1eed;" horiz-adv-x="659" 
d="M259 522v79q60 3 77 17t17 42q0 27 -19.5 40t-63.5 13q-16 0 -35 -3.5t-32 -8.5v38q14 5 36.5 8.5t40.5 3.5q57 0 86.5 -23t29.5 -65q0 -40 -19.5 -62t-70.5 -27v-52h-47zM243 -10q-85 0 -129 48t-44 136v300h55v-302q0 -68 34 -102.5t107 -34.5q50 0 91.5 19.5
t71.5 49.5v370h55v-63q52 4 72 32t20 93h48q0 -88 -36.5 -126.5t-103.5 -41.5v-368h-49l-5 58q-35 -31 -80 -49.5t-107 -18.5z" />
    <glyph glyph-name="uni1EEF" unicode="&#x1eef;" horiz-adv-x="659" 
d="M359 546q-24 0 -47 9.5t-44.5 18.5t-41.5 9q-22 0 -42 -7.5t-37 -27.5v47q12 14 34 21.5t44 7.5q26 0 47.5 -9t41.5 -18.5t43 -9.5q48 0 73 35v-47q-21 -29 -71 -29zM243 -10q-85 0 -129 48t-44 136v300h55v-302q0 -68 34 -102.5t107 -34.5q50 0 91.5 19.5t71.5 49.5v370
h55v-63q52 4 72 32t20 93h48q0 -88 -36.5 -126.5t-103.5 -41.5v-368h-49l-5 58q-35 -31 -80 -49.5t-107 -18.5z" />
    <glyph glyph-name="uhungarumlaut" unicode="&#x171;" horiz-adv-x="559" 
d="M130 521l67 141h54l-76 -141h-45zM329 521l67 141h54l-76 -141h-45zM243 -10q-85 0 -129 48t-44 136v300h55v-302q0 -68 34 -102.5t107 -34.5q50 0 91.5 19.5t71.5 49.5v370h55v-474h-49l-5 58q-35 -31 -80 -49.5t-107 -18.5z" />
    <glyph glyph-name="umacron" unicode="&#x16b;" horiz-adv-x="559" 
d="M139 553v42h277v-42h-277zM243 -10q-85 0 -129 48t-44 136v300h55v-302q0 -68 34 -102.5t107 -34.5q50 0 91.5 19.5t71.5 49.5v370h55v-474h-49l-5 58q-35 -31 -80 -49.5t-107 -18.5z" />
    <glyph glyph-name="uogonek" unicode="&#x173;" horiz-adv-x="559" 
d="M454 -220q-38 0 -64.5 19.5t-26.5 66.5q0 41 21.5 76.5t50.5 57.5l-5 58q-35 -31 -80 -49.5t-107 -18.5q-85 0 -129 48t-44 136v300h55v-302q0 -68 34 -102.5t107 -34.5q50 0 91.5 19.5t71.5 49.5v370h55v-474q-74 -55 -74 -128q0 -28 12.5 -39.5t40.5 -11.5q13 0 27 3
t23 8v-41q-11 -6 -28 -8.5t-31 -2.5z" />
    <glyph glyph-name="uring" unicode="&#x16f;" horiz-adv-x="559" 
d="M282 521q-44 0 -73 29.5t-29 71.5q0 43 29 72.5t73 29.5q45 0 74 -29.5t29 -72.5q0 -42 -29 -71.5t-74 -29.5zM282 557q29 0 47.5 18.5t18.5 46.5q0 29 -18.5 47.5t-47.5 18.5q-28 0 -47 -18.5t-19 -47.5q0 -28 19 -46.5t47 -18.5zM243 -10q-85 0 -129 48t-44 136v300h55
v-302q0 -68 34 -102.5t107 -34.5q50 0 91.5 19.5t71.5 49.5v370h55v-474h-49l-5 58q-35 -31 -80 -49.5t-107 -18.5z" />
    <glyph glyph-name="utilde" unicode="&#x169;" horiz-adv-x="559" 
d="M351 547q-24 0 -47 9.5t-44.5 18.5t-41.5 9q-22 0 -42 -7.5t-37 -27.5v47q12 14 34 21.5t44 7.5q26 0 47.5 -9t41.5 -18.5t43 -9.5q48 0 73 35v-47q-21 -29 -71 -29zM243 -10q-85 0 -129 48t-44 136v300h55v-302q0 -68 34 -102.5t107 -34.5q50 0 91.5 19.5t71.5 49.5v370
h55v-474h-49l-5 58q-35 -31 -80 -49.5t-107 -18.5z" />
    <glyph glyph-name="v" unicode="v" horiz-adv-x="546" 
d="M240 0l-185 474h57l161 -428l162 428h56l-185 -474h-66z" />
    <glyph glyph-name="w" unicode="w" horiz-adv-x="719" 
d="M178 0l-123 474h55l104 -418l119 366v52h43l130 -418l103 418h55l-123 -474h-59l-121 377l-123 -377h-60z" />
    <glyph glyph-name="wacute" unicode="&#x1e83;" horiz-adv-x="719" 
d="M333 522l67 158h52l-74 -158h-45zM178 0l-123 474h55l104 -418l119 366v52h43l130 -418l103 418h55l-123 -474h-59l-121 377l-123 -377h-60z" />
    <glyph glyph-name="wcircumflex" unicode="&#x175;" horiz-adv-x="719" 
d="M232 521l105 135h48l105 -135h-50l-79 103l-79 -103h-50zM178 0l-123 474h55l104 -418l119 366v52h43l130 -418l103 418h55l-123 -474h-59l-121 377l-123 -377h-60z" />
    <glyph glyph-name="wdieresis" unicode="&#x1e85;" horiz-adv-x="719" 
d="M249 546v55h57v-55h-57zM416 546v55h56v-55h-56zM178 0l-123 474h55l104 -418l119 366v52h43l130 -418l103 418h55l-123 -474h-59l-121 377l-123 -377h-60z" />
    <glyph glyph-name="wgrave" unicode="&#x1e81;" horiz-adv-x="719" 
d="M330 522l-74 158h52l67 -158h-45zM178 0l-123 474h55l104 -418l119 366v52h43l130 -418l103 418h55l-123 -474h-59l-121 377l-123 -377h-60z" />
    <glyph glyph-name="x" unicode="x" horiz-adv-x="508" 
d="M45 0l179 241l-174 233h60l143 -195l144 195h59l-171 -233l178 -241h-60l-150 204l-149 -204h-59z" />
    <glyph glyph-name="y" unicode="y" horiz-adv-x="566" 
d="M146 -176q-21 0 -38.5 2.5t-33.5 8.5v46q17 -6 31.5 -8t29.5 -2q35 0 56 15.5t37 45t34 71.5l-207 471h57l178 -412l185 412h56l-205 -459q-24 -55 -47.5 -98t-54.5 -68t-78 -25z" />
    <glyph glyph-name="yacute" unicode="&#xfd;" horiz-adv-x="566" 
d="M258 522l67 158h52l-74 -158h-45zM146 -176q-21 0 -38.5 2.5t-33.5 8.5v46q17 -6 31.5 -8t29.5 -2q35 0 56 15.5t37 45t34 71.5l-207 471h57l178 -412l185 412h56l-205 -459q-24 -55 -47.5 -98t-54.5 -68t-78 -25z" />
    <glyph glyph-name="ycircumflex" unicode="&#x177;" horiz-adv-x="566" 
d="M164 521l105 135h48l105 -135h-50l-79 103l-79 -103h-50zM146 -176q-21 0 -38.5 2.5t-33.5 8.5v46q17 -6 31.5 -8t29.5 -2q35 0 56 15.5t37 45t34 71.5l-207 471h57l178 -412l185 412h56l-205 -459q-24 -55 -47.5 -98t-54.5 -68t-78 -25z" />
    <glyph glyph-name="ydieresis" unicode="&#xff;" horiz-adv-x="566" 
d="M184 551v55h57v-55h-57zM351 551v55h56v-55h-56zM146 -176q-21 0 -38.5 2.5t-33.5 8.5v46q17 -6 31.5 -8t29.5 -2q35 0 56 15.5t37 45t34 71.5l-207 471h57l178 -412l185 412h56l-205 -459q-24 -55 -47.5 -98t-54.5 -68t-78 -25z" />
    <glyph glyph-name="uni1E8F" unicode="&#x1e8f;" horiz-adv-x="566" 
d="M263 548v56h57v-56h-57zM146 -176q-21 0 -38.5 2.5t-33.5 8.5v46q17 -6 31.5 -8t29.5 -2q35 0 56 15.5t37 45t34 71.5l-207 471h57l178 -412l185 412h56l-205 -459q-24 -55 -47.5 -98t-54.5 -68t-78 -25z" />
    <glyph glyph-name="uni1EF5" unicode="&#x1ef5;" horiz-adv-x="566" 
d="M146 -176q-21 0 -38.5 2.5t-33.5 8.5v46q17 -6 31.5 -8t29.5 -2q35 0 56 15.5t37 45t34 71.5l-207 471h57l178 -412l185 412h56l-205 -459q-24 -55 -47.5 -98t-54.5 -68t-78 -25zM375 -135v57h59v-57h-59z" />
    <glyph glyph-name="ygrave" unicode="&#x1ef3;" horiz-adv-x="566" 
d="M276 522l-74 158h52l67 -158h-45zM146 -176q-21 0 -38.5 2.5t-33.5 8.5v46q17 -6 31.5 -8t29.5 -2q35 0 56 15.5t37 45t34 71.5l-207 471h57l178 -412l185 412h56l-205 -459q-24 -55 -47.5 -98t-54.5 -68t-78 -25z" />
    <glyph glyph-name="uni1EF7" unicode="&#x1ef7;" horiz-adv-x="566" 
d="M268 522v79q60 3 77 17t17 42q0 27 -19.5 40t-63.5 13q-16 0 -35 -3.5t-32 -8.5v38q14 5 36.5 8.5t40.5 3.5q57 0 86.5 -23t29.5 -65q0 -40 -19.5 -62t-70.5 -27v-52h-47zM146 -176q-21 0 -38.5 2.5t-33.5 8.5v46q17 -6 31.5 -8t29.5 -2q35 0 56 15.5t37 45t34 71.5
l-207 471h57l178 -412l185 412h56l-205 -459q-24 -55 -47.5 -98t-54.5 -68t-78 -25z" />
    <glyph glyph-name="uni1EF9" unicode="&#x1ef9;" horiz-adv-x="566" 
d="M361 547q-24 0 -47 9.5t-44.5 18.5t-41.5 9q-22 0 -42 -7.5t-37 -27.5v47q12 14 34 21.5t44 7.5q26 0 47.5 -9t41.5 -18.5t43 -9.5q48 0 73 35v-47q-21 -29 -71 -29zM146 -176q-21 0 -38.5 2.5t-33.5 8.5v46q17 -6 31.5 -8t29.5 -2q35 0 56 15.5t37 45t34 71.5l-207 471
h57l178 -412l185 412h56l-205 -459q-24 -55 -47.5 -98t-54.5 -68t-78 -25z" />
    <glyph glyph-name="z" unicode="z" horiz-adv-x="479" 
d="M55 0v34l298 394h-284v46h349v-38l-296 -391h302v-45h-369z" />
    <glyph glyph-name="zacute" unicode="&#x17a;" horiz-adv-x="479" 
d="M223 522l67 158h52l-74 -158h-45zM55 0v34l298 394h-284v46h349v-38l-296 -391h302v-45h-369z" />
    <glyph glyph-name="zcaron" unicode="&#x17e;" horiz-adv-x="479" 
d="M211 521l-105 135h50l79 -103l79 103h50l-105 -135h-48zM55 0v34l298 394h-284v46h349v-38l-296 -391h302v-45h-369z" />
    <glyph glyph-name="zdotaccent" unicode="&#x17c;" horiz-adv-x="479" 
d="M219 548v56h57v-56h-57zM55 0v34l298 394h-284v46h349v-38l-296 -391h302v-45h-369z" />
    <glyph glyph-name="uni1E93" unicode="&#x1e93;" horiz-adv-x="479" 
d="M55 0v34l298 394h-284v46h349v-38l-296 -391h302v-45h-369zM217 -152v57h59v-57h-59z" />
    <glyph glyph-name="ordfeminine" unicode="&#xaa;" horiz-adv-x="348" 
d="M150 380q-39 0 -67 18t-28 58q0 84 103 84h94v17q0 33 -16 47.5t-66 14.5q-42 0 -81 -14v35q17 6 41 10t49 4q53 0 83.5 -22.5t30.5 -72.5v-173h-37l-3 32q-19 -19 -43.5 -28.5t-59.5 -9.5zM160 412q58 0 92 42v54h-91q-37 0 -52 -11.5t-15 -39.5q0 -25 17.5 -35
t48.5 -10z" />
    <glyph glyph-name="ordmasculine" unicode="&#xba;" horiz-adv-x="363" 
d="M181 380q-126 0 -126 137q0 67 31.5 102t94.5 35q64 0 95.5 -35t31.5 -102q0 -137 -127 -137zM181 414q48 0 67 26.5t19 76.5t-19 76t-67 26q-47 0 -66.5 -26t-19.5 -76t19 -76.5t67 -26.5z" />
    <glyph glyph-name="uni207F" unicode="&#x207f;" horiz-adv-x="363" 
d="M60 386v262h38l2 -32q21 17 46.5 27t61.5 10q47 0 73.5 -22.5t26.5 -70.5v-174h-41v163q0 39 -15 54.5t-58 15.5q-28 0 -52 -11t-41 -28v-194h-41z" />
    <glyph glyph-name="uni0394" unicode="&#x394;" horiz-adv-x="655" 
d="M55 0v34l240 610h64l241 -611v-33h-545zM110 44h432l-216 550z" />
    <glyph glyph-name="uni03A9" unicode="&#x3a9;" horiz-adv-x="771" 
d="M62 0v44h176q-79 47 -131 126.5t-52 191.5q0 94 40 169t114 119.5t177 44.5t176.5 -44.5t113.5 -119.5t40 -169q0 -112 -51.5 -191.5t-130.5 -126.5h175v-44h-252v44q103 55 154 135.5t51 182.5q0 83 -35 147.5t-97 101t-144 36.5t-144.5 -36.5t-97.5 -101t-35 -147.5
q0 -102 51 -182.5t154 -135.5v-44h-252z" />
    <glyph glyph-name="uni03BC" unicode="&#x3bc;" horiz-adv-x="564" 
d="M75 -143v617h55v-302q0 -68 34 -102.5t107 -34.5q50 0 91.5 19.5t71.5 49.5v370h55v-474h-49l-5 58q-35 -31 -80 -49.5t-107 -18.5q-38 0 -69 12.5t-49 35.5v-181h-55z" />
    <glyph glyph-name="pi" unicode="&#x3c0;" horiz-adv-x="658" 
d="M537 -10q-61 0 -92 36.5t-31 98.5v304h-245v-429h-55v429h-69v45h494v-45h-70v-304q0 -46 19 -67t68 -21q24 0 57 10v-45q-33 -12 -76 -12z" />
    <glyph glyph-name="uni0E01" unicode="&#xe01;" horiz-adv-x="600" 
d="M90 0v243q0 39 20.5 68t62.5 41l-118 26v80q35 35 97 63.5t147 28.5q116 0 171 -50t55 -147v-353h-55v356q0 81 -41.5 113.5t-129.5 32.5q-62 0 -114 -19t-80 -48v-28l120 -26v-48q-38 -9 -59 -30.5t-21 -62.5v-240h-55z" />
    <glyph glyph-name="uni0E02" unicode="&#xe02;" horiz-adv-x="556" 
d="M272 -10q-99 0 -153 47.5t-54 140.5v92q0 28 15 55t34 52.5t34 47.5t15 40t-6.5 24t-26.5 6h-75l5 45h96q32 0 47 -17t15 -46q0 -28 -15 -54.5t-34 -51.5t-34 -51t-15 -55v-96q0 -70 42 -101t110 -31t111 31t43 102v370h55v-362q0 -93 -55.5 -140.5t-153.5 -47.5z" />
    <glyph glyph-name="uni0E03" unicode="&#xe03;" horiz-adv-x="543" 
d="M267 -10q-200 0 -200 186v80q0 28 17 56.5t40 56t40 52.5t17 46q0 29 -28 29q-14 0 -28 -6.5t-25 -17.5v-38h-45v106h45v-28q12 11 29 19.5t41 8.5q29 0 46.5 -17t17.5 -48q0 -30 -17 -57.5t-39 -54.5t-39 -54.5t-17 -56.5v-83q0 -70 38.5 -101t106.5 -31t107 31t39 102
v370h55v-362q0 -93 -51.5 -140.5t-149.5 -47.5z" />
    <glyph glyph-name="uni0E04" unicode="&#xe04;" horiz-adv-x="594" 
d="M75 0v358q0 95 54 143.5t169 48.5q114 0 167.5 -48.5t53.5 -143.5v-358h-55v366q0 72 -42.5 104t-123.5 32q-83 0 -125.5 -32t-42.5 -104v-139q56 45 127 45h67l3 -46h-71q-37 0 -67 -11t-59 -34v-181h-55z" />
    <glyph glyph-name="uni0E05" unicode="&#xe05;" horiz-adv-x="594" 
d="M75 0v416q0 68 33 101t87 33q31 0 57 -12t45 -40q19 28 49.5 40t61.5 12q59 0 85 -33t26 -102v-415h-55v421q0 39 -13.5 60t-51.5 21q-54 0 -86 -50h-33q-13 25 -30.5 37.5t-41.5 12.5q-78 0 -78 -82v-193q56 45 127 45h67l3 -46h-71q-37 0 -67 -11t-59 -34v-181h-55z
" />
    <glyph glyph-name="uni0E06" unicode="&#xe06;" horiz-adv-x="577" 
d="M323 -10q-70 0 -117.5 22.5t-85.5 58.5l-5 -71h-48v244q0 28 17 58t40 60t40 57t17 48q0 29 -28 29q-14 0 -28 -6.5t-25 -17.5v-38h-45v106h45v-28q12 11 29 19.5t41 8.5q29 0 46.5 -17t17.5 -48q0 -30 -17 -59.5t-39 -59t-39 -58.5t-17 -58v-119q35 -37 80 -60.5
t103 -23.5q73 0 107.5 34.5t34.5 107.5v361h55v-358q0 -95 -46.5 -143.5t-132.5 -48.5z" />
    <glyph glyph-name="uni0E07" unicode="&#xe07;" horiz-adv-x="559" 
d="M283 -10q-16 0 -38.5 1.5t-37.5 7.5l-152 370h54l137 -332q204 -18 204 252q0 75 -13.5 120t-47 64.5t-92.5 19.5h-32v47h36q113 0 158 -61t45 -189q0 -107 -29.5 -173t-79.5 -96.5t-112 -30.5z" />
    <glyph glyph-name="uni0E08" unicode="&#xe08;" horiz-adv-x="555" 
d="M267 -10q-15 0 -33 2.5t-29 6.5l-90 240h-60l3 47h93l93 -249q50 -6 96 15.5t76 76.5t30 148q0 80 -20 129.5t-67 72.5t-127 23q-41 0 -85 -5.5t-84 -19.5v47q37 12 84.5 19t99.5 7q134 0 193.5 -71t59.5 -202q0 -95 -31 -159t-84 -96t-118 -32z" />
    <glyph glyph-name="uni0E09" unicode="&#xe09;" horiz-adv-x="564" 
d="M232 -10q-170 0 -170 189v121h55v-124q0 -72 29 -105.5t105 -33.5q57 0 102.5 23.5t80.5 60.5v232q0 83 -42.5 116t-146.5 33q-42 0 -95.5 -7.5t-94.5 -21.5v47q38 13 94 21.5t111 8.5q116 0 172.5 -48t56.5 -149v-353h-48l-5 71q-37 -36 -85 -58.5t-119 -22.5z" />
    <glyph glyph-name="uni0E0A" unicode="&#xe0a;" horiz-adv-x="562" 
d="M275 -10q-100 0 -155 47.5t-55 140.5v92q0 28 15 55t34 52.5t34 47.5t15 40t-6.5 24t-26.5 6h-75l5 45h96q32 0 47 -17t15 -46q0 -28 -15 -54.5t-34 -51.5t-34 -51t-15 -55v-96q0 -70 43.5 -101t111.5 -31q71 0 113.5 31t42.5 102v71q0 65 -21 89.5t-77 24.5h-28l4 45h24
q60 0 79 28.5t19 83.5v38h55v-37q0 -50 -14 -85t-63 -50q35 -11 51.5 -30.5t21 -46t4.5 -60.5v-63q0 -93 -56.5 -140.5t-154.5 -47.5z" />
    <glyph glyph-name="uni0E0B" unicode="&#xe0b;" horiz-adv-x="559" 
d="M274 -10q-99 0 -153 47.5t-54 140.5v78q0 28 17 56.5t40 56t40 52.5t17 46q0 29 -28 29q-14 0 -28 -6.5t-25 -17.5v-38h-45v106h45v-28q12 11 29 19.5t41 8.5q29 0 46.5 -17t17.5 -48q0 -30 -17 -57.5t-39 -54.5t-39 -54.5t-17 -56.5v-83q0 -70 42 -101t110 -31
q71 0 112.5 31t41.5 102v71q0 65 -21 89.5t-77 24.5h-28l4 45h24q60 0 79 28.5t19 83.5v38h55v-37q0 -50 -14 -85t-63 -50q35 -11 51.5 -30.5t21 -46t4.5 -60.5v-63q0 -93 -55.5 -140.5t-153.5 -47.5z" />
    <glyph glyph-name="uni0E0C" unicode="&#xe0c;" horiz-adv-x="951" 
d="M704 -10q-67 0 -111.5 22.5t-82.5 58.5l-5 -71h-48v356q0 81 -38.5 113.5t-125.5 32.5q-61 0 -110.5 -19t-77.5 -48v-28l120 -26v-48q-38 -9 -59 -31t-21 -62v-139q0 -55 52 -55h59v-46h-80q-41 0 -63.5 25t-22.5 66v152q0 39 20.5 68t62.5 41l-118 26v80q35 35 95 63.5
t144 28.5q115 0 166 -50t51 -147v-232q35 -37 77.5 -60.5t97.5 -23.5q71 0 103 34.5t32 107.5v361h55v-358q0 -95 -44.5 -143.5t-127.5 -48.5z" />
    <glyph glyph-name="uni0E0D" unicode="&#xe0d;" horiz-adv-x="962" 
d="M671 -50q-55 0 -104.5 10.5t-85.5 30.5v49q38 -22 91 -32.5t99 -10.5q87 0 125.5 20.5t38.5 56.5q0 17 -4.5 29t-17.5 21q-25 -19 -59.5 -29t-82.5 -10q-111 0 -164 52t-53 155v64q0 81 -37 113.5t-124 32.5q-61 0 -110.5 -19t-77.5 -48v-28l120 -26v-48q-38 -9 -59 -31
t-21 -62v-139q0 -55 52 -55h59v-46h-80q-41 0 -63.5 25t-22.5 66v152q0 39 20.5 68t62.5 41l-118 26v80q35 35 95 63.5t144 28.5q115 0 165 -50t50 -147v-68q0 -79 40 -116t122 -37t121.5 37t39.5 116v255h55v-248q0 -46 -9.5 -77.5t-28.5 -56.5q38 -28 38 -84
q0 -58 -51.5 -91t-164.5 -33z" />
    <glyph glyph-name="uni0E0D.less" horiz-adv-x="962" 
d="M671 -10q-111 0 -164 52t-53 155v159q0 81 -37 113.5t-124 32.5q-61 0 -110.5 -19t-77.5 -48v-28l120 -26v-48q-38 -9 -59 -31t-21 -62v-139q0 -55 52 -55h59v-46h-80q-41 0 -63.5 25t-22.5 66v152q0 39 20.5 68t62.5 41l-118 26v80q35 35 95 63.5t144 28.5
q115 0 165 -50t50 -147v-163q0 -79 40 -116t122 -37t121.5 37t39.5 116v350h55v-343q0 -103 -53 -155t-163 -52z" />
    <glyph glyph-name="uni0E0E" unicode="&#xe0e;" horiz-adv-x="641" 
d="M183 -195v48q81 39 172 39q50 0 89 -10t67 -27v501q0 81 -41.5 113.5t-129.5 32.5q-62 0 -115 -19t-82 -48v-28l123 -26v-48q-37 -10 -51.5 -30.5t-14.5 -62.5v-142q0 -47 -22.5 -72.5t-66.5 -25.5h-56v46h43q47 0 47 54v143q0 39 14.5 67.5t54.5 41.5l-121 26v80
q35 35 98.5 63.5t148.5 28.5q116 0 171 -50t55 -147v-547h-53q-37 20 -74 29.5t-87 9.5q-46 0 -85.5 -9.5t-83.5 -30.5z" />
    <glyph glyph-name="uni0E0E.short" horiz-adv-x="641" 
d="M183 -125v48q81 39 172 39q50 0 89 -10t67 -27v431q0 81 -41.5 113.5t-129.5 32.5q-62 0 -115 -19t-82 -48v-28l123 -26v-48q-37 -10 -51.5 -30.5t-14.5 -62.5v-142q0 -47 -22.5 -72.5t-66.5 -25.5h-56v46h43q47 0 47 54v143q0 39 14.5 67.5t54.5 41.5l-121 26v80
q35 35 98.5 63.5t148.5 28.5q116 0 171 -50t55 -147v-477h-53q-37 20 -74 29.5t-87 9.5q-46 0 -85.5 -9.5t-83.5 -30.5z" />
    <glyph glyph-name="uni0E0F" unicode="&#xe0f;" horiz-adv-x="641" 
d="M444 -195q-34 0 -60.5 12.5t-39.5 31.5q-10 -19 -33 -31t-58 -12h-83l4 49h71q29 0 47.5 9t33.5 34h33q13 -22 32.5 -33.5t47.5 -11.5q40 0 56 18.5t16 61.5v423q0 81 -41.5 113.5t-129.5 32.5q-62 0 -115 -19t-82 -48v-28l123 -26v-48q-37 -10 -51.5 -30.5t-14.5 -62.5
v-142q0 -47 -22.5 -72.5t-66.5 -25.5h-56v46h43q47 0 47 54v143q0 39 14.5 67.5t54.5 41.5l-121 26v80q35 35 98.5 63.5t148.5 28.5q116 0 171 -50t55 -147v-425q0 -61 -32.5 -92t-89.5 -31z" />
    <glyph glyph-name="uni0E0F.short" horiz-adv-x="641" 
d="M444 -124q-34 0 -60.5 12t-39.5 31q-10 -19 -33 -30.5t-58 -11.5h-83l4 49h71q29 0 47.5 9t33.5 33h33q13 -21 32.5 -33t47.5 -12q40 0 56 19t16 62v352q0 81 -41.5 113.5t-129.5 32.5q-62 0 -115 -19t-82 -48v-28l123 -26v-48q-37 -10 -51.5 -30.5t-14.5 -62.5v-142
q0 -47 -22.5 -72.5t-66.5 -25.5h-56v46h43q47 0 47 54v143q0 39 14.5 67.5t54.5 41.5l-121 26v80q35 35 98.5 63.5t148.5 28.5q116 0 171 -50t55 -147v-355q0 -61 -32.5 -91.5t-89.5 -30.5z" />
    <glyph glyph-name="uni0E10" unicode="&#xe10;" horiz-adv-x="592" 
d="M267 -10q-15 0 -33 2.5t-29 6.5l-90 240h-60l3 47h93l93 -249q50 -6 96 15.5t76 76.5t30 148q0 80 -20 129.5t-67 72.5t-127 23q-41 0 -85 -5.5t-84 -19.5v47q37 12 84.5 19t99.5 7q25 0 47 -2.5t41 -7.5h202l-3 -47h-111q41 -34 59 -89t18 -127q0 -95 -31 -159t-84 -96
t-118 -32zM364 -195q-34 0 -60.5 12.5t-39.5 31.5q-10 -19 -33 -31t-58 -12h-83l4 49h71q29 0 47.5 9t33.5 34h33q13 -22 32.5 -33.5t47.5 -11.5q40 0 56 18.5t16 61.5v27h55v-32q0 -61 -32.5 -92t-89.5 -31z" />
    <glyph glyph-name="uni0E10.less" horiz-adv-x="592" 
d="M267 -10q-15 0 -33 2.5t-29 6.5l-90 240h-60l3 47h93l93 -249q50 -6 96 15.5t76 76.5t30 148q0 80 -20 129.5t-67 72.5t-127 23q-41 0 -85 -5.5t-84 -19.5v47q37 12 84.5 19t99.5 7q25 0 47 -2.5t41 -7.5h202l-3 -47h-111q41 -34 59 -89t18 -127q0 -95 -31 -159t-84 -96
t-118 -32z" />
    <glyph glyph-name="uni0E11" unicode="&#xe11;" horiz-adv-x="580" 
d="M90 0v246q0 29 14 58.5t32 58.5t32 55t14 48q0 30 -28 30q-15 0 -29 -6.5t-25 -17.5v-38h-45v106h45v-28q12 11 29 19.5t41 8.5q40 0 54 -31q26 18 58 29.5t68 11.5q86 0 120.5 -45.5t34.5 -140.5v-364h-55v367q0 48 -9 77.5t-34 43.5t-72 14q-27 0 -55 -10.5t-48 -28.5
q0 -27 -13 -54t-30.5 -54.5t-30.5 -55.5t-13 -58v-241h-55z" />
    <glyph glyph-name="uni0E12" unicode="&#xe12;" horiz-adv-x="977" 
d="M264 -10q-94 0 -151.5 66.5t-57.5 211.5q0 135 39 208.5t115 73.5q38 0 61 -13t45 -39q48 52 115 52q51 0 79 -30t28 -93v-306q35 -37 77.5 -60.5t97.5 -23.5q71 0 103 34.5t32 107.5v361h55v-358q0 -95 -44.5 -143.5t-127.5 -48.5q-67 0 -111.5 22.5t-82.5 58.5l-5 -71
h-48v421q0 46 -15 63.5t-53 17.5q-25 0 -46.5 -12t-36.5 -38h-35q-18 26 -35 38t-47 12q-40 0 -63 -29.5t-33 -82t-10 -122.5q0 -127 43.5 -179t122.5 -52q18 0 36.5 2t31.5 6v-47q-16 -4 -35 -6t-44 -2z" />
    <glyph glyph-name="uni0E13" unicode="&#xe13;" horiz-adv-x="951" 
d="M625 -10q-168 0 -168 192v174q0 81 -38.5 113.5t-125.5 32.5q-61 0 -110.5 -19t-77.5 -48v-28l120 -26v-48q-38 -9 -59 -31t-21 -62v-139q0 -55 52 -55h59v-46h-80q-41 0 -63.5 25t-22.5 66v152q0 39 20.5 68t62.5 41l-118 26v80q35 35 95 63.5t144 28.5q115 0 166 -50
t51 -147v-174q0 -73 31 -107.5t101 -34.5q56 0 99.5 23.5t78.5 60.5v419h55v-540h-49l-5 71q-38 -36 -84 -58.5t-113 -22.5z" />
    <glyph glyph-name="uni0E14" unicode="&#xe14;" horiz-adv-x="628" 
d="M264 -10q-94 0 -151.5 66.5t-57.5 211.5q0 129 63 205.5t200 76.5q84 0 136 -29.5t75.5 -77t23.5 -103.5v-340h-55v343q0 44 -17.5 80t-57.5 57.5t-106 21.5q-113 0 -160.5 -63.5t-47.5 -170.5q0 -126 43 -178.5t123 -52.5q18 0 36.5 2t31.5 6v-47q-16 -4 -35 -6t-44 -2z
" />
    <glyph glyph-name="uni0E15" unicode="&#xe15;" horiz-adv-x="628" 
d="M264 -10q-94 0 -151.5 66.5t-57.5 211.5q0 135 39.5 208.5t118.5 73.5q38 0 63 -13t47 -39q24 26 55.5 39t62.5 13q53 0 82.5 -30t29.5 -93v-427h-55v421q0 46 -16 63.5t-55 17.5q-25 0 -48.5 -12t-38.5 -38h-35q-18 26 -36.5 38t-48.5 12q-42 0 -66.5 -29.5t-34.5 -82
t-10 -122.5q0 -127 43.5 -179t122.5 -52q18 0 36.5 2t31.5 6v-47q-16 -4 -35 -6t-44 -2z" />
    <glyph glyph-name="uni0E16" unicode="&#xe16;" horiz-adv-x="600" 
d="M176 0q-41 0 -63.5 25t-22.5 66v152q0 39 20.5 68t62.5 41l-118 26v80q35 35 98.5 63.5t148.5 28.5q116 0 169.5 -50t53.5 -147v-353h-55v356q0 81 -40 113.5t-129 32.5q-61 0 -114.5 -19t-81.5 -48v-28l120 -26v-48q-38 -9 -59 -31t-21 -62v-139q0 -55 52 -55h59v-46
h-80z" />
    <glyph glyph-name="uni0E17" unicode="&#xe17;" horiz-adv-x="585" 
d="M75 0v540h48l5 -71q38 36 86 58.5t118 22.5q86 0 132 -48.5t46 -143.5v-358h-55v361q0 73 -34.5 107t-107.5 34q-58 0 -103 -23.5t-80 -60.5v-418h-55z" />
    <glyph glyph-name="uni0E18" unicode="&#xe18;" horiz-adv-x="520" 
d="M264 -10q-60 0 -112 11.5t-87 24.5v207h52v-172q30 -10 67.5 -17t75.5 -7q73 0 112 25t39 87q0 52 -19.5 77t-57 37.5t-91.5 24.5q-33 8 -66.5 16t-61 21.5t-44 37t-16.5 61.5q0 70 57.5 98t155.5 28q46 0 95.5 -7.5t78.5 -18.5v-49q-33 12 -79 19.5t-87 7.5
q-48 0 -86.5 -5.5t-60.5 -22t-22 -49.5q0 -34 22.5 -50.5t63 -26.5t93.5 -23q49 -12 89.5 -28t65 -49.5t24.5 -98.5q0 -84 -54.5 -121.5t-146.5 -37.5z" />
    <glyph glyph-name="uni0E19" unicode="&#xe19;" horiz-adv-x="585" 
d="M251 -10q-176 0 -176 192v358h55v-361q0 -73 33 -107.5t106 -34.5q58 0 104.5 23.5t81.5 60.5v419h55v-540h-48l-5 71q-38 -36 -87.5 -58.5t-118.5 -22.5z" />
    <glyph glyph-name="uni0E1A" unicode="&#xe1a;" horiz-adv-x="603" 
d="M302 -10q-112 0 -169.5 52t-57.5 155v343h55v-350q0 -79 45 -116t127 -37t126.5 37t44.5 116v350h55v-343q0 -103 -57.5 -155t-168.5 -52z" />
    <glyph glyph-name="uni0E1B" unicode="&#xe1b;" horiz-adv-x="603" 
d="M302 -10q-112 0 -169.5 52t-57.5 155v343h55v-350q0 -79 45 -116t127 -37t126.5 37t44.5 116v510h55v-503q0 -103 -57.5 -155t-168.5 -52z" />
    <glyph glyph-name="uni0E1C" unicode="&#xe1c;" horiz-adv-x="637" 
d="M75 0v447q0 41 23 67t64 26h76l2 -47h-57q-54 0 -54 -57v-363l173 302h33l173 -302v467h54v-540h-61l-182 319l-183 -319h-61z" />
    <glyph glyph-name="uni0E1D" unicode="&#xe1d;" horiz-adv-x="637" 
d="M75 0v447q0 41 23 67t64 26h76l2 -47h-57q-54 0 -54 -57v-363l173 302h33l173 -302v627h54v-700h-61l-182 319l-183 -319h-61z" />
    <glyph glyph-name="uni0E1E" unicode="&#xe1e;" horiz-adv-x="707" 
d="M167 0l-122 540h56l101 -469l129 410v59h41l135 -469l100 469h55l-121 -540h-60l-122 420l-132 -420h-60z" />
    <glyph glyph-name="uni0E1F" unicode="&#xe1f;" horiz-adv-x="707" 
d="M167 0l-122 540h56l101 -469l129 410v59h41l135 -469l134 629h55l-155 -700h-60l-122 420l-132 -420h-60z" />
    <glyph glyph-name="uni0E20" unicode="&#xe20;" horiz-adv-x="639" 
d="M55 0v46h43q47 0 47 54v143q0 39 14.5 67.5t54.5 41.5l-121 26v80q35 35 98.5 63.5t148.5 28.5q116 0 170 -50t54 -147v-353h-55v356q0 81 -40.5 113.5t-128.5 32.5q-62 0 -115 -19t-82 -48v-28l123 -26v-48q-37 -10 -51.5 -30.5t-14.5 -62.5v-142q0 -47 -22.5 -72.5
t-66.5 -25.5h-56z" />
    <glyph glyph-name="uni0E21" unicode="&#xe21;" horiz-adv-x="585" 
d="M331 -10q-70 0 -117.5 22.5t-85.5 58.5l-5 -71h-48v540h55v-419q35 -37 80 -60.5t103 -23.5q73 0 107.5 34.5t34.5 107.5v361h55v-358q0 -95 -46.5 -143.5t-132.5 -48.5z" />
    <glyph glyph-name="uni0E22" unicode="&#xe22;" horiz-adv-x="578" 
d="M282 -10q-109 0 -168 40.5t-59 118.5q0 53 24 86t65 47q-36 10 -61 40t-25 82q0 74 43 110t107 36q26 0 44.5 -2.5t34.5 -7.5v-47q-28 9 -68 9q-49 0 -77.5 -22.5t-28.5 -75.5q0 -99 119 -99h58l5 -44h-66q-58 0 -89 -29t-31 -83q0 -112 172 -112q83 0 125 33.5t42 105.5
v364h55v-332q0 -70 -20.5 -118.5t-68.5 -74t-132 -25.5z" />
    <glyph glyph-name="uni0E23" unicode="&#xe23;" horiz-adv-x="502" 
d="M240 -10q-47 0 -92.5 6t-77.5 19v49q39 -14 80.5 -20.5t81.5 -6.5q76 0 118.5 19t42.5 78q0 40 -21 60.5t-57.5 33.5t-83.5 28q-42 14 -82.5 31t-67 46.5t-26.5 78.5q0 138 201 138q43 0 83.5 -7t69.5 -17v-49q-66 25 -145 25t-117 -18.5t-38 -70.5q0 -34 20 -54.5
t57 -35t87 -30.5q46 -14 85.5 -32t64 -47.5t24.5 -78.5q0 -54 -26.5 -86t-73 -45.5t-107.5 -13.5z" />
    <glyph glyph-name="uni0E24" unicode="&#xe24;" horiz-adv-x="603" 
d="M473 -160v516q0 81 -41.5 113.5t-130.5 32.5q-61 0 -114.5 -19t-81.5 -48v-28l120 -26v-48q-38 -9 -59 -31t-21 -62v-139q0 -55 52 -55h59v-46h-80q-41 0 -63.5 25t-22.5 66v152q0 39 20.5 68t62.5 41l-118 26v80q35 35 98.5 63.5t148.5 28.5q116 0 171 -50t55 -147v-513
h-55z" />
    <glyph glyph-name="uni0E24.short" horiz-adv-x="603" 
d="M473 -110v466q0 81 -41.5 113.5t-130.5 32.5q-61 0 -114.5 -19t-81.5 -48v-28l120 -26v-48q-38 -9 -59 -31t-21 -62v-139q0 -55 52 -55h59v-46h-80q-41 0 -63.5 25t-22.5 66v152q0 39 20.5 68t62.5 41l-118 26v80q35 35 98.5 63.5t148.5 28.5q116 0 171 -50t55 -147v-463
h-55z" />
    <glyph glyph-name="uni0E25" unicode="&#xe25;" horiz-adv-x="578" 
d="M230 -10q-76 0 -125.5 37t-49.5 119q0 74 48.5 117.5t154.5 43.5h190v53q0 52 -14.5 83t-50.5 45t-100 14q-43 0 -86 -5.5t-84 -19.5v47q36 12 83.5 19t98.5 7q110 0 159 -46t49 -146v-358h-55v260h-186q-80 0 -117 -27.5t-37 -86.5q0 -58 34 -83.5t103 -25.5q39 0 68 8
v-47q-16 -4 -36.5 -6t-46.5 -2z" />
    <glyph glyph-name="uni0E26" unicode="&#xe26;" horiz-adv-x="641" 
d="M511 -160v516q0 81 -41.5 113.5t-129.5 32.5q-62 0 -115 -19t-82 -48v-28l123 -26v-48q-37 -10 -51.5 -30.5t-14.5 -62.5v-142q0 -47 -22.5 -72.5t-66.5 -25.5h-56v46h43q47 0 47 54v143q0 39 14.5 67.5t54.5 41.5l-121 26v80q35 35 98.5 63.5t148.5 28.5q116 0 171 -50
t55 -147v-513h-55z" />
    <glyph glyph-name="uni0E26.short" horiz-adv-x="641" 
d="M511 -110v466q0 81 -41.5 113.5t-129.5 32.5q-62 0 -115 -19t-82 -48v-28l123 -26v-48q-37 -10 -51.5 -30.5t-14.5 -62.5v-142q0 -47 -22.5 -72.5t-66.5 -25.5h-56v46h43q47 0 47 54v143q0 39 14.5 67.5t54.5 41.5l-121 26v80q35 35 98.5 63.5t148.5 28.5q116 0 171 -50
t55 -147v-463h-55z" />
    <glyph glyph-name="uni0E27" unicode="&#xe27;" horiz-adv-x="490" 
d="M195 -10q-82 0 -140 26v47q28 -11 61 -18.5t66 -7.5q80 0 122.5 25t59 76.5t16.5 131.5q0 119 -46 175.5t-156 56.5q-34 0 -64 -6.5t-59 -19.5v48q28 13 58 19.5t75 6.5q128 0 187.5 -70.5t59.5 -209.5q0 -88 -22 -151t-74.5 -96t-143.5 -33z" />
    <glyph glyph-name="uni0E28" unicode="&#xe28;" horiz-adv-x="609" 
d="M75 0v358q0 95 54 143.5t169 48.5q26 0 48.5 -2.5t41.5 -7.5h181l-3 -47h-96q49 -48 49 -135v-358h-55v366q0 72 -42.5 104t-123.5 32q-83 0 -125.5 -32t-42.5 -104v-139q56 45 127 45h67l3 -46h-71q-37 0 -67 -11t-59 -34v-181h-55z" />
    <glyph glyph-name="uni0E29" unicode="&#xe29;" horiz-adv-x="623" 
d="M302 -10q-112 0 -169.5 52t-57.5 155v343h55v-350q0 -79 45 -116t127 -37t126.5 37t44.5 116v94h-157v46h157v210h55v-210h65l-5 -46h-60v-87q0 -103 -57.5 -155t-168.5 -52z" />
    <glyph glyph-name="uni0E2A" unicode="&#xe2a;" horiz-adv-x="603" 
d="M230 -10q-76 0 -125.5 37t-49.5 119q0 74 48.5 117.5t154.5 43.5h190v53q0 52 -14.5 83t-50.5 45t-100 14q-43 0 -86 -5.5t-84 -19.5v47q36 12 83.5 19t98.5 7q53 0 90 -10h163l-3 -47h-81q39 -45 39 -135v-358h-55v260h-186q-80 0 -117 -27.5t-37 -86.5q0 -58 34 -83.5
t103 -25.5q39 0 68 8v-47q-16 -4 -36.5 -6t-46.5 -2z" />
    <glyph glyph-name="uni0E2B" unicode="&#xe2b;" horiz-adv-x="585" 
d="M75 0v540h55v-182h201q74 0 101.5 30.5t27.5 87.5v64h55v-64q0 -51 -20 -89t-70 -52q54 -16 68.5 -53t14.5 -87v-195h-55v191q0 70 -27 95t-100 25h-196v-311h-55z" />
    <glyph glyph-name="uni0E2C" unicode="&#xe2c;" horiz-adv-x="707" 
d="M167 0l-122 540h56l102 -469l128 370v59h41l133 -429l83 381q11 51 -0.5 70.5t-51.5 19.5h-40l7 45h39q44 0 63.5 15.5t27.5 53.5l9 44h54l-11 -49q-10 -43 -28 -63.5t-47 -25.5q51 -22 32 -107l-101 -455h-60l-122 383l-133 -383h-59z" />
    <glyph glyph-name="uni0E2C.short" horiz-adv-x="707" 
d="M167 0l-122 540h56l102 -474l128 263v59h41l133 -322l61 285q11 51 -0.5 70.5t-51.5 19.5h-40l7 45h39q44 0 64 16t27 53l10 50h54l-12 -55q-9 -43 -27.5 -63.5t-47.5 -25.5q51 -22 32 -107l-79 -354h-60l-122 279l-133 -279h-59z" />
    <glyph glyph-name="uni0E2D" unicode="&#xe2d;" horiz-adv-x="551" 
d="M253 -10q-60 0 -111.5 11.5t-86.5 24.5v266h182l3 -47h-130v-184q30 -10 66.5 -17t73.5 -7q70 0 112 23t61 74t19 135q0 86 -19.5 137t-65 73.5t-123.5 22.5q-42 0 -86 -5.5t-85 -19.5v47q38 13 86 19.5t100 6.5q134 0 190.5 -69.5t56.5 -211.5q0 -139 -56.5 -209
t-186.5 -70z" />
    <glyph glyph-name="uni0E2E" unicode="&#xe2e;" horiz-adv-x="583" 
d="M253 -10q-60 0 -111.5 11.5t-86.5 24.5v266h182l3 -47h-130v-184q30 -10 66.5 -17t73.5 -7q70 0 112 23t61 74t19 135q0 86 -19.5 137t-65 73.5t-123.5 22.5q-42 0 -86 -5.5t-85 -19.5v47q38 13 86 19.5t100 6.5q26 0 48.5 -2.5t41.5 -7.5h189l-3 -47h-102
q40 -34 56.5 -90.5t16.5 -133.5q0 -139 -56.5 -209t-186.5 -70z" />
    <glyph glyph-name="uni0E30" unicode="&#xe30;" horiz-adv-x="322" 
d="M55 349v94h49v-49h163l-2 -45h-210zM55 69v94h49v-50h163l-2 -44h-210z" />
    <glyph glyph-name="uni0E32" unicode="&#xe32;" horiz-adv-x="435" 
d="M305 0v357q0 49 -10.5 81t-41 48t-90.5 16q-31 0 -69 -6.5t-69 -18.5v47q29 11 68.5 18.5t79.5 7.5q98 0 142.5 -43.5t44.5 -144.5v-362h-55z" />
    <glyph glyph-name="uni0E33" unicode="&#xe33;" horiz-adv-x="435" 
d="M-105 601q-40 0 -68.5 27.5t-28.5 67.5t28.5 67.5t68.5 27.5t68 -27.5t28 -67.5t-28 -67.5t-68 -27.5zM-105 640q23 0 39.5 17t16.5 39q0 23 -16.5 39.5t-39.5 16.5q-24 0 -40.5 -16.5t-16.5 -39.5q0 -22 16.5 -39t40.5 -17zM305 0v357q0 49 -10.5 81t-41 48t-90.5 16
q-31 0 -69 -6.5t-69 -18.5v47q29 11 68.5 18.5t79.5 7.5q98 0 142.5 -43.5t44.5 -144.5v-362h-55z" />
    <glyph glyph-name="uni0E40" unicode="&#xe40;" horiz-adv-x="286" 
d="M161 0q-42 0 -64 25t-22 66v449h55v-439q0 -55 52 -55h49v-46h-70z" />
    <glyph glyph-name="uni0E41" unicode="&#xe41;" horiz-adv-x="496" 
d="M376 0q-41 0 -63.5 25t-22.5 66v449h55v-417q0 -39 9.5 -58t42.5 -19h44v-46h-65zM161 0q-42 0 -64 25t-22 66v449h55v-439q0 -55 52 -55h44v-46h-65z" />
    <glyph glyph-name="uni0E42" unicode="&#xe42;" horiz-adv-x="300" 
d="M205 0q-41 0 -63.5 25t-22.5 66v472q0 57 -10 90t-34 53t-65 39v49h266v-46h-195q36 -19 56.5 -42t28.5 -59.5t8 -97.5v-426q0 -39 9.5 -58t42.5 -19h49v-46h-70z" />
    <glyph glyph-name="uni0E43" unicode="&#xe43;" horiz-adv-x="278" 
d="M148 0q-41 0 -63.5 25t-22.5 66v360q0 43 13.5 73t34 51.5t41 38.5t34 34.5t13.5 40.5q0 36 -19.5 48.5t-60.5 12.5q-28 0 -56.5 -7.5t-56.5 -23.5v45q28 17 61.5 25t64.5 8q63 0 92.5 -27.5t29.5 -77.5q0 -30 -13.5 -51t-34 -39t-41 -37.5t-34 -46t-13.5 -66.5v-351
q0 -55 52 -55h49v-46h-70z" />
    <glyph glyph-name="uni0E44" unicode="&#xe44;" horiz-adv-x="285" 
d="M179 0q-41 0 -63.5 25t-22.5 66v474q0 68 27.5 113t70.5 70h-191v46h260v-48q-59 -27 -85.5 -73t-26.5 -122v-450q0 -55 52 -55h49v-46h-70z" />
    <glyph glyph-name="uni0E45" unicode="&#xe45;" horiz-adv-x="435" 
d="M305 -160v517q0 49 -10.5 81t-41 48t-90.5 16q-31 0 -69 -6.5t-69 -18.5v47q29 11 68.5 18.5t79.5 7.5q98 0 142.5 -43.5t44.5 -144.5v-522h-55z" />
    <glyph glyph-name="uni210A" unicode="&#x210a;" horiz-adv-x="564" 
d="M278 -176q-16 0 -38 1.5t-42.5 3.5t-33.5 5v48q22 -7 53.5 -9.5t50.5 -2.5q74 0 120 30.5t46 91.5v57q-34 -25 -73 -37t-90 -12q-66 0 -114.5 23t-75 75t-26.5 138q0 130 56 189t156 59q55 0 96 -15.5t75 -48.5l5 54h46v-477q0 -79 -58 -126t-153 -47zM285 45
q48 0 84.5 14t64.5 39v276q-60 64 -154 64q-91 0 -131 -50.5t-40 -151.5q0 -106 44 -148.5t132 -42.5z" />
    <glyph glyph-name="zero" unicode="0" horiz-adv-x="639" 
d="M320 -10q-93 0 -151.5 39.5t-86 111.5t-27.5 169q0 108 25 185t83 118t157 41t156.5 -41t82.5 -118t25 -185q0 -97 -27 -169t-85.5 -111.5t-151.5 -39.5zM320 37q77 0 123 35.5t66.5 97t20.5 140.5q0 95 -19.5 161t-65.5 100.5t-125 34.5q-80 0 -126 -34.5t-65.5 -100.5
t-19.5 -161q0 -79 20.5 -140.5t67 -97t123.5 -35.5z" />
    <glyph glyph-name="one" unicode="1" horiz-adv-x="286" 
d="M156 0v600l-101 -17v46l156 25v-654h-55z" />
    <glyph glyph-name="two" unicode="2" horiz-adv-x="499" 
d="M55 0v34q25 65 76 119t106 101t86.5 81t45.5 66.5t14 73.5q0 60 -35.5 95.5t-119.5 35.5q-35 0 -74 -6.5t-74 -20.5v50q30 11 72 18t80 7q100 0 152.5 -47.5t52.5 -131.5q0 -50 -18 -88t-50 -72t-75 -72q-53 -47 -101 -92.5t-74 -106.5h325v-44h-389z" />
    <glyph glyph-name="three" unicode="3" horiz-adv-x="506" 
d="M218 -10q-45 0 -90.5 7.5t-72.5 17.5v49q37 -13 75.5 -20t82.5 -7q93 0 138.5 32.5t45.5 104.5q0 68 -43.5 99.5t-120.5 31.5h-88l6 43h74q80 0 118.5 36t38.5 100q0 62 -39.5 92t-125.5 30q-40 0 -79 -7.5t-71 -19.5v49q26 11 69 18.5t86 7.5q112 0 163 -47.5t51 -122.5
q0 -50 -27 -95.5t-89 -60.5q70 -14 100.5 -57t30.5 -97q0 -92 -62 -138t-171 -46z" />
    <glyph glyph-name="four" unicode="4" horiz-adv-x="536" 
d="M376 0v155h-341v47l345 442h51v-443h70v-46h-70v-155h-55zM88 200h293v376z" />
    <glyph glyph-name="five" unicode="5" horiz-adv-x="506" 
d="M221 -10q-45 0 -90 6.5t-73 18.5v50q35 -13 74.5 -20.5t84.5 -7.5q180 0 180 152q0 72 -33.5 108t-126.5 36h-182v47l17 264h331l-6 -45h-280l-14 -221h133q115 0 165 -46.5t50 -142.5q0 -94 -59 -146.5t-171 -52.5z" />
    <glyph glyph-name="six" unicode="6" horiz-adv-x="561" 
d="M281 -10q-111 0 -168.5 57t-57.5 184v159q0 80 30 139.5t85.5 92t131.5 32.5q45 0 80.5 -5.5t63.5 -14.5v-48q-28 10 -63 15t-79 5q-100 0 -148 -58t-48 -149v-58q43 32 93 46.5t90 14.5q108 0 161.5 -52.5t53.5 -152.5q0 -94 -56.5 -150.5t-168.5 -56.5zM280 35
q88 0 131 44t43 117q0 50 -15 86.5t-51.5 56t-101.5 19.5q-49 0 -96 -17.5t-82 -43.5v-87q0 -175 172 -175z" />
    <glyph glyph-name="seven" unicode="7" horiz-adv-x="495" 
d="M142 0l253 599h-350v45h405v-45l-253 -599h-55z" />
    <glyph glyph-name="eight" unicode="8" horiz-adv-x="575" 
d="M287 -10q-111 0 -171.5 44.5t-60.5 131.5q0 60 33.5 105.5t99.5 61.5q-61 16 -88 56.5t-27 88.5q0 80 54 128t160 48q109 0 161.5 -48t52.5 -128q0 -51 -27 -92.5t-94 -63.5q74 -16 107 -55t33 -101q0 -87 -60.5 -131.5t-172.5 -44.5zM316 340q70 17 102.5 47.5
t32.5 90.5q0 63 -42 97t-122 34q-79 0 -121 -33.5t-42 -97.5q0 -48 28 -79.5t83 -42.5zM287 35q182 0 182 131q0 59 -33 86t-100 41l-91 19q-64 -13 -102 -46t-38 -99t46.5 -99t135.5 -33z" />
    <glyph glyph-name="nine" unicode="9" horiz-adv-x="561" 
d="M261 -10q-45 0 -82 5t-64 14v49q56 -21 144 -21q67 0 110 27t63.5 73.5t20.5 106.5v56q-43 -32 -90.5 -46.5t-91.5 -14.5q-108 0 -162 52.5t-54 152.5q0 94 57 152t170 58q111 0 167.5 -57t56.5 -185v-158q0 -80 -29.5 -139.5t-84.5 -92t-131 -32.5zM276 283q52 0 97 17
t80 44v90q0 175 -170 175q-89 0 -133.5 -45t-44.5 -119q0 -75 37 -118.5t134 -43.5z" />
    <glyph glyph-name="uni2080" unicode="&#x2080;" horiz-adv-x="352" 
d="M176 -128q-62 0 -91.5 38.5t-29.5 100.5q0 71 27 112t94 41q68 0 94.5 -41t26.5 -112q0 -62 -28.5 -100.5t-92.5 -38.5zM176 -94q47 0 63.5 29.5t16.5 75.5q0 57 -16 87.5t-64 30.5q-47 0 -63.5 -30.5t-16.5 -87.5q0 -46 17 -75.5t63 -29.5z" />
    <glyph glyph-name="uni2081" unicode="&#x2081;" horiz-adv-x="206" 
d="M131 -120v244l-76 -17v34l116 23v-284h-40z" />
    <glyph glyph-name="uni2082" unicode="&#x2082;" horiz-adv-x="296" 
d="M55 -120v26q13 27 34.5 47.5t47.5 41.5q36 30 48 47t12 40t-14 35t-47 12q-17 0 -36 -3.5t-35 -8.5v34q13 5 35 9t44 4q46 0 70 -23.5t24 -58.5q0 -31 -15.5 -51t-47.5 -48q-21 -19 -38 -33t-30 -36h134v-34h-186z" />
    <glyph glyph-name="uni2083" unicode="&#x2083;" horiz-adv-x="298" 
d="M130 -128q-21 0 -42.5 3.5t-32.5 7.5v34q33 -12 69 -12q42 0 59 11.5t17 39.5q0 48 -71 48h-35l4 31h27q36 0 52.5 11.5t16.5 39.5q0 24 -15.5 34t-53.5 10q-34 0 -65 -11v34q11 4 31.5 7.5t40.5 3.5q59 0 82 -21t23 -55q0 -22 -11.5 -41.5t-37.5 -27.5q31 -6 43 -23.5
t12 -40.5q0 -83 -113 -83z" />
    <glyph glyph-name="uni2084" unicode="&#x2084;" horiz-adv-x="296" 
d="M190 -120v62h-155v34l146 188h49v-189h31v-33h-31v-62h-40zM79 -25h113v146z" />
    <glyph glyph-name="uni2085" unicode="&#x2085;" horiz-adv-x="300" 
d="M128 -128q-19 0 -40 3t-33 7v36q16 -7 33.5 -9.5t35.5 -2.5q39 0 59 11.5t20 42.5q0 29 -14 40t-54 11h-80v33l7 110h162l-3 -35h-124l-4 -76h54q53 0 75.5 -21.5t22.5 -62.5q0 -40 -29 -63.5t-88 -23.5z" />
    <glyph glyph-name="uni2086" unicode="&#x2086;" horiz-adv-x="321" 
d="M163 -128q-51 0 -79.5 25t-28.5 81v69q0 56 31.5 86.5t85.5 30.5q20 0 37 -2.5t30 -6.5v-34q-26 8 -65 8q-42 0 -62 -20t-20 -56v-24q19 15 38.5 21t38.5 6q54 0 75.5 -23.5t21.5 -67.5q0 -42 -24.5 -67.5t-78.5 -25.5zM163 -95q36 0 50 14.5t14 45.5t-12 45t-52 14
q-19 0 -37.5 -8t-33.5 -19v-28q0 -34 17 -49t54 -15z" />
    <glyph glyph-name="uni2087" unicode="&#x2087;" horiz-adv-x="286" 
d="M97 -120l100 237h-152v37h196v-38l-100 -236h-44z" />
    <glyph glyph-name="uni2088" unicode="&#x2088;" horiz-adv-x="327" 
d="M164 -128q-48 0 -78.5 20t-30.5 57q0 52 53 72q-26 11 -35.5 28t-9.5 39q0 33 27 54.5t74 21.5t73.5 -21.5t26.5 -54.5q0 -22 -9 -39.5t-39 -31.5q33 -10 44.5 -27t11.5 -41q0 -37 -30 -57t-78 -20zM176 32q30 10 39.5 20.5t9.5 35.5q0 23 -17 34t-44 11q-28 0 -45 -11
t-17 -34q0 -19 8 -31.5t32 -17.5zM164 -98q32 0 50.5 12t18.5 36q0 20 -11.5 31t-40.5 18l-33 7q-25 -7 -39 -18.5t-14 -37.5q0 -24 18.5 -36t50.5 -12z" />
    <glyph glyph-name="uni2089" unicode="&#x2089;" horiz-adv-x="321" 
d="M148 -128q-20 0 -37 2.5t-30 6.5v34q26 -9 66 -9q42 0 61.5 20.5t19.5 56.5v23q-19 -14 -38.5 -20.5t-38.5 -6.5q-53 0 -74.5 23.5t-21.5 68.5q0 42 24.5 67.5t78.5 25.5q52 0 80 -25.5t28 -81.5v-69q0 -55 -32 -85.5t-86 -30.5zM158 12q20 0 37.5 7.5t32.5 19.5v28
q0 33 -16 48.5t-53 15.5t-51 -15t-14 -45q0 -31 12 -45t52 -14z" />
    <glyph glyph-name="uni2070" unicode="&#x2070;" horiz-adv-x="352" 
d="M176 362q-62 0 -91.5 38.5t-29.5 100.5q0 71 27 112t94 41q68 0 94.5 -41t26.5 -112q0 -62 -28.5 -100.5t-92.5 -38.5zM176 396q47 0 63.5 29.5t16.5 75.5q0 57 -16 87.5t-64 30.5q-47 0 -63.5 -30.5t-16.5 -87.5q0 -46 17 -75.5t63 -29.5z" />
    <glyph glyph-name="uni00B9" unicode="&#xb9;" horiz-adv-x="206" 
d="M131 370v244l-76 -17v34l116 23v-284h-40z" />
    <glyph glyph-name="uni00B2" unicode="&#xb2;" horiz-adv-x="296" 
d="M55 370v26q13 27 34.5 47.5t47.5 41.5q36 30 48 47t12 40t-14 35t-47 12q-17 0 -36 -3.5t-35 -8.5v34q13 5 35 9t44 4q46 0 70 -23.5t24 -58.5q0 -31 -15.5 -51t-47.5 -48q-21 -19 -38 -33t-30 -36h134v-34h-186z" />
    <glyph glyph-name="uni00B3" unicode="&#xb3;" horiz-adv-x="298" 
d="M130 362q-21 0 -42.5 3.5t-32.5 7.5v34q33 -12 69 -12q42 0 59 11.5t17 39.5q0 48 -71 48h-35l4 31h27q36 0 52.5 11.5t16.5 39.5q0 24 -15.5 34t-53.5 10q-34 0 -65 -11v34q11 4 31.5 7.5t40.5 3.5q59 0 82 -21t23 -55q0 -22 -11.5 -41.5t-37.5 -27.5q31 -6 43 -23.5
t12 -40.5q0 -83 -113 -83z" />
    <glyph glyph-name="uni2074" unicode="&#x2074;" horiz-adv-x="296" 
d="M190 370v62h-155v34l146 188h49v-189h31v-33h-31v-62h-40zM74 465h122v158z" />
    <glyph glyph-name="uni2075" unicode="&#x2075;" horiz-adv-x="300" 
d="M128 362q-19 0 -40 3t-33 7v36q16 -7 33.5 -9.5t35.5 -2.5q39 0 59 11.5t20 42.5q0 29 -14 40t-54 11h-80v33l7 110h162l-3 -35h-124l-4 -76h54q53 0 75.5 -21.5t22.5 -62.5q0 -40 -29 -63.5t-88 -23.5z" />
    <glyph glyph-name="uni2076" unicode="&#x2076;" horiz-adv-x="321" 
d="M163 362q-51 0 -79.5 25t-28.5 81v69q0 56 31.5 86.5t85.5 30.5q20 0 37 -2.5t30 -6.5v-34q-26 8 -65 8q-42 0 -62 -20t-20 -56v-24q19 15 38.5 21t38.5 6q54 0 75.5 -23.5t21.5 -67.5q0 -42 -24.5 -67.5t-78.5 -25.5zM163 395q36 0 50 14.5t14 45.5t-12 45t-52 14
q-19 0 -37.5 -8t-33.5 -19v-28q0 -34 17 -49t54 -15z" />
    <glyph glyph-name="uni2077" unicode="&#x2077;" horiz-adv-x="286" 
d="M97 370l100 237h-152v37h196v-38l-100 -236h-44z" />
    <glyph glyph-name="uni2078" unicode="&#x2078;" horiz-adv-x="327" 
d="M164 362q-48 0 -78.5 20t-30.5 57q0 52 53 72q-26 11 -35.5 28t-9.5 39q0 33 27 54.5t74 21.5t73.5 -21.5t26.5 -54.5q0 -22 -9 -39.5t-39 -31.5q33 -10 44.5 -27t11.5 -41q0 -37 -30 -57t-78 -20zM176 522q30 10 39.5 20.5t9.5 35.5q0 23 -17 34t-44 11q-28 0 -45 -11
t-17 -34q0 -19 8 -31.5t32 -17.5zM164 392q32 0 50.5 12t18.5 36q0 20 -11.5 31t-40.5 18l-33 7q-25 -7 -39 -18.5t-14 -37.5q0 -24 18.5 -36t50.5 -12z" />
    <glyph glyph-name="uni2079" unicode="&#x2079;" horiz-adv-x="321" 
d="M148 362q-20 0 -37 2.5t-30 6.5v34q26 -9 66 -9q42 0 61.5 20.5t19.5 56.5v23q-19 -14 -38.5 -20.5t-38.5 -6.5q-53 0 -74.5 23.5t-21.5 68.5q0 42 24.5 67.5t78.5 25.5q52 0 80 -25.5t28 -81.5v-69q0 -55 -32 -85.5t-86 -30.5zM158 502q20 0 37.5 7.5t32.5 19.5v28
q0 33 -16 48.5t-53 15.5t-51 -15t-14 -45q0 -31 12 -45t52 -14z" />
    <glyph glyph-name="fraction" unicode="&#x2044;" horiz-adv-x="119" 
d="M-125 0l315 662h54l-314 -662h-55z" />
    <glyph glyph-name="onehalf" unicode="&#xbd;" horiz-adv-x="615" 
d="M131 370v244l-76 -17v34l116 23v-284h-40zM103 0l344 644h52l-344 -644h-52zM374 0v26q14 27 35.5 47.5t46.5 41.5q37 30 48.5 47t11.5 40t-14 35t-47 12q-16 0 -35 -3.5t-36 -8.5v34q13 5 35 9t44 4q46 0 70.5 -23.5t24.5 -58.5q0 -31 -15.5 -51t-47.5 -48
q-21 -19 -38 -33t-30 -36h133v-34h-186z" />
    <glyph glyph-name="uni2153" unicode="&#x2153;" horiz-adv-x="627" 
d="M131 370v244l-76 -17v34l116 23v-284h-40zM103 0l344 644h52l-344 -644h-52zM459 -10q-21 0 -42.5 3.5t-32.5 8.5v33q33 -12 69 -12q42 0 59 12t17 39q0 48 -71 48h-35l4 32h27q36 0 52.5 11.5t16.5 39.5q0 24 -15.5 34t-53.5 10q-16 0 -33 -3t-32 -8v33q11 5 31.5 8
t40.5 3q59 0 82 -20.5t23 -55.5q0 -22 -11.5 -41t-37.5 -27q31 -6 43 -24t12 -41q0 -83 -113 -83z" />
    <glyph glyph-name="uni2154" unicode="&#x2154;" horiz-adv-x="640" 
d="M55 370v26q13 27 34.5 47.5t47.5 41.5q36 30 48 47t12 40t-14 35t-47 12q-17 0 -36 -3.5t-35 -8.5v34q13 5 35 9t44 4q46 0 70 -23.5t24 -58.5q0 -31 -15.5 -51t-47.5 -48q-21 -19 -38 -33t-30 -36h134v-34h-186zM116 0l343 644h53l-344 -644h-52zM471 -10
q-20 0 -41.5 3.5t-33.5 8.5v33q33 -12 69 -12q42 0 59.5 12t17.5 39q0 48 -72 48h-34l4 32h27q35 0 52 11.5t17 39.5q0 24 -16 34t-53 10q-17 0 -34 -3t-32 -8v33q12 5 32.5 8t39.5 3q59 0 82 -20.5t23 -55.5q0 -22 -11 -41t-37 -27q30 -6 42.5 -24t12.5 -41q0 -83 -114 -83
z" />
    <glyph glyph-name="onequarter" unicode="&#xbc;" horiz-adv-x="616" 
d="M131 370v244l-76 -17v34l116 23v-284h-40zM103 0l344 644h52l-344 -644h-52zM490 0v62h-155v34l147 188h48v-189h31v-33h-31v-62h-40zM374 95h123v158z" />
    <glyph glyph-name="threequarters" unicode="&#xbe;" horiz-adv-x="630" 
d="M130 362q-21 0 -42.5 3.5t-32.5 7.5v33q33 -12 69 -12q42 0 59 12t17 40q0 48 -71 48h-35l4 31h27q36 0 52.5 11.5t16.5 39.5q0 24 -15.5 34.5t-53.5 10.5q-34 0 -65 -11v33q11 4 31.5 7.5t40.5 3.5q59 0 82 -21t23 -55q0 -22 -11.5 -41.5t-37.5 -27.5q31 -6 43 -23.5
t12 -40.5q0 -83 -113 -83zM117 0l343 644h52l-343 -644h-52zM504 0v62h-155v34l146 188h49v-189h31v-33h-31v-62h-40zM388 95h122v158z" />
    <glyph glyph-name="oneeighth" unicode="&#x215b;" horiz-adv-x="633" 
d="M131 370v244l-76 -17v34l116 23v-284h-40zM103 0l344 644h52l-344 -644h-52zM469 -10q-48 0 -78.5 20t-30.5 57q0 27 15.5 46t43.5 25q-28 8 -39.5 26.5t-11.5 40.5q0 35 26.5 56t74.5 21q49 0 75 -21t26 -56q0 -22 -11.5 -40.5t-40.5 -27.5q31 -7 45.5 -25.5t14.5 -44.5
q0 -37 -30 -57t-79 -20zM486 154q24 6 34.5 17.5t10.5 33.5q0 46 -62 46t-62 -46q0 -44 53 -49zM469 20q32 0 50.5 12t18.5 35q0 26 -17 37.5t-52 14.5q-16 1 -31 -2q-18 -7 -27.5 -18t-9.5 -31q0 -24 18 -36t50 -12z" />
    <glyph glyph-name="threeeighths" unicode="&#x215c;" horiz-adv-x="634" 
d="M130 362q-21 0 -42.5 3.5t-32.5 7.5v34q33 -12 69 -12q42 0 59 11.5t17 39.5q0 48 -71 48h-35l4 31h27q36 0 52.5 11.5t16.5 39.5q0 25 -15.5 34.5t-53.5 9.5q-34 0 -65 -11v34q11 4 31.5 7.5t40.5 3.5q59 0 82 -21t23 -55q0 -22 -11.5 -41.5t-37.5 -27.5q31 -6 43 -23.5
t12 -40.5q0 -83 -113 -83zM105 0l343 644h52l-343 -644h-52zM470 -10q-48 0 -78.5 20t-30.5 57q0 27 15.5 46t43.5 25q-28 8 -39.5 26.5t-11.5 40.5q0 35 26.5 56t74.5 21q49 0 75 -21t26 -56q0 -22 -11.5 -40.5t-40.5 -27.5q31 -7 45.5 -25.5t14.5 -44.5q0 -37 -30 -57
t-79 -20zM487 154q24 6 34.5 17.5t10.5 33.5q0 46 -62 46t-62 -46q0 -44 53 -49zM470 20q32 0 50.5 12t18.5 35q0 26 -17 37.5t-52 14.5q-16 1 -31 -2q-18 -7 -27.5 -18t-9.5 -31q0 -24 18 -36t50 -12z" />
    <glyph glyph-name="fiveeighths" unicode="&#x215d;" horiz-adv-x="618" 
d="M89 0l343 644h53l-344 -644h-52zM128 362q-19 0 -40 3t-33 7v36q16 -7 33.5 -9.5t35.5 -2.5q39 0 59 11.5t20 42.5q0 29 -14 40t-54 11h-80v33l7 110h162l-3 -35h-124l-4 -76h54q53 0 75.5 -21.5t22.5 -62.5q0 -40 -29 -63.5t-88 -23.5zM455 -10q-49 0 -79 20t-30 57
q0 27 15 46t43 25q-28 8 -39 26.5t-11 40.5q0 35 26 56t75 21q48 0 74 -21t26 -56q0 -22 -11 -40.5t-40 -27.5q31 -7 45 -25.5t14 -44.5q0 -37 -30 -57t-78 -20zM472 154q23 6 33.5 17.5t10.5 33.5q0 46 -61 46q-62 0 -62 -46q0 -44 52 -49zM455 20q32 0 50 12t18 35
q0 26 -16.5 37.5t-51.5 14.5q-16 1 -31 -2q-18 -7 -28 -18t-10 -31q0 -24 18.5 -36t50.5 -12z" />
    <glyph glyph-name="seveneighths" unicode="&#x215e;" horiz-adv-x="636" 
d="M107 0l343 644h53l-344 -644h-52zM107 370l100 237h-152v37h196v-38l-100 -236h-44zM473 -10q-49 0 -79 20t-30 57q0 27 15 46t43 25q-28 8 -39 26.5t-11 40.5q0 35 26 56t75 21q48 0 74 -21t26 -56q0 -22 -11 -40.5t-40 -27.5q31 -7 45 -25.5t14 -44.5q0 -37 -30 -57
t-78 -20zM490 154q23 6 33.5 17.5t10.5 33.5q0 46 -61 46q-62 0 -62 -46q0 -44 52 -49zM473 20q32 0 50 12t18 35q0 26 -16.5 37.5t-51.5 14.5q-16 1 -31 -2q-18 -7 -28 -18t-10 -31q0 -24 18.5 -36t50.5 -12z" />
    <glyph glyph-name="uni0E50" unicode="&#xe50;" horiz-adv-x="613" 
d="M306 -10q-116 0 -183.5 62.5t-67.5 184.5t68 184.5t183 62.5t183.5 -62.5t68.5 -184.5t-68 -184.5t-184 -62.5zM306 37q95 0 146 48.5t51 151.5q0 102 -51 150.5t-146 48.5q-94 0 -145.5 -48.5t-51.5 -150.5q0 -103 51.5 -151.5t145.5 -48.5z" />
    <glyph glyph-name="uni0E51" unicode="&#xe51;" horiz-adv-x="641" 
d="M294 -103v50q114 26 176 91.5t62 179.5q0 103 -49.5 160.5t-161.5 57.5q-109 0 -160.5 -47.5t-51.5 -138.5q0 -79 37 -116t111 -37q28 0 55.5 6.5t44.5 18.5v-46q-20 -12 -47 -19t-61 -7q-95 0 -144.5 52t-49.5 148q0 110 67 172t199 62q135 0 200 -71t65 -196
q0 -119 -72 -203.5t-220 -116.5z" />
    <glyph glyph-name="uni0E52" unicode="&#xe52;" horiz-adv-x="686" 
d="M346 -10q-78 0 -139.5 24.5t-96.5 76t-35 130.5v319h52v-324q0 -93 60.5 -136.5t158.5 -43.5q59 0 107.5 16.5t77 51.5t28.5 89v164q0 44 -14 63t-50 19q-52 0 -74 -53h-35q-13 26 -27 39.5t-44 13.5q-37 0 -54.5 -29.5t-17.5 -92.5q0 -58 26 -77.5t73 -19.5q18 0 35.5 2
t30.5 6v-41q-31 -9 -77 -9q-61 0 -98 33t-37 106q0 88 31.5 127.5t82.5 39.5q35 0 55 -12t38 -38q23 28 48.5 39t55.5 11q104 0 104 -120v-162q0 -70 -34.5 -117.5t-94 -71t-136.5 -23.5z" />
    <glyph glyph-name="uni0E53" unicode="&#xe53;" horiz-adv-x="629" 
d="M262 -10q-64 0 -110.5 21t-71.5 72t-25 142q0 133 40.5 196t116.5 63q73 0 107 -54q22 27 52 40.5t61 13.5q51 0 86.5 -28t35.5 -90v-366h-55v358q0 44 -19 61t-59 17q-26 0 -52 -16t-26 -49v-95h-48v95q0 34 -24 49.5t-52 15.5q-63 0 -86.5 -53.5t-23.5 -157.5
q0 -79 19.5 -119.5t56.5 -54.5t89 -14q18 0 36.5 2t31.5 6v-47q-16 -4 -35 -6t-45 -2z" />
    <glyph glyph-name="uni0E54" unicode="&#xe54;" horiz-adv-x="631" 
d="M282 -10q-106 0 -166.5 61t-60.5 174q0 123 84.5 191t229.5 68q75 0 122.5 8t87.5 34v-49q-38 -25 -88 -33t-121 -8q-127 0 -194 -53.5t-67 -157.5q0 -95 47 -141.5t130 -46.5q20 0 39.5 5t37.5 15q-30 36 -30 95q0 60 38.5 92.5t101.5 32.5q57 0 88 -17v-44
q-26 17 -70 17q-54 0 -80.5 -18.5t-26.5 -63.5q0 -64 43.5 -83.5t128.5 -19.5h40v-48h-55q-43 0 -77 6.5t-60 19.5q-25 -19 -56.5 -27.5t-65.5 -8.5z" />
    <glyph glyph-name="uni0E55" unicode="&#xe55;" horiz-adv-x="631" 
d="M282 -10q-106 0 -166.5 61t-60.5 174q0 94 52.5 154.5t139.5 82.5q-46 11 -72 28v55q23 -20 59 -33.5t75 -20.5t70 -7q70 0 115.5 8.5t84.5 33.5v-49q-38 -25 -88 -33t-121 -8q-122 0 -191.5 -53.5t-69.5 -157.5q0 -95 47 -141.5t130 -46.5q20 0 39.5 5t37.5 15
q-30 36 -30 95q0 60 38.5 92.5t101.5 32.5q57 0 88 -17v-44q-26 17 -70 17q-54 0 -80.5 -18.5t-26.5 -63.5q0 -64 43.5 -83.5t128.5 -19.5h40v-48h-55q-43 0 -77 6.5t-60 19.5q-25 -19 -56.5 -27.5t-65.5 -8.5z" />
    <glyph glyph-name="uni0E56" unicode="&#xe56;" horiz-adv-x="648" 
d="M344 -10q-54 0 -105.5 14.5t-87.5 43.5v50q45 -34 92 -47.5t99 -13.5q95 0 146 50.5t51 147.5q0 95 -39.5 148t-140.5 53q-71 0 -119 -34.5t-71 -116.5h-46l-88 255h51l66 -193q24 62 77.5 99.5t135.5 37.5t132 -32t73 -88t23 -129q0 -112 -66 -178.5t-183 -66.5z" />
    <glyph glyph-name="uni0E57" unicode="&#xe57;" horiz-adv-x="852" 
d="M262 -10q-64 0 -110.5 21t-71.5 72.5t-25 141.5q0 133 39.5 196t115.5 63q38 0 64 -14t43 -40q22 27 52 40.5t61 13.5q53 0 87 -28.5t34 -90.5v-320h15q83 0 121 33t38 122v340h52v-329q0 -113 -50.5 -162t-170.5 -49h-57v358q0 44 -19 61.5t-60 17.5q-17 0 -35.5 -7
t-31 -21.5t-12.5 -36.5v-96h-50v95q0 34 -23.5 50t-51.5 16q-64 0 -86 -55.5t-22 -156.5q0 -80 20 -121t57.5 -54.5t88.5 -13.5q18 0 36.5 2t32.5 6v-46q-16 -4 -36 -6t-45 -2z" />
    <glyph glyph-name="uni0E58" unicode="&#xe58;" horiz-adv-x="623" 
d="M214 -10q-77 0 -118 56t-41 184q0 137 72.5 195.5t206.5 58.5q80 0 135.5 7.5t98.5 34.5v-49q-39 -25 -97.5 -33t-135.5 -8q-73 0 -123.5 -18t-76.5 -62.5t-26 -125.5q0 -105 26 -149t86 -44q31 0 57 16t26 50v91h45v-92q0 -22 14.5 -36.5t34.5 -21.5t37 -7q26 0 45 4.5
t38 17.5v180h-82l4 41h128v-251q-28 -19 -55.5 -29t-71.5 -10q-34 0 -65.5 13t-48.5 40q-35 -53 -113 -53z" />
    <glyph glyph-name="uni0E59" unicode="&#xe59;" horiz-adv-x="740" 
d="M239 -10q-81 0 -132.5 56t-51.5 180q0 132 41 195t120 63q44 0 68 -14t38 -40q17 28 45.5 41t65.5 13q46 0 80.5 -26t34.5 -84v-21h8q53 0 76 23t23 87v57h50v-45q0 -91 -37 -129.5t-124 -38.5h-40v48q0 44 -18.5 63t-58.5 19q-37 0 -59 -19.5t-12 -51.5l107 -366h-50
l-110 373q-9 30 -27 47t-56 17q-61 0 -86.5 -54t-25.5 -158q0 -72 18 -113t50 -58.5t74 -17.5q17 0 34 2t30 6v-47q-29 -7 -75 -7z" />
    <glyph glyph-name="period" unicode="." horiz-adv-x="163" 
d="M55 0v51h53v-51h-53z" />
    <glyph glyph-name="comma" unicode="," horiz-adv-x="189" 
d="M55 -120l26 165h53l-38 -165h-41z" />
    <glyph glyph-name="colon" unicode=":" horiz-adv-x="164" 
d="M55 332v52h54v-52h-54zM55 30v52h54v-52h-54z" />
    <glyph glyph-name="semicolon" unicode=";" horiz-adv-x="190" 
d="M82 332v52h53v-52h-53zM55 -94l26 165h53l-38 -165h-41z" />
    <glyph glyph-name="ellipsis" unicode="&#x2026;" horiz-adv-x="539" 
d="M432 0v50h52v-50h-52zM55 0v50h52v-50h-52zM243 0v50h52v-50h-52z" />
    <glyph glyph-name="exclam" unicode="!" horiz-adv-x="171" 
d="M64 146l-6 345v153h55v-153l-5 -345h-44zM55 0v48h61v-48h-61z" />
    <glyph glyph-name="exclamdown" unicode="&#xa1;" horiz-adv-x="171" 
d="M55 426v48h61v-48h-61zM58 -170v153l6 345h44l5 -345v-153h-55z" />
    <glyph glyph-name="question" unicode="?" horiz-adv-x="488" 
d="M176 148v24q0 44 17.5 73.5t43.5 52.5t52 44q36 29 63 59t27 77q0 63 -36.5 95.5t-125.5 32.5q-47 0 -88 -9.5t-74 -25.5v48q29 16 74 25.5t98 9.5q104 0 155 -46t51 -129q0 -38 -14 -66t-37 -50.5t-52 -46.5q-31 -25 -53 -44.5t-34 -42.5t-12 -60v-21h-55zM173 0v48h61
v-48h-61z" />
    <glyph glyph-name="questiondown" unicode="&#xbf;" horiz-adv-x="488" 
d="M254 426v48h61v-48h-61zM261 -180q-103 0 -154.5 46.5t-51.5 128.5q0 39 14 66.5t37.5 50.5t51.5 46q31 26 53 45t34 42t12 60v21h55v-24q0 -43 -17.5 -73t-43.5 -52.5t-52 -44.5q-36 -29 -63 -59t-27 -77q0 -63 36.5 -95.5t125.5 -32.5q47 0 88 9.5t74 25.5v-48
q-29 -16 -74 -25.5t-98 -9.5z" />
    <glyph glyph-name="periodcentered" unicode="&#xb7;" horiz-adv-x="163" 
d="M55 258v51h53v-51h-53z" />
    <glyph glyph-name="bullet" unicode="&#x2022;" horiz-adv-x="341" 
d="M170 172q-48 0 -81.5 33t-33.5 82q0 32 15.5 58.5t41.5 42t58 15.5t58.5 -15.5t42 -42t15.5 -58.5q0 -49 -34 -82t-82 -33z" />
    <glyph glyph-name="asterisk" unicode="*" horiz-adv-x="421" 
d="M119 346l-35 27l95 110l-124 50l18 39l118 -55l-4 127h47l-4 -127l117 55l19 -39l-126 -51l97 -109l-36 -27l-91 117z" />
    <glyph glyph-name="numbersign" unicode="#" horiz-adv-x="694" 
d="M93 0l58 187h-96v41h109l59 186h-120v42h133l59 188h50l-59 -188h207l59 188h51l-59 -188h95v-42h-109l-58 -186h119v-41h-132l-59 -187h-50l58 187h-207l-59 -187h-49zM214 228h207l59 186h-208z" />
    <glyph glyph-name="slash" unicode="/" horiz-adv-x="399" 
d="M55 0l234 662h55l-234 -662h-55z" />
    <glyph glyph-name="backslash" unicode="\" horiz-adv-x="418" 
d="M308 -54l-253 716h55l253 -716h-55z" />
    <glyph glyph-name="uni208D" unicode="&#x208d;" horiz-adv-x="213" 
d="M111 -146q-28 29 -42 75.5t-14 86.5t14 86.5t42 75.5h47q-33 -33 -47.5 -76t-14.5 -86t14.5 -86.5t47.5 -75.5h-47z" />
    <glyph glyph-name="uni208E" unicode="&#x208e;" horiz-adv-x="213" 
d="M55 -146q33 32 47.5 75.5t14.5 86.5t-14.5 86t-47.5 76h46q29 -29 43 -75.5t14 -86.5t-14 -86.5t-43 -75.5h-46z" />
    <glyph glyph-name="parenleft" unicode="(" horiz-adv-x="292" 
d="M194 -72q-53 44 -83.5 107t-43 133.5t-12.5 134.5t12.5 134t43 133.5t83.5 107.5h63q-79 -66 -113.5 -161.5t-34.5 -213.5t34.5 -213.5t113.5 -161.5h-63z" />
    <glyph glyph-name="parenright" unicode=")" horiz-adv-x="292" 
d="M35 -72q79 66 113 161.5t34 213.5t-34 213.5t-113 161.5h63q54 -44 84 -107.5t42.5 -133.5t12.5 -134t-12.5 -134.5t-42.5 -133.5t-84 -107h-63z" />
    <glyph glyph-name="braceleft" unicode="{" horiz-adv-x="285" 
d="M208 -104q-54 0 -79 21.5t-25 76.5v185q0 45 -12.5 69.5t-56.5 29.5v40q44 5 56.5 29.5t12.5 69.5v185q0 55 25 76.5t79 21.5h32v-45h-24q-33 0 -45 -12.5t-12 -47.5v-205q0 -26 -13 -54t-48 -38q35 -10 48 -38t13 -54v-205q0 -35 12 -47.5t45 -12.5h24v-45h-32z" />
    <glyph glyph-name="braceright" unicode="}" horiz-adv-x="285" 
d="M45 -104v45h24q33 0 45 12.5t12 47.5v205q0 26 13.5 54t47.5 38q-34 10 -47.5 38t-13.5 54v205q0 35 -12 47.5t-45 12.5h-24v45h32q54 0 79 -21.5t25 -76.5v-185q0 -45 13 -69.5t56 -29.5v-40q-43 -5 -56 -29.5t-13 -69.5v-185q0 -55 -25 -76.5t-79 -21.5h-32z" />
    <glyph glyph-name="bracketleft" unicode="[" horiz-adv-x="333" 
d="M55 -99v805h231l2 -45h-178v-716h178l-2 -44h-231z" />
    <glyph glyph-name="bracketright" unicode="]" horiz-adv-x="333" 
d="M47 -99l-2 44h178v716h-178l2 45h231v-805h-231z" />
    <glyph glyph-name="uni207D" unicode="&#x207d;" horiz-adv-x="213" 
d="M111 352q-28 29 -42 75.5t-14 86.5t14 86.5t42 75.5h47q-33 -33 -47.5 -76t-14.5 -86t14.5 -86.5t47.5 -75.5h-47z" />
    <glyph glyph-name="uni207E" unicode="&#x207e;" horiz-adv-x="213" 
d="M55 352q33 32 47.5 75.5t14.5 86.5t-14.5 86t-47.5 76h47q29 -29 42.5 -75.5t13.5 -86.5t-13.5 -86.5t-42.5 -75.5h-47z" />
    <glyph glyph-name="hyphen" unicode="-" horiz-adv-x="482" 
d="M55 235v45h372v-45h-372z" />
    <glyph glyph-name="uni00AD" unicode="&#xad;" horiz-adv-x="482" 
d="M55 235v45h372v-45h-372z" />
    <glyph glyph-name="endash" unicode="&#x2013;" horiz-adv-x="591" 
d="M55 235v45h481v-45h-481z" />
    <glyph glyph-name="emdash" unicode="&#x2014;" horiz-adv-x="893" 
d="M55 235v45h783v-45h-783z" />
    <glyph glyph-name="figuredash" unicode="&#x2012;" horiz-adv-x="620" 
d="M55 235v45h510v-45h-510z" />
    <glyph glyph-name="uni2015" unicode="&#x2015;" horiz-adv-x="941" 
d="M55 235v45h831v-45h-831z" />
    <glyph glyph-name="uni2010" unicode="&#x2010;" horiz-adv-x="513" 
d="M55 235v45h403v-45h-403z" />
    <glyph glyph-name="underscore" unicode="_" horiz-adv-x="554" 
d="M55 -45v45h444v-45h-444z" />
    <glyph glyph-name="quotesinglbase" unicode="&#x201a;" horiz-adv-x="210" 
d="M55 -138l46 171h54l-58 -171h-42z" />
    <glyph glyph-name="quotedblbase" unicode="&#x201e;" horiz-adv-x="333" 
d="M181 -123l46 171h51l-58 -171h-39zM55 -123l46 171h51l-58 -171h-39z" />
    <glyph glyph-name="quotedblleft" unicode="&#x201c;" horiz-adv-x="333" 
d="M181 483l58 171h39l-46 -171h-51zM55 483l58 171h39l-46 -171h-51z" />
    <glyph glyph-name="quotedblright" unicode="&#x201d;" horiz-adv-x="333" 
d="M181 483l46 171h51l-58 -171h-39zM55 483l46 171h51l-58 -171h-39z" />
    <glyph glyph-name="quoteleft" unicode="&#x2018;" horiz-adv-x="210" 
d="M55 483l58 171h42l-46 -171h-54z" />
    <glyph glyph-name="quoteright" unicode="&#x2019;" horiz-adv-x="210" 
d="M55 483l46 171h54l-58 -171h-42z" />
    <glyph glyph-name="guillemotleft" unicode="&#xab;" horiz-adv-x="581" 
d="M502 87l-250 184v32l250 184l24 -34l-223 -166l223 -166zM305 87l-250 184v32l250 184l23 -34l-222 -166l222 -166z" />
    <glyph glyph-name="guillemotright" unicode="&#xbb;" horiz-adv-x="581" 
d="M276 87l-24 34l223 166l-223 166l24 34l250 -184v-32zM78 87l-23 34l222 166l-222 166l23 34l250 -184v-32z" />
    <glyph glyph-name="guilsinglleft" unicode="&#x2039;" horiz-adv-x="383" 
d="M305 87l-250 184v32l250 184l23 -34l-222 -166l222 -166z" />
    <glyph glyph-name="guilsinglright" unicode="&#x203a;" horiz-adv-x="383" 
d="M78 87l-23 34l222 166l-222 166l23 34l250 -184v-32z" />
    <glyph glyph-name="quotedbl" unicode="&#x22;" horiz-adv-x="297" 
d="M189 479v165h53l-12 -165h-41zM55 479v165h53l-12 -165h-41z" />
    <glyph glyph-name="quotesingle" unicode="'" horiz-adv-x="163" 
d="M55 479v165h53l-12 -165h-41z" />
    <glyph glyph-name="uni0E5A" unicode="&#xe5a;" horiz-adv-x="760" 
d="M364 0v342q-28 -19 -63 -30.5t-80 -11.5q-79 0 -122.5 40.5t-43.5 101.5q0 55 17 98h55q-19 -38 -19 -95q0 -44 28 -70.5t89 -26.5q87 0 139 42v150h55v-177q14 -8 32 -11.5t41 -3.5q86 0 138 42v150h55v-540h-55v342q-28 -19 -62.5 -30.5t-79.5 -11.5q-43 0 -69 13v-313
h-55z" />
    <glyph glyph-name="uni0E4F" unicode="&#xe4f;" horiz-adv-x="611" 
d="M306 -10q-69 0 -126 33.5t-91 90.5t-34 126t34 126t91 91t126 34t126 -34t90.5 -91t33.5 -126t-33.5 -126t-90.5 -90.5t-126 -33.5zM306 37q56 0 102 27.5t73.5 73.5t27.5 102t-27.5 102t-73.5 73.5t-102 27.5t-102 -27.5t-73.5 -73.5t-27.5 -102t27.5 -102t73.5 -73.5
t102 -27.5zM306 110q-36 0 -65.5 17.5t-47 47t-17.5 65.5t17.5 65.5t47 46.5t65.5 17t65 -17t46.5 -46.5t17.5 -65.5t-17.5 -65.5t-46.5 -47t-65 -17.5zM306 155q35 0 60 25t25 60t-25 60.5t-60 25.5q-36 0 -61 -25.5t-25 -60.5t25 -60t61 -25z" />
    <glyph glyph-name="uni0E5B" unicode="&#xe5b;" horiz-adv-x="1165" 
d="M318 22q-127 0 -195 72.5t-68 197.5q0 74 25.5 132.5t74.5 92t121 33.5q102 0 148 -50.5t46 -133.5q0 -63 -30.5 -109.5t-97.5 -73.5v49q44 24 60 57.5t16 76.5q0 66 -33.5 102.5t-107.5 36.5q-87 0 -129 -58t-42 -153q0 -113 54.5 -170t157.5 -57q82 0 134.5 34t78 93.5
t25.5 137.5q0 41 -3 71t-10 65h65q18 -30 34.5 -68.5t29 -78t18.5 -74.5h2q9 27 17.5 64t13 74t2.5 62h52q10 -18 22.5 -50t24.5 -68.5t20 -69.5h2q7 20 14 51t12.5 65t6.5 60h46q10 -19 22 -49t22 -61t14 -52h2q12 26 17.5 60.5t3.5 77.5h37v-34.5t-2 -30.5h69l-3 -38h-73
q-4 -24 -12 -43.5t-20 -43.5h-42q-2 17 -10.5 46.5t-19 60t-20.5 48.5h-2q-1 -13 -5 -36.5t-10 -50t-12 -50.5t-11 -39h-52q-6 44 -22.5 96.5t-35.5 89.5h-2q-1 -22 -8 -60.5t-17.5 -78.5t-20.5 -68h-51q-1 33 -11 73.5t-24 80t-27 67.5h-2q14 -111 -14 -196.5t-95 -133.5
t-170 -48z" />
    <glyph glyph-name="uni0E46" unicode="&#xe46;" horiz-adv-x="553" 
d="M423 0v423q0 29 -7.5 49.5t-30.5 25.5q-20 4 -43 -2q-37 -8 -56 -45h-34q-13 26 -26.5 38.5t-41.5 12.5q-33 0 -54 -27t-21 -90q0 -60 28 -83.5t76 -23.5q19 0 37 2t32 6v-47q-16 -4 -35 -6.5t-44 -2.5q-68 0 -108 38t-40 117q0 83 35 124t87 41q34 0 55 -11.5t37 -38.5
q20 27 46.5 38.5t57.5 11.5q64 0 84.5 -37.5t20.5 -117.5v-395h-55z" />
    <glyph glyph-name="uni0E2F" unicode="&#xe2f;" horiz-adv-x="494" 
d="M364 0v342q-28 -19 -63 -30.5t-80 -11.5q-79 0 -122.5 40.5t-43.5 101.5q0 55 17 98h55q-19 -38 -19 -95q0 -44 28 -70.5t89 -26.5q87 0 139 42v150h55v-540h-55z" />
    <glyph glyph-name="uni2007" unicode="&#x2007;" horiz-adv-x="639" 
 />
    <glyph glyph-name="space" unicode=" " horiz-adv-x="235" 
 />
    <glyph glyph-name="uni00A0" unicode="&#xa0;" horiz-adv-x="235" 
 />
    <glyph glyph-name="CR" unicode="&#xd;" horiz-adv-x="235" 
 />
    <glyph glyph-name=".null" horiz-adv-x="500" 
 />
    <glyph glyph-name=".null" horiz-adv-x="500" 
 />
    <glyph glyph-name="uni0E3F" unicode="&#xe3f;" horiz-adv-x="619" 
d="M268 -86v86h-193v644h193v86h45v-86h45q95 0 137.5 -44t42.5 -124q0 -54 -22.5 -90t-61.5 -53q50 -11 80 -47t30 -104q0 -94 -47 -138t-140 -44h-64v-86h-45zM130 354h138v245h-138v-245zM313 354h50q68 0 95.5 33.5t27.5 85.5q0 62 -28.5 94t-111.5 32h-33v-245zM130 43
h138v268h-138v-268zM313 43h59q71 0 104.5 32.5t33.5 108.5q0 62 -32.5 94.5t-120.5 32.5h-44v-268z" />
    <glyph glyph-name="uni20B5" unicode="&#x20b5;" horiz-adv-x="589" 
d="M323 -120v111q-93 6 -152 46.5t-87.5 109t-28.5 157.5q0 100 26.5 176.5t85.5 121.5t156 51v82h46v-81q48 -1 89 -9t76 -20v-49q-36 13 -77.5 21t-87.5 9v-569q42 1 85.5 7.5t79.5 19.5v-49q-69 -22 -165 -25v-110h-46zM323 38v566q-81 -6 -127.5 -45t-66.5 -104
t-20 -151q0 -118 51 -187t163 -79z" />
    <glyph glyph-name="cent" unicode="&#xa2;" horiz-adv-x="483" 
d="M266 -86v77q-110 6 -160.5 70.5t-50.5 175.5q0 115 56.5 176t154.5 69v78h44v-76q40 -1 66 -7.5t51 -18.5v-45q-52 24 -117 25v-403q31 1 61.5 8t56.5 18v-46q-50 -21 -118 -24v-77h-44zM266 36v399q-76 -9 -116.5 -57t-40.5 -141q0 -94 36 -143.5t121 -57.5z" />
    <glyph glyph-name="colonmonetary" unicode="&#x20a1;" horiz-adv-x="574" 
d="M119 -31l28 111q-92 68 -92 224q0 134 52.5 213t174.5 93l15 61h48l-15 -57h8q17 0 33.5 -1t31.5 -3l16 61h48l-17 -67q18 -4 35.5 -9t33.5 -10v-49q-19 7 -39 12.5t-42 9.5l-122 -481h29q44 0 90 7t84 20v-49q-38 -12 -82 -18.5t-99 -6.5h-17.5t-16.5 1l-15 -62h-48
l17 67q-38 7 -70 21l-22 -88h-47zM270 83l122 481q-12 1 -24 1.5t-25 0.5h-13t-12 -1l-117 -460q14 -7 31.5 -13t37.5 -9zM161 135l108 424q-90 -17 -125 -81t-35 -174q0 -114 52 -169z" />
    <glyph glyph-name="currency" unicode="&#xa4;" horiz-adv-x="571" 
d="M81 66l-26 34l84 63q-36 45 -36 106q0 60 36 105l-84 64l26 33l85 -67q23 22 54 34t65 12q35 0 65 -12t54 -34l86 67l26 -33l-84 -64q17 -22 26.5 -49t9.5 -56q0 -30 -9.5 -57t-26.5 -50l84 -63l-26 -33l-86 66q-23 -21 -53 -33t-65 -12q-34 0 -65 12t-55 33zM285 129
q39 0 70 19t49.5 51t18.5 70q0 39 -18.5 70.5t-50 50t-69.5 18.5q-39 0 -70 -18.5t-49 -50t-18 -70.5q0 -38 18.5 -70t49.5 -51t69 -19z" />
    <glyph glyph-name="dollar" unicode="$" horiz-adv-x="553" 
d="M253 -86v76q-113 1 -182 28v49q81 -30 182 -30v270q-1 0 -1.5 0.5l-0.5 0.5q-109 25 -152.5 65t-43.5 108q0 72 48.5 118.5t149.5 53.5v77h46v-76q50 -1 93.5 -8.5t66.5 -15.5v-49q-72 25 -160 25v-260q76 -18 119 -43.5t61.5 -59.5t18.5 -79q0 -79 -50.5 -122
t-148.5 -50v-78h-46zM253 357v247q-70 -7 -107 -36.5t-37 -86.5q0 -33 13 -55.5t44.5 -38t86.5 -30.5zM299 38q71 6 108 36t37 90q0 54 -34 83t-111 49v-258z" />
    <glyph glyph-name="dong" unicode="&#x20ab;" horiz-adv-x="589" 
d="M267 -10q-62 0 -110 25t-75 78.5t-27 139.5q0 129 58.5 190t158.5 61q49 0 87.5 -11.5t74.5 -38.5v122h-170v45h170v81h55v-81h65v-45h-65v-556h-46l-5 53q-34 -32 -75 -47.5t-96 -15.5zM280 35q94 0 154 64v287q-28 24 -63 38t-84 14q-88 0 -133 -49t-45 -156
q0 -101 42 -149.5t129 -48.5zM107 -107v45h403v-45h-403z" />
    <glyph glyph-name="Euro" unicode="&#x20ac;" horiz-adv-x="586" 
d="M370 -10q-118 0 -178 55t-79 149h-68v41h62q-3 32 -3 68q0 17 0.5 34.5t1.5 33.5h-61v41h65q10 74 38.5 128t82.5 84t139 30q54 0 93.5 -7.5t77.5 -21.5v-49q-39 15 -77.5 22.5t-89.5 7.5q-70 0 -113 -23.5t-65 -67t-31 -103.5h261v-41h-265q-1 -16 -1.5 -33t-0.5 -35
t0.5 -35t2.5 -33h264v-41h-258q17 -76 66 -116.5t143 -40.5q46 0 86 6.5t78 19.5v-48q-38 -12 -77 -18.5t-94 -6.5z" />
    <glyph glyph-name="florin" unicode="&#x192;" horiz-adv-x="518" 
d="M-7 -123q-23 0 -40.5 3.5t-32.5 8.5l6 44q14 -6 30 -8.5t33 -2.5q55 0 80.5 21t36.5 70l88 415h-73l9 46h73l18 80q15 69 56 102.5t111 33.5q23 0 41.5 -3.5t33.5 -9.5l-6 -43q-30 11 -64 11q-56 0 -82 -24t-36 -68l-17 -79h133l-13 -46h-129l-88 -415
q-14 -65 -53 -100.5t-115 -35.5z" />
    <glyph glyph-name="uni20B2" unicode="&#x20b2;" horiz-adv-x="633" 
d="M323 -120v111q-93 6 -152 46.5t-87.5 109t-28.5 157.5q0 100 26.5 176.5t85.5 121.5t156 51v82h46v-81q48 -1 89 -8.5t76 -18.5v-49q-75 25 -165 28v-266h209v-301q-25 -17 -75.5 -32t-133.5 -17v-110h-46zM323 38v566q-81 -6 -127.5 -45t-66.5 -104t-20 -151
q0 -118 50.5 -187.5t163.5 -78.5zM369 37q44 1 86 9t73 21v229h-159v-259z" />
    <glyph glyph-name="lira" unicode="&#x20a4;" horiz-adv-x="505" 
d="M55 0v45h27q33 0 48 21t15 57v85h-73v45h73v97h-73v46h73v108q0 74 47 112t117 38q67 0 105 -18v-44q-14 8 -40 12t-50 4q-61 0 -92.5 -25t-31.5 -80v-107h213l-3 -46h-210v-97h213l-3 -45h-210v-82q0 -27 -6 -47.5t-23 -33.5h279v-45h-395z" />
    <glyph glyph-name="uni20BA" unicode="&#x20ba;" horiz-adv-x="574" 
d="M153 0v317l-98 -32v43l98 32v87l-98 -32v43l98 32v154h55v-136l209 69v-42l-209 -69v-88l209 69v-43l-209 -68v-292q131 1 193.5 62.5t62.5 182.5v37h55v-37q0 -143 -81 -216t-237 -73h-48z" />
    <glyph glyph-name="uni20A6" unicode="&#x20a6;" horiz-adv-x="639" 
d="M113 0v211h-58v45h58v109h-58v45h58v234h53l129 -234h177v234h54v-234h58v-45h-58v-109h58v-45h-58v-211h-53l-117 211h-189v-211h-54zM167 410h78l-78 142v-142zM167 256h164l-61 109h-103v-109zM380 256h92v109h-152zM472 91v120h-67z" />
    <glyph glyph-name="peseta" unicode="&#x20a7;" horiz-adv-x="1117" 
d="M75 0v644h159q106 0 155 -55.5t49 -145.5q0 -91 -55.5 -144t-152.5 -53h-100v-246h-55zM130 291h95q80 0 120 41t40 111q0 75 -38.5 115t-116.5 40h-100v-307zM885 -10q-42 0 -80.5 5.5t-66.5 14.5v47q68 -21 140 -21q69 0 99.5 19t30.5 65q0 32 -15 48.5t-45.5 28.5
t-78.5 28q-40 14 -73 27.5t-52 38t-19 68.5q0 62 41 93.5t133 31.5q36 0 69 -4.5t58 -12.5v-47q-58 18 -118 18q-72 0 -100 -18.5t-28 -59.5q0 -28 12.5 -43.5t39.5 -26.5t71 -25q54 -17 89 -34t52.5 -42.5t17.5 -68.5q0 -70 -47 -100t-130 -30zM633 -10q-63 0 -96.5 35
t-33.5 98v164h-72v45h72v127l54 15v-142h138l-3 -45h-135v-163q0 -44 23 -68t72 -24q12 0 26 2.5t30 8.5v-41q-33 -12 -75 -12z" />
    <glyph glyph-name="uni20B1" unicode="&#x20b1;" horiz-adv-x="602" 
d="M72 0v361h-37v44h37v80h-37v44h37v115h249q78 0 124.5 -31t65.5 -84h56v-44h-45q3 -21 3 -42q0 -20 -3 -38h45v-44h-57q-21 -55 -71 -84.5t-122 -29.5h-190v-247h-55zM127 529h326q-36 70 -137 70h-189v-70zM127 405h340q2 9 3 18.5t1 19.5q0 11 -1 21.5t-3 20.5h-340
v-80zM127 291h184q104 0 141 70h-325v-70z" />
    <glyph glyph-name="uni20BD" unicode="&#x20bd;" horiz-adv-x="632" 
d="M118 0v123h-63v45h63v86h-63v44h63v346h254q106 0 155.5 -53.5t49.5 -143.5q0 -92 -56.5 -142.5t-153.5 -50.5h-194v-86h145v-45h-145v-123h-55zM173 298h190q79 0 119 39t40 109q0 74 -38.5 113.5t-115.5 39.5h-195v-301z" />
    <glyph glyph-name="uni20B9" unicode="&#x20b9;" horiz-adv-x="443" 
d="M259 0l-83 199q-10 25 -23.5 42t-36 25.5t-61.5 8.5v41h45q49 0 87.5 10.5t61.5 37.5t23 78h-217v41h215q-9 62 -43 90.5t-99 28.5h-73v42h333v-42h-130q29 -18 45 -48.5t21 -70.5h64v-41h-62q0 -67 -43.5 -109t-117.5 -50q19 -9 29 -17.5t17 -20.5t15 -32l89 -213h-56z
" />
    <glyph glyph-name="sterling" unicode="&#xa3;" horiz-adv-x="505" 
d="M55 0v45h27q33 0 48 21t15 57v196h-73v45h73v140q0 74 47 112t117 38q67 0 105 -18v-44q-14 8 -40 12t-50 4q-61 0 -92.5 -25t-31.5 -80v-139h213l-1 -45h-212v-193q0 -27 -6 -47.5t-23 -33.5h279v-45h-395z" />
    <glyph glyph-name="yen" unicode="&#xa5;" horiz-adv-x="615" 
d="M279 0v110h-163v41h163v68h-163v41h152l-213 384h56l196 -355l196 355h57l-215 -384h153v-41h-163v-68h163v-41h-163v-110h-56z" />
    <glyph glyph-name="uni2219" unicode="&#x2219;" horiz-adv-x="165" 
d="M55 291v53h55v-53h-55z" />
    <glyph glyph-name="uni2215" unicode="&#x2215;" horiz-adv-x="479" 
d="M55 0l315 662h54l-314 -662h-55z" />
    <glyph glyph-name="plus" unicode="+" horiz-adv-x="482" 
d="M217 79v156h-162v45h162v162h47v-162h163v-45h-163v-156h-47z" />
    <glyph glyph-name="minus" unicode="&#x2212;" horiz-adv-x="482" 
d="M55 235v45h372v-45h-372z" />
    <glyph glyph-name="multiply" unicode="&#xd7;" horiz-adv-x="403" 
d="M319 106l-116 116l-112 -111l-31 31l111 112l-116 115l30 31l115 -117l117 116l31 -31l-116 -117l116 -116z" />
    <glyph glyph-name="divide" unicode="&#xf7;" horiz-adv-x="481" 
d="M213 388v54h54v-54h-54zM55 235v45h371v-45h-371zM213 79v54h54v-54h-54z" />
    <glyph glyph-name="equal" unicode="=" horiz-adv-x="488" 
d="M55 306v42h378v-42h-378zM55 167v42h378v-42h-378z" />
    <glyph glyph-name="notequal" unicode="&#x2260;" horiz-adv-x="488" 
d="M144 52l41 115h-130v42h145l34 97h-179v42h194l41 115h52l-41 -115h132v-42h-147l-34 -97h181v-42h-196l-41 -115h-52z" />
    <glyph glyph-name="greater" unicode="&#x3e;" horiz-adv-x="546" 
d="M55 65v53l380 174l-380 173v53l436 -204v-45z" />
    <glyph glyph-name="less" unicode="&#x3c;" horiz-adv-x="546" 
d="M491 65l-436 204v45l436 204v-53l-379 -173l379 -174v-53z" />
    <glyph glyph-name="greaterequal" unicode="&#x2265;" horiz-adv-x="546" 
d="M55 86v50l379 172l-379 172v50l436 -201v-41zM55 0v45h436v-45h-436z" />
    <glyph glyph-name="lessequal" unicode="&#x2264;" horiz-adv-x="546" 
d="M491 86l-436 202v41l436 201v-50l-379 -172l379 -172v-50zM55 0v45h436v-45h-436z" />
    <glyph glyph-name="plusminus" unicode="&#xb1;" horiz-adv-x="482" 
d="M217 89v156h-162v45h162v162h47v-162h163v-45h-163v-156h-47zM55 0v45h372v-45h-372z" />
    <glyph glyph-name="approxequal" unicode="&#x2248;" horiz-adv-x="488" 
d="M336 279q-28 0 -50 8t-42 18.5t-41.5 18.5t-50.5 8q-31 0 -52 -8t-45 -36v50q17 21 42 29t55 8t53 -8t43 -18.5t41.5 -18.5t48.5 -8q30 0 50.5 8.5t44.5 36.5v-51q-17 -22 -42 -29.5t-55 -7.5zM336 143q-28 0 -50 8t-42 18.5t-41.5 18.5t-50.5 8q-31 0 -52 -8t-45 -37v50
q17 21 42 29t55 8t53 -8t43 -18.5t41.5 -18.5t48.5 -8q30 0 50.5 8.5t44.5 36.5v-51q-17 -22 -42 -29t-55 -7z" />
    <glyph glyph-name="asciitilde" unicode="~" horiz-adv-x="579" 
d="M409 241q-31 0 -60.5 11t-58.5 25t-58 25t-60 11q-38 0 -65.5 -15t-51.5 -46v58q17 23 48.5 38t68.5 15q35 0 64.5 -11t57.5 -25t56 -25t59 -11q38 0 64.5 14.5t50.5 45.5v-58q-17 -24 -47 -38t-68 -14z" />
    <glyph glyph-name="logicalnot" unicode="&#xac;" horiz-adv-x="535" 
d="M433 152v167h-378v45h425v-212h-47z" />
    <glyph glyph-name="asciicircum" unicode="^" horiz-adv-x="439" 
d="M55 397l141 227h46l142 -227h-53l-111 186l-112 -186h-53z" />
    <glyph glyph-name="infinity" unicode="&#x221e;" horiz-adv-x="720" 
d="M206 143q-66 0 -108.5 35t-42.5 105t42.5 105t108.5 35q52 0 91.5 -27.5t62.5 -72.5q23 45 62.5 72.5t91.5 27.5q65 0 108 -35t43 -105t-43 -105t-108 -35q-52 0 -91.5 27.5t-62.5 72.5q-23 -45 -62.5 -72.5t-91.5 -27.5zM208 184q47 0 78.5 26.5t50.5 73.5
q-22 48 -52 73t-77 25q-54 0 -81 -26t-27 -73q0 -46 27 -72.5t81 -26.5zM512 184q54 0 81 26.5t27 72.5q0 47 -27 73t-81 26q-47 0 -77 -25t-52 -75q23 -47 52.5 -72.5t76.5 -25.5z" />
    <glyph glyph-name="integral" unicode="&#x222b;" horiz-adv-x="433" 
d="M112 -123q-23 0 -42 3.5t-35 8.5v44q15 -5 30.5 -8t32.5 -3q53 0 72 21.5t19 68.5v547q0 64 32.5 100t98.5 36q23 0 42.5 -3.5t35.5 -9.5v-44q-15 5 -30.5 8t-32.5 3q-54 0 -72.5 -21t-18.5 -68v-548q0 -64 -33 -99.5t-99 -35.5z" />
    <glyph glyph-name="uni2126" unicode="&#x2126;" horiz-adv-x="771" 
d="M62 0v44h176q-79 47 -131 126.5t-52 191.5q0 94 40 169t114 119.5t177 44.5t176.5 -44.5t113.5 -119.5t40 -169q0 -112 -51.5 -191.5t-130.5 -126.5h175v-44h-252v44q103 55 154 135.5t51 182.5q0 83 -35 147.5t-97 101t-144 36.5t-144.5 -36.5t-97.5 -101t-35 -147.5
q0 -102 51 -182.5t154 -135.5v-44h-252z" />
    <glyph glyph-name="product" unicode="&#x220f;" horiz-adv-x="624" 
d="M75 -129v835h474v-835h-55v790h-364v-790h-55z" />
    <glyph glyph-name="summation" unicode="&#x2211;" horiz-adv-x="531" 
d="M55 -120v37l260 345l-260 344v38h421v-45h-353l254 -337l-254 -338h353v-44h-421z" />
    <glyph glyph-name="radical" unicode="&#x221a;" horiz-adv-x="669" 
d="M305 0l-142 398h-108v45h147l131 -376l227 647h54l-252 -714h-57z" />
    <glyph glyph-name="partialdiff" unicode="&#x2202;" horiz-adv-x="612" 
d="M243 -10q-110 0 -155.5 57t-25.5 150q21 100 84 152t174 52q41 0 87 -14.5t83 -46.5l6 29q14 73 7 126t-41 82.5t-103 29.5q-94 0 -160 -29l9 48q29 12 70.5 20t86.5 8q116 0 163 -79t18 -215l-26 -129q-28 -127 -94.5 -184t-182.5 -57zM251 34q91 0 143 47t69 132l18 85
q-29 27 -70.5 43t-91.5 16q-94 0 -142 -42.5t-63 -118.5q-16 -77 14 -119.5t123 -42.5z" />
    <glyph glyph-name="uni00B5" unicode="&#xb5;" horiz-adv-x="564" 
d="M75 -143v617h55v-302q0 -68 34 -102.5t107 -34.5q50 0 91.5 19.5t71.5 49.5v370h55v-474h-49l-5 58q-35 -31 -80 -49.5t-107 -18.5q-38 0 -69 12.5t-49 35.5v-181h-55z" />
    <glyph glyph-name="percent" unicode="%" horiz-adv-x="695" 
d="M189 370q-68 0 -101 38t-33 98q0 68 33 108t101 40t100.5 -40t32.5 -108q0 -60 -32.5 -98t-100.5 -38zM148 0l344 644h52l-344 -644h-52zM189 410q50 0 70.5 25.5t20.5 70.5q0 56 -22 81.5t-69 25.5q-48 0 -70 -25.5t-22 -81.5q0 -45 21.5 -70.5t70.5 -25.5zM506 -10
q-68 0 -101 38t-33 97q0 68 33 108t101 40t101 -40t33 -108q0 -59 -33 -97t-101 -38zM506 30q50 0 71 25t21 71q0 56 -22 81.5t-70 25.5q-47 0 -69 -25.5t-22 -81.5q0 -46 21 -71t70 -25z" />
    <glyph glyph-name="perthousand" unicode="&#x2030;" horiz-adv-x="1000" 
d="M189 370q-68 0 -101 38t-33 98q0 68 33 108t101 40t100.5 -40t32.5 -108q0 -60 -32.5 -98t-100.5 -38zM148 0l344 644h52l-344 -644h-52zM189 410q50 0 70.5 25.5t20.5 70.5q0 56 -22 81.5t-69 25.5q-48 0 -70 -25.5t-22 -81.5q0 -45 21.5 -70.5t70.5 -25.5zM506 -10
q-68 0 -101 38t-33 97q0 68 33 108t101 40t101 -40t33 -108q0 -59 -33 -97t-101 -38zM811 -10q-68 0 -101 38t-33 97q0 68 33 108t101 40t101 -40t33 -108q0 -59 -33 -97t-101 -38zM506 30q50 0 71 25t21 71q0 56 -22 81.5t-70 25.5q-47 0 -69 -25.5t-22 -81.5q0 -46 21 -71
t70 -25zM811 30q50 0 71 25t21 71q0 56 -22 81.5t-70 25.5q-47 0 -69 -25.5t-22 -81.5q0 -46 21 -71t70 -25z" />
    <glyph glyph-name="arrowup" unicode="&#x2191;" horiz-adv-x="507" 
d="M233 -54v616l-149 -185l-29 21l184 230h29l184 -230l-29 -21l-149 185v-616h-41z" />
    <glyph glyph-name="arrowright" unicode="&#x2192;" horiz-adv-x="792" 
d="M507 68l-21 29l184 149h-615v41h616l-185 149l21 29l230 -184v-29z" />
    <glyph glyph-name="arrowdown" unicode="&#x2193;" horiz-adv-x="507" 
d="M239 -56l-184 230l29 21l149 -185v616h41v-616l149 185l29 -21l-184 -230h-29z" />
    <glyph glyph-name="arrowleft" unicode="&#x2190;" horiz-adv-x="792" 
d="M285 68l-230 184v29l230 184l21 -29l-185 -149h616v-41h-615l184 -149z" />
    <glyph glyph-name="uni25C6" unicode="&#x25c6;" horiz-adv-x="643" 
d="M321 65l-266 266l266 267l267 -267z" />
    <glyph glyph-name="lozenge" unicode="&#x25ca;" horiz-adv-x="600" 
d="M275 0l-220 321l220 323h50l220 -323l-220 -321h-50zM300 47l187 274l-187 274l-186 -274z" />
    <glyph glyph-name="filledbox" unicode="&#x25a0;" horiz-adv-x="594" 
d="M55 120v484h484v-484h-484z" />
    <glyph glyph-name="triagup" unicode="&#x25b2;" horiz-adv-x="695" 
d="M55 0l293 585l292 -585h-585z" />
    <glyph glyph-name="uni25B6" unicode="&#x25b6;" horiz-adv-x="695" 
d="M55 0v585l585 -292z" />
    <glyph glyph-name="triagdn" unicode="&#x25bc;" horiz-adv-x="695" 
d="M348 0l-293 585h585z" />
    <glyph glyph-name="uni25C0" unicode="&#x25c0;" horiz-adv-x="695" 
d="M640 0l-585 293l585 292v-585z" />
    <glyph glyph-name="uni25B3" unicode="&#x25b3;" horiz-adv-x="695" 
d="M55 0l293 585l292 -585h-585zM135 49h424l-211 425z" />
    <glyph glyph-name="uni25B7" unicode="&#x25b7;" horiz-adv-x="695" 
d="M55 -1v585l585 -293zM104 80l425 211l-425 213v-424z" />
    <glyph glyph-name="uni25BD" unicode="&#x25bd;" horiz-adv-x="695" 
d="M348 0l-293 585h585zM348 110l211 425h-424z" />
    <glyph glyph-name="uni25C1" unicode="&#x25c1;" horiz-adv-x="695" 
d="M640 -1l-585 292l585 293v-585zM590 80v424l-425 -213z" />
    <glyph glyph-name="uniF8FF" unicode="&#xf8ff;" horiz-adv-x="521" 
d="M55 0v714h411v-714h-411zM106 51h309v612h-309v-612z" />
    <glyph glyph-name="at" unicode="@" horiz-adv-x="768" 
d="M390 -132q-70 0 -130.5 16t-106.5 53t-72 98.5t-26 152.5q0 175 90.5 256t258.5 81q156 0 232.5 -70t76.5 -201q0 -96 -40 -153.5t-129 -57.5h-18q-28 -30 -68 -46.5t-98 -16.5q-64 0 -105.5 29.5t-41.5 89.5q0 54 34.5 91.5t118.5 37.5h142v33q0 40 -9 63t-34.5 32.5
t-76.5 9.5q-67 0 -126 -21v40q26 11 62 16.5t75 5.5q81 0 117.5 -34t36.5 -111v-176q59 0 85.5 40t26.5 128q0 113 -62 169t-199 56q-150 0 -225.5 -67t-75.5 -225q0 -80 22 -133t61.5 -84t91 -44t110.5 -13q110 0 173 19v-46q-31 -7 -75 -12.5t-96 -5.5zM367 19
q92 0 141 62v107h-137q-66 0 -89 -23t-23 -66q0 -44 28 -62t80 -18z" />
    <glyph glyph-name="ampersand" unicode="&#x26;" horiz-adv-x="652" 
d="M265 -10q-95 0 -152.5 42.5t-57.5 114.5q0 69 44 117t119 90q-43 41 -71.5 76.5t-28.5 85.5q0 57 38.5 97.5t110.5 40.5q70 0 107.5 -38t37.5 -100q0 -55 -31 -93t-89 -77l190 -194q19 43 19 99v20h46v-19q0 -77 -32 -132l92 -93l-33 -30l-85 85q-69 -92 -224 -92z
M258 375q52 33 79 61.5t27 77.5q0 43 -22 69.5t-75 26.5q-54 0 -78 -28t-24 -68t25.5 -69t67.5 -70zM265 32q131 0 190 82l-203 206q-70 -37 -107 -74.5t-37 -97.5q0 -57 44.5 -86.5t112.5 -29.5z" />
    <glyph glyph-name="paragraph" unicode="&#xb6;" horiz-adv-x="611" 
d="M330 -77v330q-77 0 -139.5 19t-99 67.5t-36.5 137.5q0 85 33.5 136t93.5 74t138 23h236v-787h-55v742h-116v-742h-55z" />
    <glyph glyph-name="section" unicode="&#xa7;" horiz-adv-x="553" 
d="M258 -10q-116 0 -187 28v49q83 -30 183 -30q92 0 141 29t49 98q0 42 -20.5 67.5t-63.5 42t-110 32.5q-71 18 -114 37.5t-62 47t-19 69.5q0 17 5 33.5t12 29.5q-17 29 -17 70q0 79 56.5 125.5t174.5 46.5q54 0 101 -8t72 -16v-49q-72 25 -162 25q-92 0 -140 -29.5
t-48 -95.5q0 -37 16.5 -60.5t56.5 -40t110 -33.5q82 -19 126.5 -38t62 -45.5t17.5 -69.5q0 -16 -4.5 -36t-11.5 -35q16 -31 16 -71q0 -86 -62 -129.5t-178 -43.5zM443 271q4 10 5 18t1 17q0 33 -16 51t-56 31.5t-112 31.5q-57 14 -94.5 28.5t-57.5 36.5q-6 -12 -6 -30
q0 -30 16 -48.5t53.5 -31.5t103.5 -29q121 -29 163 -75z" />
    <glyph glyph-name="copyright" unicode="&#xa9;" horiz-adv-x="774" 
d="M387 -10q-69 0 -129 26t-105.5 71.5t-71.5 105.5t-26 129t26 129t71.5 105.5t105.5 71.5t129 26t129 -26t105.5 -71.5t71.5 -105.5t26 -129t-26 -129t-71.5 -105.5t-105.5 -71.5t-129 -26zM387 33q81 0 146 38t103.5 103.5t38.5 147.5t-38.5 147t-103.5 103t-146 38
t-146.5 -38t-103.5 -103t-38 -147t38 -147.5t103.5 -103.5t146.5 -38zM385 83q-109 0 -170.5 63t-61.5 175q0 80 32.5 132.5t87.5 78.5t120 26q44 0 75 -7.5t54 -20.5v-40q-55 27 -121 27q-58 0 -103.5 -20.5t-71.5 -64t-26 -111.5q0 -103 49.5 -150t146.5 -47q31 0 66 7.5
t60 20.5v-41q-26 -13 -62.5 -20.5t-74.5 -7.5z" />
    <glyph glyph-name="registered" unicode="&#xae;" horiz-adv-x="774" 
d="M387 -10q-69 0 -129 26t-105.5 71.5t-71.5 105.5t-26 129t26 129t71.5 105.5t105.5 71.5t129 26t129 -26t105.5 -71.5t71.5 -105.5t26 -129t-26 -129t-71.5 -105.5t-105.5 -71.5t-129 -26zM387 33q81 0 146 38t103.5 103.5t38.5 147.5t-38.5 147t-103.5 103t-146 38
t-146.5 -38t-103.5 -103t-38 -147t38 -147.5t103.5 -103.5t146.5 -38zM232 100v445h188q70 0 105 -35t35 -96q0 -52 -26.5 -84.5t-76.5 -41.5q16 -8 24 -19.5t16 -29.5l59 -139h-44l-60 137q-10 25 -25 32.5t-58 7.5h-92v-177h-45zM277 316h125q54 0 84 20t30 78
q0 53 -24 72.5t-75 19.5h-140v-190z" />
    <glyph glyph-name="uni2117" unicode="&#x2117;" horiz-adv-x="774" 
d="M387 -10q-69 0 -129 26t-105.5 71.5t-71.5 105.5t-26 129t26 129t71.5 105.5t105.5 71.5t129 26t129 -26t105.5 -71.5t71.5 -105.5t26 -129t-26 -129t-71.5 -105.5t-105.5 -71.5t-129 -26zM387 33q81 0 146 38t103.5 103.5t38.5 147.5t-38.5 147t-103.5 103t-146 38
t-146.5 -38t-103.5 -103t-38 -147t38 -147.5t103.5 -103.5t146.5 -38zM252 95v446h193q70 0 106 -35.5t36 -96.5t-36.5 -101.5t-105.5 -40.5h-148v-172h-45zM297 308h133q54 0 83.5 21.5t29.5 79.5q0 53 -25.5 72.5t-76.5 19.5h-144v-193z" />
    <glyph glyph-name="trademark" unicode="&#x2122;" horiz-adv-x="678" 
d="M333 362v282h45l101 -202l100 202h44v-282h-42v213l-93 -193h-19l-94 193v-213h-42zM160 362v242h-105v40h252v-40h-104v-242h-43z" />
    <glyph glyph-name="degree" unicode="&#xb0;" horiz-adv-x="321" 
d="M160 507q-43 0 -74 30t-31 75t31 75t74 30q44 0 75 -30t31 -75t-31 -75t-75 -30zM160 546q28 0 47 19t19 47t-19 47t-47 19t-46.5 -19t-18.5 -47t18.5 -47t46.5 -19z" />
    <glyph glyph-name="minute" unicode="&#x2032;" horiz-adv-x="163" 
d="M55 479v165h53l-12 -165h-41z" />
    <glyph glyph-name="second" unicode="&#x2033;" horiz-adv-x="297" 
d="M189 479v165h53l-12 -165h-41zM55 479v165h53l-12 -165h-41z" />
    <glyph glyph-name="bar" unicode="|" horiz-adv-x="165" 
d="M55 -120v855h55v-855h-55z" />
    <glyph glyph-name="brokenbar" unicode="&#xa6;" horiz-adv-x="165" 
d="M55 434v301h55v-301h-55zM55 -120v300h55v-300h-55z" />
    <glyph glyph-name="uni2113" unicode="&#x2113;" horiz-adv-x="382" 
d="M230 -10q-50 0 -75 21.5t-33 58.5t-8 83v184q-13 -6 -33.5 -14t-45.5 -14v46q43 10 79 31v188q0 87 25.5 131.5t93.5 44.5q42 0 66.5 -19.5t35.5 -52t11 -70.5q0 -61 -22.5 -106t-62.5 -79.5t-93 -64.5v-237q0 -43 14.5 -65.5t49.5 -22.5t49.5 19t14.5 59h46
q0 -54 -23.5 -87.5t-88.5 -33.5zM164 409q68 40 102 85t34 112q0 39 -14.5 69t-53.5 30q-37 0 -52.5 -25t-15.5 -73v-198z" />
    <glyph glyph-name="dagger" unicode="&#x2020;" horiz-adv-x="552" 
d="M249 0l3 446l-197 -2v45l197 -2l-3 213h55l-3 -213l196 2v-45l-196 2l3 -446h-55z" />
    <glyph glyph-name="daggerdbl" unicode="&#x2021;" horiz-adv-x="552" 
d="M249 0l3 207l-197 -2v45l197 -2l-3 102l3 101l-197 -1v44l197 -2l-3 208h55l-3 -208l196 2v-44l-196 1l3 -101l-3 -102l196 2v-45l-196 2l3 -207h-55z" />
    </font>
</defs>
</svg>
